CommissionerFlair-ExtraBoldItalic.ufo
<glyph name="numbersign" format="2">
  <advance width="706.078947368421"/>
  <unicode hex="0023"/>
  <outline>
    <contour>
      <point x="-17.210526315789473" y="112.71052631578948" type="line"/>
      <point x="55.47368421052632" y="118.78947368421053"/>
      <point x="124.3421052631579" y="119.60526315789474"/>
      <point x="183.57894736842104" y="119.60526315789474" type="curve"/>
      <point x="420.52631578947364" y="119.60526315789474" type="line"/>
      <point x="479.7631578947368" y="119.60526315789474"/>
      <point x="547.0" y="118.78947368421053"/>
      <point x="618.0526315789473" y="112.71052631578948" type="curve"/>
      <point x="649.3421052631578" y="262.1842105263158" type="line"/>
      <point x="576.6578947368421" y="256.10526315789474"/>
      <point x="508.60526315789474" y="255.28947368421052"/>
      <point x="449.36842105263156" y="255.28947368421052" type="curve"/>
      <point x="212.42105263157896" y="255.28947368421052" type="line"/>
      <point x="153.1842105263158" y="255.28947368421052"/>
      <point x="85.13157894736842" y="256.10526315789474"/>
      <point x="14.078947368421053" y="262.1842105263158" type="curve"/>
    </contour>
    <contour>
      <point x="30.131578947368425" y="0.0" type="curve"/>
      <point x="200.10526315789474" y="0.0" type="line"/>
      <point x="213.60526315789474" y="68.8157894736842"/>
      <point x="237.42105263157893" y="132.52631578947367"/>
      <point x="269.97368421052636" y="217.1578947368421" type="curve"/>
      <point x="358.8157894736842" y="450.05263157894734" type="line"/>
      <point x="393.55263157894734" y="541.5"/>
      <point x="415.4736842105263" y="596.0526315789473"/>
      <point x="454.4473684210526" y="669.3157894736842" type="curve"/>
      <point x="286.10526315789474" y="669.3157894736842" type="line"/>
      <point x="268.7105263157895" y="592.7894736842104"/>
      <point x="249.42105263157893" y="538.6842105263157"/>
      <point x="215.6842105263158" y="450.0526315789474" type="curve"/>
      <point x="126.8421052631579" y="217.1578947368421" type="line"/>
      <point x="94.28947368421052" y="132.71052631578948"/>
      <point x="65.84210526315789" y="65.55263157894737"/>
    </contour>
    <contour>
      <point x="91.36842105263158" y="404.13157894736844" type="line"/>
      <point x="164.86842105263156" y="410.2105263157895"/>
      <point x="232.92105263157896" y="411.0263157894737"/>
      <point x="292.15789473684214" y="411.0263157894737" type="curve"/>
      <point x="529.1052631578947" y="411.0263157894737" type="line"/>
      <point x="588.3421052631578" y="411.0263157894737"/>
      <point x="656.3947368421052" y="410.2105263157895"/>
      <point x="726.6315789473683" y="404.13157894736844" type="curve"/>
      <point x="758.7368421052631" y="553.6052631578948" type="line"/>
      <point x="685.2368421052631" y="547.5263157894736"/>
      <point x="617.1842105263157" y="546.7105263157895"/>
      <point x="557.9473684210526" y="546.7105263157895" type="curve"/>
      <point x="321.0" y="546.7105263157895" type="line"/>
      <point x="261.7631578947368" y="546.7105263157895"/>
      <point x="193.71052631578948" y="547.5263157894736"/>
      <point x="123.47368421052632" y="553.6052631578948" type="curve"/>
    </contour>
    <contour>
      <point x="284.6052631578947" y="0.0" type="curve"/>
      <point x="454.5789473684211" y="0.0" type="line"/>
      <point x="468.07894736842104" y="68.8157894736842"/>
      <point x="491.8947368421053" y="132.52631578947367"/>
      <point x="524.4473684210526" y="217.1578947368421" type="curve"/>
      <point x="613.2894736842105" y="450.05263157894734" type="line"/>
      <point x="648.0263157894738" y="541.5"/>
      <point x="669.9473684210526" y="596.0526315789473"/>
      <point x="708.921052631579" y="669.3157894736842" type="curve"/>
      <point x="540.578947368421" y="669.3157894736842" type="line"/>
      <point x="523.1842105263158" y="592.7894736842104"/>
      <point x="503.89473684210526" y="538.6842105263157"/>
      <point x="470.15789473684214" y="450.0526315789474" type="curve"/>
      <point x="381.3157894736842" y="217.1578947368421" type="line"/>
      <point x="348.7631578947368" y="132.71052631578948"/>
      <point x="320.3157894736842" y="65.55263157894737"/>
    </contour>
  </outline>
</glyph>
<glyph name="ampersand" format="2">
  <advance width="788.9902912621359"/>
  <unicode hex="0026"/>
  <outline>
    <contour>
      <point x="492.7864077669903" y="0.0" type="curve"/>
      <point x="739.2135922330098" y="0.0" type="line"/>
      <point x="669.3300970873787" y="76.5631067961165"/>
      <point x="613.6893203883495" y="153.4660194174757"/>
      <point x="559.0679611650485" y="229.6893203883495" type="curve"/>
      <point x="402.252427184466" y="448.0873786407767" type="line" smooth="yes"/>
      <point x="371.1553398058252" y="490.8640776699029"/>
      <point x="363.7766990291262" y="525.9417475728155"/>
      <point x="372.13592233009706" y="562.7378640776699" type="curve" smooth="yes"/>
      <point x="379.17475728155335" y="593.5728155339807"/>
      <point x="400.61165048543694" y="609.9320388349514"/>
      <point x="432.1067961165049" y="611.9320388349514" type="curve"/>
      <point x="464.9417475728156" y="608.2718446601941"/>
      <point x="487.3980582524272" y="580.9126213592233"/>
      <point x="480.6990291262136" y="547.3980582524272" type="curve" smooth="yes"/>
      <point x="474.00000000000006" y="515.1844660194174"/>
      <point x="440.0873786407767" y="487.504854368932"/>
      <point x="388.5922330097087" y="456.12621359223306" type="curve"/>
      <point x="450.5145631067961" y="368.32038834951464" type="line"/>
      <point x="518.2524271844661" y="408.3203883495146"/>
      <point x="610.9514563106798" y="449.6601941747573"/>
      <point x="629.9514563106796" y="538.0194174757282" type="curve" smooth="yes"/>
      <point x="652.9320388349515" y="645.9611650485438"/>
      <point x="559.3689320388349" y="728.3203883495146"/>
      <point x="423.5242718446601" y="728.3203883495146" type="curve" smooth="yes"/>
      <point x="315.9611650485437" y="728.3203883495146"/>
      <point x="220.0388349514563" y="689.2621359223301"/>
      <point x="196.73786407766988" y="577.0388349514564" type="curve" smooth="yes"/>
      <point x="181.39805825242718" y="503.32038834951453"/>
      <point x="204.79611650485435" y="426.0388349514563"/>
      <point x="244.85436893203885" y="369.6601941747573" type="curve" smooth="yes"/>
      <point x="409.9902912621359" y="136.0" type="line"/>
      <point x="443.00970873786406" y="91.0"/>
      <point x="475.7087378640777" y="44.66019417475728"/>
    </contour>
    <contour>
      <point x="221.47572815533985" y="-12.980582524271846" type="curve" smooth="yes"/>
      <point x="297.55339805825247" y="-12.980582524271846"/>
      <point x="366.1747572815534" y="22.116504854368937"/>
      <point x="439.5533980582524" y="75.2135922330097" type="curve"/>
      <point x="455.53398058252424" y="75.2135922330097" type="line"/>
      <point x="449.8543689320388" y="101.81553398058252" type="line"/>
      <point x="383.3495145631068" y="188.96116504854368" type="line"/>
      <point x="347.1359223300971" y="152.68932038834953"/>
      <point x="304.66019417475724" y="131.57281553398056"/>
      <point x="273.7864077669903" y="131.57281553398056" type="curve"/>
      <point x="215.19417475728153" y="135.23300970873785"/>
      <point x="192.43689320388347" y="178.3495145631068"/>
      <point x="203.13592233009706" y="221.24271844660194" type="curve" smooth="yes"/>
      <point x="211.85436893203882" y="261.1747572815534"/>
      <point x="239.74757281553394" y="290.9126213592233"/>
      <point x="290.33980582524276" y="316.29126213592235" type="curve"/>
      <point x="230.17475728155338" y="417.0194174757282" type="line"/>
      <point x="133.8155339805825" y="382.69902912621365"/>
      <point x="45.13592233009709" y="326.3592233009708"/>
      <point x="21.79611650485437" y="215.64077669902912" type="curve" smooth="yes"/>
      <point x="-3.184466019417473" y="98.03883495145631"/>
      <point x="62.87378640776698" y="-12.980582524271846"/>
    </contour>
    <contour>
      <point x="581.6504854368932" y="161.77669902912623" type="line"/>
      <point x="646.6116504854368" y="220.1359223300971"/>
      <point x="711.2135922330096" y="277.8155339805826"/>
      <point x="782.8155339805824" y="329.5339805825242" type="curve"/>
      <point x="635.9223300970873" y="441.48543689320394" type="line"/>
      <point x="596.2233009708739" y="378.14563106796123"/>
      <point x="548.8834951456312" y="321.80582524271847"/>
      <point x="500.5242718446602" y="265.1067961165049" type="curve"/>
    </contour>
  </outline>
</glyph>
<glyph name="parenleft" format="2">
  <advance width="426.8157894736842"/>
  <unicode hex="0028"/>
  <outline>
    <contour>
      <point x="194.68421052631578" y="-138.92105263157896" type="curve"/>
      <point x="342.2631578947368" y="-87.94736842105263" type="line"/>
      <point x="262.1315789473684" y="34.05263157894737"/>
      <point x="206.36842105263156" y="152.47368421052633"/>
      <point x="244.55263157894737" y="331.2105263157895" type="curve" smooth="yes"/>
      <point x="282.7368421052632" y="510.9473684210526"/>
      <point x="389.2368421052631" y="627.6842105263157"/>
      <point x="515.0" y="729.9473684210526" type="curve"/>
      <point x="370.86842105263156" y="785.2894736842105" type="line"/>
      <point x="256.07894736842104" y="707.0263157894736"/>
      <point x="104.07894736842105" y="567.078947368421"/>
      <point x="59.184210526315795" y="353.7894736842105" type="curve" smooth="yes"/>
      <point x="14.289473684210527" y="140.68421052631578"/>
      <point x="115.47368421052632" y="-41.921052631578945"/>
    </contour>
  </outline>
</glyph>
<glyph name="asterisk" format="2">
  <advance width="502.86842105263156"/>
  <unicode hex="002A"/>
  <outline>
    <contour>
      <point x="436.8157894736842" y="311.4736842105263" type="curve"/>
      <point x="521.3684210526317" y="405.1842105263158" type="line"/>
      <point x="455.57894736842104" y="448.4736842105263"/>
      <point x="393.05263157894734" y="493.7631578947369"/>
      <point x="330.8947368421053" y="539.8684210526316" type="curve"/>
      <point x="277.7105263157894" y="597.9473684210526"/>
      <point x="227.3421052631579" y="656.6578947368421"/>
      <point x="177.78947368421055" y="717.9999999999999" type="curve"/>
      <point x="93.42105263157895" y="624.2894736842105" type="line"/>
      <point x="158.21052631578945" y="581.0000000000001"/>
      <point x="222.3684210526316" y="534.8947368421053"/>
      <point x="283.7105263157895" y="487.7894736842105" type="curve"/>
      <point x="336.07894736842104" y="430.7105263157894"/>
      <point x="387.2631578947369" y="371.1842105263158"/>
    </contour>
    <contour>
      <point x="106.47368421052632" y="381.7631578947368" type="line"/>
      <point x="176.28947368421052" y="417.10526315789474"/>
      <point x="246.92105263157896" y="449.81578947368416"/>
      <point x="318.7368421052632" y="481.7105263157894" type="curve"/>
      <point x="394.4473684210526" y="498.5526315789474"/>
      <point x="470.5263157894737" y="514.3947368421053"/>
      <point x="547.2368421052633" y="528.2368421052631" type="curve"/>
      <point x="508.13157894736844" y="647.7105263157894" type="line"/>
      <point x="438.3157894736842" y="611.5526315789474"/>
      <point x="367.6842105263158" y="578.8421052631579"/>
      <point x="296.8684210526316" y="547.9473684210526" type="curve"/>
      <point x="220.15789473684208" y="530.1052631578948"/>
      <point x="144.26315789473682" y="514.4473684210526"/>
      <point x="66.55263157894737" y="501.2368421052632" type="curve"/>
    </contour>
    <contour>
      <point x="196.71052631578948" y="301.1842105263158" type="curve"/>
      <point x="320.63157894736844" y="274.42105263157896" type="line"/>
      <point x="325.47368421052636" y="352.5"/>
      <point x="332.94736842105266" y="430.57894736842104"/>
      <point x="341.2368421052631" y="508.0263157894737" type="curve"/>
      <point x="365.57894736842104" y="581.6578947368422"/>
      <point x="389.92105263157896" y="655.4736842105264"/>
      <point x="417.07894736842104" y="729.1052631578947" type="curve"/>
      <point x="293.9736842105263" y="755.0526315789474" type="line"/>
      <point x="289.1315789473684" y="676.9736842105264"/>
      <point x="281.6578947368421" y="599.7105263157895"/>
      <point x="273.36842105263156" y="522.0" type="curve"/>
      <point x="249.0263157894737" y="447.8157894736842"/>
      <point x="224.68421052631578" y="374.0"/>
    </contour>
  </outline>
</glyph>
<glyph name="plus" format="2">
  <advance width="604.6578947368422"/>
  <unicode hex="002B"/>
  <outline>
    <contour>
      <point x="168.73684210526318" y="47.868421052631575" type="curve"/>
      <point x="349.7631578947368" y="47.868421052631575" type="line"/>
      <point x="359.1315789473684" y="119.55263157894737"/>
      <point x="372.57894736842104" y="187.78947368421052"/>
      <point x="385.02631578947364" y="246.21052631578948" type="curve"/>
      <point x="410.1315789473684" y="364.1842105263158" type="line"/>
      <point x="423.3947368421052" y="425.05263157894734"/>
      <point x="438.6578947368421" y="493.10526315789474"/>
      <point x="459.99999999999994" y="564.9736842105264" type="curve"/>
      <point x="278.9736842105263" y="564.9736842105264" type="line"/>
      <point x="269.60526315789474" y="493.2894736842105"/>
      <point x="256.15789473684214" y="425.05263157894734"/>
      <point x="242.89473684210526" y="363.36842105263156" type="curve"/>
      <point x="217.78947368421052" y="246.21052631578948" type="line"/>
      <point x="205.3421052631579" y="187.78947368421052"/>
      <point x="190.07894736842104" y="119.55263157894737"/>
    </contour>
    <contour>
      <point x="38.65789473684211" y="219.26315789473685" type="line"/>
      <point x="112.3421052631579" y="225.3421052631579"/>
      <point x="180.39473684210526" y="226.1578947368421"/>
      <point x="239.6315789473684" y="226.1578947368421" type="curve"/>
      <point x="354.7368421052631" y="226.1578947368421" type="line"/>
      <point x="413.9736842105263" y="226.1578947368421"/>
      <point x="482.02631578947364" y="225.3421052631579"/>
      <point x="552.078947368421" y="219.26315789473685" type="curve"/>
      <point x="589.4473684210526" y="393.57894736842104" type="line"/>
      <point x="516.578947368421" y="387.5"/>
      <point x="448.5263157894737" y="386.6842105263158"/>
      <point x="389.2894736842105" y="386.6842105263158" type="curve"/>
      <point x="274.1842105263158" y="386.6842105263158" type="line"/>
      <point x="214.94736842105263" y="386.6842105263158"/>
      <point x="146.89473684210526" y="387.5"/>
      <point x="76.02631578947368" y="393.57894736842104" type="curve"/>
    </contour>
  </outline>
</glyph>
<glyph name="comma" format="2">
  <advance width="261.3157894736842"/>
  <unicode hex="002C"/>
  <outline>
    <contour>
      <point x="-81.60526315789474" y="-157.0" type="curve"/>
      <point x="18.736842105263158" y="-155.18421052631578" type="line"/>
      <point x="66.55263157894737" y="-112.52631578947368"/>
      <point x="175.76315789473685" y="-12.394736842105264"/>
      <point x="192.8421052631579" y="71.0" type="curve" smooth="yes"/>
      <point x="205.1842105263158" y="131.89473684210526"/>
      <point x="188.39473684210526" y="180.71052631578945"/>
      <point x="123.97368421052632" y="195.31578947368422" type="curve"/>
      <point x="26.36842105263158" y="187.78947368421052" type="line"/>
      <point x="27.631578947368425" y="138.5"/>
      <point x="22.000000000000004" y="89.21052631578948"/>
      <point x="12.92105263157895" y="44.815789473684205" type="curve"/>
      <point x="0.10526315789474117" y="-17.078947368421055"/>
      <point x="-41.21052631578948" y="-98.8157894736842"/>
    </contour>
  </outline>
</glyph>
<glyph name="hyphen" format="2">
  <advance width="428.1578947368421"/>
  <unicode hex="002D"/>
  <outline>
    <contour>
      <point x="37.8421052631579" y="215.18421052631578" type="line"/>
      <point x="99.44736842105263" y="221.26315789473682"/>
      <point x="157.23684210526315" y="222.07894736842104"/>
      <point x="207.21052631578945" y="222.07894736842104" type="curve"/>
      <point x="257.1842105263158" y="222.07894736842104"/>
      <point x="314.97368421052636" y="221.26315789473682"/>
      <point x="374.94736842105266" y="215.18421052631578" type="curve"/>
      <point x="411.3157894736842" y="389.5" type="line"/>
      <point x="349.5263157894737" y="383.42105263157896"/>
      <point x="290.9210526315789" y="382.60526315789474"/>
      <point x="240.94736842105263" y="382.60526315789474" type="curve"/>
      <point x="190.97368421052633" y="382.60526315789474"/>
      <point x="134.0" y="383.42105263157896"/>
      <point x="74.21052631578947" y="389.5" type="curve"/>
    </contour>
  </outline>
</glyph>
<glyph name="slash" format="2">
  <advance width="476.3421052631579"/>
  <unicode hex="002F"/>
  <outline>
    <contour>
      <point x="-49.07894736842105" y="0.0" type="curve"/>
      <point x="165.5" y="0.0" type="line"/>
      <point x="196.18421052631578" y="74.0"/>
      <point x="229.84210526315786" y="137.0"/>
      <point x="281.86842105263156" y="228.0" type="curve"/>
      <point x="421.2105263157895" y="474.0" type="line"/>
      <point x="476.2368421052631" y="571.0"/>
      <point x="514.3421052631579" y="636.0"/>
      <point x="569.7894736842106" y="713.0" type="curve"/>
      <point x="356.02631578947364" y="713.0" type="line"/>
      <point x="323.9736842105263" y="636.0"/>
      <point x="288.5" y="571.0"/>
      <point x="235.28947368421052" y="476.8157894736842" type="curve"/>
      <point x="94.13157894736842" y="228.0" type="line"/>
      <point x="42.10526315789474" y="137.0"/>
      <point x="3.9999999999999964" y="74.0"/>
    </contour>
  </outline>
</glyph>
<glyph name="zero" format="2">
  <advance width="671.5526315789474"/>
  <unicode hex="0030"/>
  <outline>
    <contour>
      <point x="316.7631578947368" y="-13.894736842105264" type="curve" smooth="yes"/>
      <point x="506.28947368421046" y="-13.894736842105264"/>
      <point x="604.7368421052631" y="100.44736842105262"/>
      <point x="649.7368421052631" y="313.7105263157895" type="curve" smooth="yes"/>
      <point x="694.2894736842105" y="528.0"/>
      <point x="616.2105263157895" y="704.1578947368421"/>
      <point x="395.8157894736842" y="704.1578947368421" type="curve" smooth="yes"/>
      <point x="200.10526315789474" y="704.1578947368421"/>
      <point x="104.8157894736842" y="582.8157894736843"/>
      <point x="62.0" y="375.2894736842105" type="curve" smooth="yes"/>
      <point x="20.07894736842105" y="171.3421052631579"/>
      <point x="87.44736842105263" y="-13.894736842105264"/>
    </contour>
    <contour>
      <point x="323.2894736842105" y="144.55263157894737" type="curve"/>
      <point x="248.8421052631579" y="150.81578947368422"/>
      <point x="235.36842105263156" y="241.0"/>
      <point x="259.42105263157896" y="357.0526315789474" type="curve" smooth="yes"/>
      <point x="284.1842105263158" y="475.57894736842104"/>
      <point x="323.0263157894737" y="538.6315789473683"/>
      <point x="391.7368421052631" y="544.8947368421052" type="curve"/>
      <point x="459.52631578947364" y="538.6315789473683"/>
      <point x="479.8157894736842" y="450.92105263157896"/>
      <point x="453.9473684210526" y="330.94736842105266" type="curve" smooth="yes"/>
      <point x="429.1842105263158" y="215.68421052631578"/>
      <point x="392.2631578947368" y="150.81578947368422"/>
    </contour>
  </outline>
</glyph>
<glyph name="one" format="2">
  <advance width="474.89473684210526"/>
  <unicode hex="0031"/>
  <outline>
    <contour>
      <point x="95.13157894736842" y="395.55263157894734" type="line"/>
      <point x="179.3947368421053" y="441.99999999999994"/>
      <point x="266.10526315789474" y="478.2894736842105"/>
      <point x="352.18421052631584" y="512.9473684210526" type="curve"/>
      <point x="395.89473684210526" y="694.1578947368421" type="line"/>
      <point x="290.5" y="650.1578947368421"/>
      <point x="185.28947368421052" y="606.3421052631579"/>
      <point x="80.52631578947368" y="573.5" type="curve"/>
    </contour>
    <contour>
      <point x="133.55263157894737" y="0.0" type="curve"/>
      <point x="357.0" y="0.0" type="line"/>
      <point x="362.2105263157894" y="70.10526315789474"/>
      <point x="369.49999999999994" y="131.0263157894737"/>
      <point x="387.31578947368416" y="214.47368421052633" type="curve"/>
      <point x="436.9473684210526" y="448.63157894736844" type="line"/>
      <point x="453.31578947368416" y="528.7368421052631"/>
      <point x="473.7631578947368" y="608.1052631578948"/>
      <point x="502.1842105263158" y="688.8947368421053" type="curve"/>
      <point x="395.89473684210526" y="694.1578947368421" type="line"/>
      <point x="269.2105263157895" y="610.078947368421" type="line"/>
      <point x="261.7368421052631" y="542.421052631579"/>
      <point x="249.18421052631578" y="476.31578947368416"/>
      <point x="234.81578947368422" y="408.6578947368421" type="curve"/>
      <point x="194.1578947368421" y="214.47368421052633" type="line"/>
      <point x="176.3421052631579" y="131.0263157894737"/>
      <point x="158.07894736842107" y="70.10526315789474"/>
    </contour>
  </outline>
</glyph>
<glyph name="two" format="2">
  <advance width="577.2631578947369"/>
  <unicode hex="0032"/>
  <outline>
    <contour>
      <point x="-12.05263157894737" y="0.0" type="line"/>
      <point x="485.6578947368421" y="0.0" type="line"/>
      <point x="524.4736842105262" y="182.28947368421052" type="line"/>
      <point x="457.15789473684214" y="165.60526315789474"/>
      <point x="393.5526315789474" y="163.78947368421052"/>
      <point x="330.3157894736842" y="163.78947368421052" type="curve"/>
      <point x="214.39473684210526" y="163.78947368421052" type="line"/>
      <point x="233.6315789473684" y="122.60526315789473" type="line"/>
      <point x="339.10526315789474" y="190.4473684210526" type="line"/>
      <point x="488.0526315789474" y="285.6842105263158"/>
      <point x="557.078947368421" y="358.92105263157896"/>
      <point x="578.8157894736842" y="461.9736842105263" type="curve" smooth="yes"/>
      <point x="608.3421052631578" y="601.078947368421"/>
      <point x="523.7105263157895" y="704.1578947368421"/>
      <point x="351.4473684210526" y="704.1578947368421" type="curve" smooth="yes"/>
      <point x="286.2631578947368" y="704.1578947368421"/>
      <point x="186.6315789473684" y="674.9473684210526"/>
      <point x="121.21052631578947" y="657.8421052631578" type="curve"/>
      <point x="98.99999999999999" y="464.4736842105263" type="line"/>
      <point x="176.8684210526316" y="509.2105263157895"/>
      <point x="270.7631578947368" y="543.2631578947369"/>
      <point x="302.5" y="543.2631578947369" type="curve"/>
      <point x="361.39473684210526" y="540.6315789473684"/>
      <point x="389.5263157894737" y="508.421052631579"/>
      <point x="378.3157894736842" y="457.55263157894734" type="curve" smooth="yes"/>
      <point x="361.65789473684214" y="379.89473684210526"/>
      <point x="270.05263157894734" y="310.92105263157896"/>
      <point x="133.1842105263158" y="212.71052631578948" type="curve"/>
      <point x="93.23684210526315" y="184.31578947368422"/>
      <point x="56.55263157894738" y="162.44736842105263"/>
      <point x="17.605263157894736" y="141.76315789473685" type="curve"/>
    </contour>
  </outline>
</glyph>
<glyph name="three" format="2">
  <advance width="589.8834951456311"/>
  <unicode hex="0033"/>
  <outline>
    <contour>
      <point x="244.32038834951456" y="-14.640776699029125" type="curve" smooth="yes"/>
      <point x="432.80582524271847" y="-14.640776699029125"/>
      <point x="513.7864077669904" y="45.69902912621359"/>
      <point x="539.1067961165048" y="166.62135922330097" type="curve" smooth="yes"/>
      <point x="561.4466019417475" y="271.66019417475735"/>
      <point x="499.02912621359224" y="331.378640776699"/>
      <point x="438.0291262135922" y="350.3592233009708" type="curve"/>
      <point x="440.68932038834953" y="364.6601941747573" type="line"/>
      <point x="512.0679611650486" y="378.0"/>
      <point x="571.4271844660194" y="409.0582524271844"/>
      <point x="589.4271844660194" y="494.71844660194176" type="curve" smooth="yes"/>
      <point x="613.0873786407766" y="606.6990291262136"/>
      <point x="523.1456310679612" y="704.3009708737865"/>
      <point x="356.6796116504854" y="704.3009708737865" type="curve" smooth="yes"/>
      <point x="292.0194174757282" y="704.3009708737865"/>
      <point x="193.03883495145635" y="674.9223300970873"/>
      <point x="127.75728155339806" y="657.9029126213593" type="curve"/>
      <point x="104.85436893203884" y="466.88349514563106" type="line"/>
      <point x="182.91262135922327" y="509.9029126213591"/>
      <point x="277.87378640776694" y="543.1844660194175"/>
      <point x="310.2135922330097" y="543.1844660194175" type="curve"/>
      <point x="367.40776699029124" y="539.8640776699029"/>
      <point x="394.22330097087377" y="514.4077669902914"/>
      <point x="384.84466019417476" y="469.21359223300976" type="curve" smooth="yes"/>
      <point x="375.80582524271847" y="427.378640776699"/>
      <point x="341.97087378640776" y="413.9029126213592"/>
      <point x="272.94174757281553" y="411.24271844660194" type="curve"/>
      <point x="244.66019417475727" y="411.24271844660194"/>
      <point x="217.0388349514563" y="412.24271844660194"/>
      <point x="190.41747572815535" y="418.88349514563106" type="curve"/>
      <point x="159.49514563106797" y="272.9320388349514" type="line"/>
      <point x="192.41747572815535" y="278.5728155339806"/>
      <point x="220.05825242718447" y="279.5728155339806"/>
      <point x="252.32038834951453" y="279.5728155339806" type="curve"/>
      <point x="321.6893203883495" y="277.25242718446606"/>
      <point x="356.5242718446602" y="251.378640776699"/>
      <point x="347.126213592233" y="205.7864077669903" type="curve" smooth="yes"/>
      <point x="338.747572815534" y="166.252427184466"/>
      <point x="308.9514563106796" y="148.79611650485433"/>
      <point x="246.64077669902906" y="146.13592233009706" type="curve"/>
      <point x="190.6019417475728" y="146.13592233009706"/>
      <point x="105.32038834951457" y="179.1165048543689"/>
      <point x="38.94174757281553" y="218.1359223300971" type="curve"/>
      <point x="-10.242718446601932" y="42.73786407766991" type="line"/>
      <point x="43.75728155339806" y="24.378640776699033"/>
      <point x="129.41747572815535" y="-14.640776699029125"/>
    </contour>
  </outline>
</glyph>
<glyph name="four" format="2">
  <advance width="621.5242718446602"/>
  <unicode hex="0034"/>
  <outline>
    <contour>
      <point x="250.99029126213586" y="0.0" type="curve"/>
      <point x="474.5145631067962" y="0.0" type="line"/>
      <point x="474.8932038834952" y="67.64077669902913"/>
      <point x="485.8932038834951" y="125.2621359223301"/>
      <point x="503.21359223300976" y="206.88349514563106" type="curve"/>
      <point x="554.2330097087379" y="447.9805825242719" type="line"/>
      <point x="570.2330097087379" y="526.9805825242718"/>
      <point x="588.8932038834952" y="605.9805825242718"/>
      <point x="619.8543689320388" y="688.9805825242718" type="curve"/>
      <point x="393.66990291262135" y="688.9805825242718" type="line"/>
      <point x="368.2718446601942" y="648.621359223301"/>
      <point x="333.2330097087379" y="608.5825242718447"/>
      <point x="297.53398058252424" y="568.8834951456312" type="curve"/>
      <point x="193.79611650485438" y="453.4854368932039" type="line"/>
      <point x="142.75728155339806" y="396.4466019417476"/>
      <point x="72.69902912621359" y="320.7281553398059"/>
      <point x="27.32038834951456" y="279.31067961165047" type="curve"/>
      <point x="-2.242718446601944" y="137.1359223300971" type="line"/>
      <point x="361.11650485436894" y="137.1359223300971" type="line"/>
      <point x="423.71844660194176" y="137.1359223300971"/>
      <point x="513.621359223301" y="135.47572815533982"/>
      <point x="568.9029126213593" y="127.1747572815534" type="curve"/>
      <point x="607.7669902912621" y="311.19417475728153" type="line"/>
      <point x="549.1650485436893" y="301.8932038834951"/>
      <point x="457.2621359223301" y="300.8932038834951"/>
      <point x="394.6601941747573" y="300.8932038834951" type="curve"/>
      <point x="375.03883495145624" y="287.68932038834953" type="line"/>
      <point x="179.4757281553398" y="287.68932038834953" type="line"/>
      <point x="193.73786407766985" y="264.1553398058252" type="line"/>
      <point x="223.45631067961165" y="303.85436893203877"/>
      <point x="258.15533980582524" y="344.55339805825236"/>
      <point x="293.8543689320388" y="384.25242718446594" type="curve"/>
      <point x="427.99029126213594" y="532.3883495145632" type="line"/>
      <point x="470.0291262135923" y="579.4271844660194"/>
      <point x="509.40776699029124" y="620.4854368932039"/>
      <point x="549.7864077669902" y="654.5631067961165" type="curve"/>
      <point x="396.93203883495136" y="609.2330097087379" type="line"/>
      <point x="393.5533980582524" y="541.8737864077669"/>
      <point x="380.873786407767" y="475.5145631067961"/>
      <point x="366.53398058252424" y="407.81553398058253" type="curve"/>
      <point x="329.79611650485435" y="232.1650485436893" type="line"/>
      <point x="309.91262135922324" y="206.88349514563106" type="line"/>
      <point x="292.59223300970865" y="125.2621359223301"/>
      <point x="279.9320388349514" y="67.64077669902913"/>
    </contour>
  </outline>
</glyph>
<glyph name="five" format="2">
  <advance width="588.5825242718446"/>
  <unicode hex="0035"/>
  <outline>
    <contour>
      <point x="239.3203883495146" y="-14.640776699029125" type="curve" smooth="yes"/>
      <point x="427.7864077669903" y="-14.640776699029125"/>
      <point x="514.8058252427185" y="61.32038834951455"/>
      <point x="542.1650485436893" y="193.7572815533981" type="curve" smooth="yes"/>
      <point x="571.8446601941748" y="339.11650485436894"/>
      <point x="489.44660194174753" y="436.7766990291262"/>
      <point x="378.7281553398058" y="436.7766990291262" type="curve" smooth="yes"/>
      <point x="342.34951456310677" y="436.7766990291262"/>
      <point x="314.6504854368932" y="427.0970873786408"/>
      <point x="284.9320388349514" y="413.0776699029126" type="curve"/>
      <point x="270.9708737864077" y="413.0776699029126" type="line"/>
      <point x="277.6504854368931" y="443.4757281553398" type="line"/>
      <point x="288.9902912621359" y="490.2135922330097"/>
      <point x="302.6504854368932" y="538.2912621359224"/>
      <point x="321.2912621359223" y="585.0291262135922" type="curve"/>
      <point x="247.4660194174757" y="525.2233009708738" type="line"/>
      <point x="345.82524271844665" y="525.2233009708738" type="line"/>
      <point x="422.504854368932" y="525.2233009708738"/>
      <point x="501.52427184466023" y="524.2233009708738"/>
      <point x="575.2233009708738" y="507.28155339805824" type="curve"/>
      <point x="613.0873786407767" y="688.9805825242718" type="line"/>
      <point x="146.83495145631068" y="688.9805825242718" type="line"/>
      <point x="141.47572815533977" y="603.6990291262135"/>
      <point x="122.81553398058252" y="509.0970873786408"/>
      <point x="101.49514563106796" y="408.49514563106794" type="curve"/>
      <point x="76.5145631067961" y="288.9126213592233" type="line"/>
      <point x="157.5631067961165" y="282.93203883495147" type="line"/>
      <point x="194.05825242718444" y="301.368932038835"/>
      <point x="230.4174757281553" y="308.0679611650486"/>
      <point x="263.87378640776694" y="308.0679611650486" type="curve"/>
      <point x="326.04854368932035" y="305.4077669902913"/>
      <point x="358.92233009708735" y="275.25242718446606"/>
      <point x="348.1844660194174" y="220.90291262135923" type="curve" smooth="yes"/>
      <point x="337.7864077669903" y="167.93203883495144"/>
      <point x="299.6116504854368" y="148.79611650485433"/>
      <point x="239.98058252427182" y="146.13592233009706" type="curve"/>
      <point x="185.60194174757282" y="146.13592233009706"/>
      <point x="103.32038834951457" y="179.1165048543689"/>
      <point x="38.94174757281553" y="218.1359223300971" type="curve"/>
      <point x="-10.242718446601932" y="42.73786407766991" type="line"/>
      <point x="42.75728155339806" y="24.378640776699033"/>
      <point x="126.41747572815534" y="-14.640776699029125"/>
    </contour>
  </outline>
</glyph>
<glyph name="six" format="2">
  <advance width="622.9029126213592"/>
  <unicode hex="0036"/>
  <outline>
    <contour>
      <point x="301.6019417475728" y="-14.640776699029125" type="curve" smooth="yes"/>
      <point x="475.7864077669903" y="-14.640776699029125"/>
      <point x="555.1456310679611" y="85.69902912621359"/>
      <point x="579.1456310679611" y="198.03883495145635" type="curve" smooth="yes"/>
      <point x="608.8058252427184" y="337.6601941747573"/>
      <point x="532.1650485436893" y="438.11650485436894"/>
      <point x="407.0873786407767" y="438.11650485436894" type="curve" smooth="yes"/>
      <point x="361.2912621359223" y="438.11650485436894"/>
      <point x="309.116504854369" y="418.3009708737864"/>
      <point x="269.7378640776699" y="389.22330097087377" type="curve"/>
      <point x="251.09708737864077" y="389.56310679611653" type="line"/>
      <point x="195.63106796116506" y="336.9805825242718"/>
      <point x="190.97087378640776" y="322.3009708737864"/>
      <point x="227.79611650485435" y="269.43689320388347" type="curve"/>
      <point x="255.33009708737862" y="294.6116504854369"/>
      <point x="295.90291262135923" y="310.7281553398058"/>
      <point x="331.0582524271844" y="311.7281553398058" type="curve"/>
      <point x="382.0873786407767" y="308.0679611650486"/>
      <point x="405.84466019417476" y="272.1359223300971"/>
      <point x="395.46601941747576" y="225.24271844660194" type="curve" smooth="yes"/>
      <point x="385.747572815534" y="177.68932038834953"/>
      <point x="352.93203883495147" y="149.79611650485433"/>
      <point x="307.24271844660194" y="146.13592233009706" type="curve"/>
      <point x="250.83495145631062" y="154.77669902912618"/>
      <point x="215.3980582524272" y="207.40776699029124"/>
      <point x="245.11650485436894" y="346.6407766990292" type="curve" smooth="yes"/>
      <point x="275.19417475728153" y="491.6504854368932"/>
      <point x="324.6893203883495" y="539.5242718446603"/>
      <point x="417.60194174757277" y="543.1844660194175" type="curve"/>
      <point x="446.2621359223301" y="543.1844660194175"/>
      <point x="518.9029126213592" y="520.8834951456312"/>
      <point x="581.6213592233009" y="490.8446601941748" type="curve"/>
      <point x="634.4466019417475" y="661.9223300970875" type="line"/>
      <point x="581.4854368932038" y="677.6019417475727"/>
      <point x="483.2233009708738" y="704.3009708737865"/>
      <point x="417.6019417475728" y="704.3009708737865" type="curve" smooth="yes"/>
      <point x="256.90291262135923" y="704.3009708737865"/>
      <point x="117.07766990291262" y="634.4271844660193"/>
      <point x="61.4368932038835" y="370.5631067961165" type="curve" smooth="yes"/>
      <point x="11.796116504854373" y="135.32038834951453"/>
      <point x="99.09708737864075" y="-14.640776699029125"/>
    </contour>
  </outline>
</glyph>
<glyph name="seven" format="2">
  <advance width="561.578947368421"/>
  <unicode hex="0037"/>
  <outline>
    <contour>
      <point x="20.868421052631586" y="0.0" type="curve"/>
      <point x="266.81578947368416" y="0.0" type="line"/>
      <point x="298.1578947368421" y="73.76315789473685"/>
      <point x="338.2105263157895" y="146.89473684210526"/>
      <point x="383.7894736842106" y="219.47368421052633" type="curve"/>
      <point x="462.39473684210526" y="344.2631578947368" type="line"/>
      <point x="508.5263157894737" y="417.7631578947368"/>
      <point x="550.4736842105264" y="484.2631578947369"/>
      <point x="594.4210526315788" y="543.7894736842105" type="curve"/>
      <point x="624.8947368421052" y="688.8947368421053" type="line"/>
      <point x="117.0" y="688.8947368421053" type="line"/>
      <point x="78.1842105263158" y="504.1578947368422" type="line"/>
      <point x="155.13157894736844" y="520.2105263157895"/>
      <point x="229.44736842105263" y="525.1052631578948"/>
      <point x="301.9473684210526" y="525.1052631578948" type="curve"/>
      <point x="424.84210526315786" y="525.1052631578948" type="line"/>
      <point x="373.6052631578948" y="562.0263157894736" type="line"/>
      <point x="353.9210526315789" y="517.0"/>
      <point x="329.5263157894737" y="473.7894736842106"/>
      <point x="299.2368421052631" y="426.3157894736842" type="curve"/>
      <point x="181.42105263157896" y="242.39473684210526" type="line"/>
      <point x="129.8421052631579" y="161.6315789473684"/>
      <point x="76.26315789473685" y="79.5"/>
    </contour>
  </outline>
</glyph>
<glyph name="less" format="2">
  <advance width="584.4736842105264"/>
  <unicode hex="003C"/>
  <outline>
    <contour>
      <point x="493.52631578947364" y="34.60526315789474" type="curve"/>
      <point x="531.7105263157894" y="212.55263157894734" type="line"/>
      <point x="481.55263157894734" y="223.3421052631579"/>
      <point x="429.84210526315786" y="242.57894736842104"/>
      <point x="381.13157894736844" y="261.63157894736844" type="curve"/>
      <point x="302.92105263157896" y="292.07894736842104" type="line"/>
      <point x="305.7368421052632" y="306.2368421052632" type="line"/>
      <point x="395.7105263157895" y="335.0526315789474" type="line"/>
      <point x="453.89473684210526" y="354.10526315789474"/>
      <point x="513.4473684210526" y="371.7105263157895"/>
      <point x="567.8157894736843" y="382.5" type="curve"/>
      <point x="608.4473684210526" y="577.8684210526316" type="line"/>
      <point x="529.9473684210527" y="543.5263157894738"/>
      <point x="455.89473684210526" y="517.5263157894736"/>
      <point x="392.2894736842105" y="495.5263157894737" type="curve"/>
      <point x="289.8157894736842" y="460.3157894736842" type="line"/>
      <point x="225.76315789473685" y="438.5"/>
      <point x="152.52631578947367" y="414.3157894736842"/>
      <point x="76.6578947368421" y="395.2105263157895" type="curve"/>
      <point x="38.473684210526315" y="217.26315789473685" type="line"/>
      <point x="106.78947368421053" y="198.15789473684208"/>
      <point x="169.21052631578948" y="173.9736842105263"/>
      <point x="224.07894736842104" y="152.1578947368421" type="curve"/>
      <point x="311.0" y="116.94736842105263" type="line"/>
      <point x="365.42105263157896" y="94.94736842105263"/>
      <point x="429.4736842105263" y="68.76315789473684"/>
    </contour>
  </outline>
</glyph>
<glyph name="equal" format="2">
  <advance width="584.4736842105264"/>
  <unicode hex="003D"/>
  <outline>
    <contour>
      <point x="20.736842105263165" y="93.86842105263159" type="line"/>
      <point x="94.23684210526315" y="99.94736842105264"/>
      <point x="162.28947368421055" y="100.76315789473685"/>
      <point x="221.5263157894737" y="100.76315789473685" type="curve"/>
      <point x="300.3157894736842" y="100.76315789473685" type="line"/>
      <point x="359.55263157894734" y="100.76315789473685"/>
      <point x="427.60526315789474" y="99.94736842105264"/>
      <point x="497.84210526315786" y="93.86842105263159" type="curve"/>
      <point x="535.0263157894736" y="268.1842105263158" type="line"/>
      <point x="462.15789473684214" y="262.10526315789474"/>
      <point x="394.10526315789474" y="261.2894736842105"/>
      <point x="334.8684210526316" y="261.2894736842105" type="curve"/>
      <point x="256.07894736842104" y="261.2894736842105" type="line"/>
      <point x="196.84210526315792" y="261.2894736842105"/>
      <point x="128.78947368421055" y="262.10526315789474"/>
      <point x="57.92105263157895" y="268.1842105263158" type="curve"/>
    </contour>
    <contour>
      <point x="73.5263157894737" y="344.65789473684214" type="line"/>
      <point x="147.0263157894737" y="350.7368421052632"/>
      <point x="215.07894736842107" y="351.5526315789474"/>
      <point x="274.3157894736842" y="351.5526315789474" type="curve"/>
      <point x="353.10526315789474" y="351.5526315789474" type="line"/>
      <point x="412.34210526315786" y="351.5526315789474"/>
      <point x="480.39473684210526" y="350.7368421052632"/>
      <point x="550.6315789473684" y="344.65789473684214" type="curve"/>
      <point x="587.8157894736842" y="518.9736842105264" type="line"/>
      <point x="514.9473684210526" y="512.8947368421052"/>
      <point x="446.89473684210526" y="512.078947368421"/>
      <point x="387.65789473684214" y="512.078947368421" type="curve"/>
      <point x="308.8684210526316" y="512.078947368421" type="line"/>
      <point x="249.63157894736844" y="512.078947368421"/>
      <point x="181.57894736842107" y="512.8947368421052"/>
      <point x="110.71052631578947" y="518.9736842105264" type="curve"/>
    </contour>
  </outline>
</glyph>
<glyph name="greater" format="2">
  <advance width="584.4736842105264"/>
  <unicode hex="003E"/>
  <outline>
    <contour>
      <point x="0.10526315789473828" y="34.60526315789474" type="line"/>
      <point x="78.60526315789474" y="68.94736842105263"/>
      <point x="152.6578947368421" y="94.94736842105263"/>
      <point x="216.26315789473685" y="116.94736842105263" type="curve"/>
      <point x="318.7368421052631" y="152.1578947368421" type="line"/>
      <point x="382.7894736842105" y="173.9736842105263"/>
      <point x="456.02631578947364" y="198.15789473684208"/>
      <point x="531.8947368421053" y="217.26315789473685" type="curve"/>
      <point x="570.0789473684209" y="395.2105263157895" type="line"/>
      <point x="501.7631578947368" y="414.3157894736842"/>
      <point x="439.3421052631579" y="438.5"/>
      <point x="384.4736842105263" y="460.3157894736842" type="curve"/>
      <point x="297.55263157894734" y="495.5263157894737" type="line"/>
      <point x="243.1315789473684" y="517.5263157894736"/>
      <point x="179.07894736842107" y="543.7105263157896"/>
      <point x="115.02631578947368" y="577.8684210526316" type="curve"/>
      <point x="76.8421052631579" y="399.92105263157896" type="line"/>
      <point x="127.0" y="389.13157894736844"/>
      <point x="178.71052631578948" y="369.89473684210526"/>
      <point x="227.42105263157896" y="350.8421052631579" type="curve"/>
      <point x="305.63157894736844" y="320.39473684210526" type="line"/>
      <point x="302.8157894736842" y="306.2368421052631" type="line"/>
      <point x="212.8421052631579" y="277.42105263157896" type="line"/>
      <point x="154.6578947368421" y="258.36842105263156"/>
      <point x="95.10526315789474" y="240.76315789473685"/>
      <point x="40.73684210526316" y="229.97368421052627" type="curve"/>
    </contour>
  </outline>
</glyph>
<glyph name="at" format="2">
  <advance width="897.0263157894736"/>
  <unicode hex="0040"/>
  <outline>
    <contour>
      <point x="488.31578947368416" y="-150.55263157894737" type="curve" smooth="yes"/>
      <point x="573.9473684210526" y="-150.55263157894737"/>
      <point x="687.6842105263157" y="-119.5263157894737"/>
      <point x="771.9473684210526" y="-85.9736842105263" type="curve"/>
      <point x="771.9473684210526" y="35.23684210526316" type="line"/>
      <point x="660.3421052631579" y="-20.289473684210527"/>
      <point x="546.2631578947369" y="-42.31578947368421"/>
      <point x="488.31578947368416" y="-46.94736842105263" type="curve"/>
      <point x="230.68421052631578" y="-42.31578947368421"/>
      <point x="114.10526315789474" y="118.63157894736842"/>
      <point x="162.3684210526316" y="337.07894736842104" type="curve" smooth="yes"/>
      <point x="196.57894736842107" y="493.2368421052631"/>
      <point x="301.1578947368421" y="598.2631578947369"/>
      <point x="483.31578947368416" y="602.8947368421053" type="curve"/>
      <point x="680.5789473684209" y="598.2631578947369"/>
      <point x="795.5263157894736" y="477.84210526315786"/>
      <point x="756.1578947368421" y="279.8157894736842" type="curve" smooth="yes"/>
      <point x="744.2368421052631" y="219.39473684210526"/>
      <point x="696.1578947368421" y="169.68421052631578"/>
      <point x="662.4736842105264" y="166.42105263157896" type="curve"/>
      <point x="625.0526315789474" y="170.05263157894737"/>
      <point x="613.4736842105262" y="195.9736842105263"/>
      <point x="630.5526315789474" y="277.2894736842105" type="curve"/>
      <point x="641.1315789473684" y="327.0" type="line"/>
      <point x="654.9473684210526" y="380.65789473684214"/>
      <point x="671.3947368421053" y="435.57894736842104"/>
      <point x="693.6578947368421" y="487.7894736842105" type="curve"/>
      <point x="549.2631578947369" y="480.7105263157895" type="line"/>
      <point x="532.4473684210526" y="429.7894736842105" type="line"/>
      <point x="520.921052631579" y="429.7894736842105" type="line"/>
      <point x="497.2631578947368" y="470.94736842105266"/>
      <point x="452.1315789473684" y="492.9736842105263"/>
      <point x="414.81578947368416" y="492.9736842105263" type="curve" smooth="yes"/>
      <point x="322.4473684210526" y="492.9736842105263"/>
      <point x="259.05263157894734" y="410.10526315789474"/>
      <point x="239.1315789473684" y="311.42105263157896" type="curve" smooth="yes"/>
      <point x="213.31578947368422" y="182.81578947368422"/>
      <point x="269.10526315789474" y="68.10526315789474"/>
      <point x="378.6842105263158" y="68.10526315789474" type="curve" smooth="yes"/>
      <point x="410.4473684210526" y="68.10526315789474"/>
      <point x="457.6315789473684" y="91.73684210526316"/>
      <point x="493.02631578947364" y="133.6578947368421" type="curve"/>
      <point x="503.7368421052631" y="133.6578947368421" type="line"/>
      <point x="525.2368421052631" y="91.76315789473685"/>
      <point x="582.2368421052631" y="59.73684210526316"/>
      <point x="661.3157894736842" y="59.73684210526316" type="curve" smooth="yes"/>
      <point x="716.4736842105262" y="59.73684210526316"/>
      <point x="838.7631578947369" y="120.68421052631581"/>
      <point x="866.1052631578947" y="257.5" type="curve" smooth="yes"/>
      <point x="915.6315789473683" y="506.5263157894737"/>
      <point x="750.0526315789473" y="706.5"/>
      <point x="485.1315789473684" y="706.5" type="curve" smooth="yes"/>
      <point x="288.60526315789474" y="706.5"/>
      <point x="103.76315789473685" y="600.6052631578947"/>
      <point x="53.05263157894736" y="361.4736842105263" type="curve" smooth="yes"/>
      <point x="-5.3684210526315805" y="87.42105263157895"/>
      <point x="158.0263157894737" y="-150.55263157894737"/>
    </contour>
    <contour>
      <point x="424.2894736842105" y="196.81578947368422" type="curve"/>
      <point x="388.55263157894734" y="198.81578947368422"/>
      <point x="372.7631578947368" y="240.21052631578948"/>
      <point x="381.8947368421052" y="284.7631578947368" type="curve" smooth="yes"/>
      <point x="391.1052631578947" y="328.89473684210526"/>
      <point x="416.36842105263156" y="358.8157894736842"/>
      <point x="453.52631578947364" y="361.63157894736844" type="curve"/>
      <point x="473.52631578947364" y="360.1842105263158"/>
      <point x="488.07894736842104" y="350.9473684210526"/>
      <point x="497.9736842105263" y="339.2368421052632" type="curve"/>
      <point x="474.7368421052631" y="230.71052631578948" type="line"/>
      <point x="460.36842105263156" y="208.31578947368422"/>
      <point x="442.63157894736844" y="198.81578947368422"/>
    </contour>
  </outline>
</glyph>
<glyph name="A" format="2">
  <advance width="737.3421052631579"/>
  <unicode hex="0041"/>
  <anchor x="316.2631578947368" y="0.0" name="bottom"/>
  <anchor x="678.4473684210527" y="0.0" name="ogonek"/>
  <anchor x="464.6315789473684" y="713.0" name="top"/>
  <outline>
    <contour>
      <point x="-50.36842105263158" y="0.0" type="curve"/>
      <point x="200.21052631578948" y="0.0" type="line"/>
      <point x="221.84210526315786" y="72.23684210526316"/>
      <point x="249.4736842105263" y="148.4736842105263"/>
      <point x="281.2631578947368" y="219.52631578947367" type="curve"/>
      <point x="425.8157894736842" y="540.7631578947369" type="line"/>
      <point x="439.9736842105263" y="540.7631578947369" type="line"/>
      <point x="454.3157894736842" y="217.71052631578948" type="line"/>
      <point x="457.07894736842104" y="148.6578947368421"/>
      <point x="456.9473684210526" y="72.5"/>
      <point x="446.9210526315789" y="0.0" type="curve"/>
      <point x="683.3421052631579" y="0.0" type="line"/>
      <point x="667.5263157894738" y="75.0"/>
      <point x="650.7105263157895" y="163.0"/>
      <point x="643.2368421052631" y="239.73684210526318" type="curve"/>
      <point x="619.1842105263158" y="486.1842105263158" type="line"/>
      <point x="610.7105263157895" y="574.0"/>
      <point x="609.5" y="638.1052631578948"/>
      <point x="615.1842105263158" y="713.0" type="curve"/>
      <point x="317.07894736842104" y="713.0" type="line"/>
      <point x="290.57894736842104" y="637.3684210526316"/>
      <point x="259.7368421052632" y="571.1842105263158"/>
      <point x="215.44736842105263" y="485.55263157894734" type="curve"/>
      <point x="89.84210526315789" y="243.0" type="line"/>
      <point x="49.55263157894738" y="166.0"/>
      <point x="-0.36842105263158187" y="75.36842105263159"/>
    </contour>
    <contour>
      <point x="185.92105263157896" y="132.0263157894737" type="line"/>
      <point x="522.1842105263158" y="132.0263157894737" type="line"/>
      <point x="534.7105263157895" y="284.39473684210526" type="line"/>
      <point x="240.05263157894734" y="284.39473684210526" type="line"/>
    </contour>
  </outline>
</glyph>
<glyph name="C" format="2">
  <advance width="681.921052631579"/>
  <unicode hex="0043"/>
  <anchor x="341.6578947368421" y="0.0" name="bottom"/>
  <anchor x="489.8157894736842" y="713.0" name="top"/>
  <outline>
    <contour>
      <point x="385.07894736842104" y="-14.710526315789473" type="curve" smooth="yes"/>
      <point x="456.9736842105263" y="-14.710526315789473"/>
      <point x="536.4210526315788" y="5.2894736842105265"/>
      <point x="590.1578947368421" y="23.868421052631582" type="curve"/>
      <point x="621.5263157894736" y="217.78947368421055" type="line"/>
      <point x="554.8157894736842" y="176.52631578947367"/>
      <point x="471.84210526315786" y="152.89473684210526"/>
      <point x="421.6052631578947" y="152.89473684210526" type="curve"/>
      <point x="289.63157894736844" y="156.71052631578948"/>
      <point x="246.60526315789474" y="265.99999999999994"/>
      <point x="269.47368421052636" y="375.05263157894734" type="curve" smooth="yes"/>
      <point x="296.97368421052636" y="506.8947368421052"/>
      <point x="383.2105263157895" y="551.1315789473684"/>
      <point x="460.7105263157895" y="554.9473684210526" type="curve"/>
      <point x="498.07894736842104" y="554.9473684210526"/>
      <point x="574.1052631578948" y="535.3157894736842"/>
      <point x="676.8157894736843" y="485.7894736842105" type="curve"/>
      <point x="732.0526315789474" y="678.4210526315788" type="line"/>
      <point x="670.6052631578947" y="699.1578947368421"/>
      <point x="576.2368421052631" y="728.2631578947369"/>
      <point x="481.4736842105263" y="728.2631578947369" type="curve" smooth="yes"/>
      <point x="242.76315789473685" y="728.2631578947369"/>
      <point x="105.44736842105263" y="615.2631578947368"/>
      <point x="61.26315789473684" y="402.2631578947369" type="curve" smooth="yes"/>
      <point x="14.0" y="177.13157894736844"/>
      <point x="131.31578947368422" y="-14.710526315789473"/>
    </contour>
  </outline>
</glyph>
<glyph name="D" format="2">
  <advance width="735.7368421052631"/>
  <unicode hex="0044"/>
  <anchor x="301.2631578947368" y="0.0" name="bottom"/>
  <anchor x="391.05600000000004" y="357.0" name="center"/>
  <anchor x="451.2631578947368" y="713.0" name="top"/>
  <outline>
    <contour>
      <point x="-6.815789473684209" y="0.0" type="curve"/>
      <point x="80.0" y="0.0"/>
      <point x="172.44736842105263" y="-7.526315789473684"/>
      <point x="287.36842105263156" y="-7.526315789473684" type="curve"/>
      <point x="571.2105263157895" y="-7.526315789473684"/>
      <point x="681.2894736842105" y="129.81578947368422"/>
      <point x="722.6578947368421" y="331.36842105263156" type="curve" smooth="yes"/>
      <point x="765.4736842105262" y="541.3421052631579"/>
      <point x="659.2105263157895" y="718.8947368421053"/>
      <point x="435.89473684210526" y="718.8947368421053" type="curve"/>
      <point x="329.84210526315786" y="718.8947368421053"/>
      <point x="220.92105263157896" y="713.0"/>
      <point x="143.18421052631578" y="713.0" type="curve"/>
      <point x="137.1578947368421" y="635.2631578947369"/>
      <point x="128.86842105263156" y="567.7105263157895"/>
      <point x="109.05263157894737" y="473.8157894736842" type="curve"/>
      <point x="57.42105263157895" y="230.6578947368421" type="line"/>
      <point x="38.60526315789474" y="140.39473684210526"/>
      <point x="19.526315789473685" y="75.28947368421052"/>
    </contour>
    <contour>
      <point x="253.99999999999997" y="163.1578947368421" type="line"/>
      <point x="258.6578947368421" y="197.71052631578948"/>
      <point x="265.1315789473684" y="235.42105263157896"/>
      <point x="275.4210526315789" y="284.5" type="curve"/>
      <point x="305.02631578947364" y="424.42105263157896" type="line"/>
      <point x="316.1315789473684" y="476.7631578947368"/>
      <point x="326.05263157894734" y="512.8421052631579"/>
      <point x="337.15789473684214" y="549.8421052631579" type="curve"/>
      <point x="387.10526315789474" y="549.8421052631579" type="line"/>
      <point x="501.81578947368416" y="544.3947368421053"/>
      <point x="534.6842105263158" y="459.0"/>
      <point x="511.1842105263158" y="348.9736842105263" type="curve" smooth="yes"/>
      <point x="488.3157894736842" y="241.18421052631578"/>
      <point x="443.7368421052632" y="169.42105263157896"/>
      <point x="306.3157894736842" y="163.1578947368421" type="curve"/>
    </contour>
  </outline>
</glyph>
<glyph name="E" format="2">
  <advance width="602.2815533980581"/>
  <unicode hex="0045"/>
  <anchor x="256.6990291262136" y="0.0" name="bottom"/>
  <anchor x="500.5631067961166" y="0.0" name="ogonek"/>
  <anchor x="406.6990291262136" y="713.0" name="top"/>
  <anchor x="135.0" y="713.0" name="topleft"/>
  <outline>
    <contour>
      <point x="-6.728155339805823" y="0.0" type="curve"/>
      <point x="226.75728155339803" y="0.0" type="line"/>
      <point x="234.39805825242715" y="33.20388349514563" type="line"/>
      <point x="238.43689320388347" y="108.5631067961165"/>
      <point x="247.79611650485435" y="173.58252427184468"/>
      <point x="266.7961165048543" y="263.90291262135923" type="curve"/>
      <point x="303.51456310679606" y="441.13592233009706" type="line"/>
      <point x="323.17475728155335" y="534.7766990291261"/>
      <point x="343.15533980582524" y="602.1165048543689"/>
      <point x="370.11650485436894" y="679.7961165048544" type="curve"/>
      <point x="376.757281553398" y="713.0" type="line"/>
      <point x="143.27184466019415" y="713.0" type="line"/>
      <point x="137.23300970873788" y="635.3203883495146"/>
      <point x="128.873786407767" y="567.6407766990291"/>
      <point x="109.21359223300972" y="473.6601941747573" type="curve"/>
      <point x="57.55339805825243" y="230.6990291262136" type="line"/>
      <point x="38.55339805825243" y="140.37864077669903"/>
      <point x="19.572815533980584" y="75.35922330097087"/>
    </contour>
    <contour>
      <point x="188.55339805825238" y="0.0" type="line"/>
      <point x="505.2038834951457" y="0.0" type="line"/>
      <point x="543.747572815534" y="180.07766990291262" type="line"/>
      <point x="478.0291262135922" y="167.1165048543689"/>
      <point x="411.631067961165" y="164.45631067961165"/>
      <point x="336.5533980582524" y="164.45631067961165" type="curve"/>
      <point x="223.43689320388347" y="164.45631067961165" type="line"/>
    </contour>
    <contour>
      <point x="222.70873786407765" y="283.5728155339806" type="line"/>
      <point x="348.7864077669903" y="283.5728155339806" type="line"/>
      <point x="430.50485436893206" y="283.5728155339806"/>
      <point x="486.20388349514565" y="281.9126213592233"/>
      <point x="544.5825242718446" y="274.6116504854369" type="curve"/>
      <point x="580.1456310679612" y="443.1067961165049" type="line"/>
      <point x="521.4466019417475" y="434.46601941747576"/>
      <point x="464.74757281553394" y="432.80582524271847"/>
      <point x="380.36893203883494" y="432.80582524271847" type="curve"/>
      <point x="253.95145631067962" y="432.80582524271847" type="line"/>
    </contour>
    <contour>
      <point x="291.0485436893204" y="548.5436893203884" type="line"/>
      <point x="403.4854368932039" y="548.5436893203884" type="line"/>
      <point x="493.90291262135906" y="548.5436893203884"/>
      <point x="555.3009708737864" y="543.5631067961166"/>
      <point x="612.3592233009707" y="532.9223300970873" type="curve"/>
      <point x="649.9029126213591" y="713.0" type="line"/>
      <point x="325.2718446601942" y="713.0" type="line"/>
    </contour>
  </outline>
</glyph>
<glyph name="F" format="2">
  <advance width="583.2368421052631"/>
  <unicode hex="0046"/>
  <outline>
    <contour>
      <point x="-6.815789473684209" y="0.0" type="curve"/>
      <point x="226.78947368421052" y="0.0" type="line"/>
      <point x="231.81578947368422" y="75.28947368421052"/>
      <point x="240.1052631578947" y="140.0263157894737"/>
      <point x="259.10526315789474" y="230.6578947368421" type="curve"/>
      <point x="303.39473684210526" y="441.0" type="line"/>
      <point x="323.02631578947364" y="534.7105263157895"/>
      <point x="343.1052631578947" y="602.078947368421"/>
      <point x="370.2631578947368" y="679.8157894736842" type="curve"/>
      <point x="376.7894736842105" y="713.0" type="line"/>
      <point x="143.18421052631578" y="713.0" type="line"/>
      <point x="137.1578947368421" y="635.2631578947369"/>
      <point x="128.86842105263156" y="567.7105263157895"/>
      <point x="109.05263157894737" y="473.8157894736842" type="curve"/>
      <point x="57.42105263157895" y="230.6578947368421" type="line"/>
      <point x="38.60526315789474" y="140.39473684210526"/>
      <point x="19.526315789473685" y="75.28947368421052"/>
    </contour>
    <contour>
      <point x="214.1052631578947" y="263.7894736842105" type="line"/>
      <point x="338.31578947368416" y="263.7894736842105" type="line"/>
      <point x="420.07894736842104" y="263.7894736842105"/>
      <point x="474.9210526315789" y="262.1578947368421"/>
      <point x="533.3157894736843" y="254.6315789473684" type="curve"/>
      <point x="572.1315789473684" y="437.2894736842105" type="line"/>
      <point x="513.6578947368421" y="428.57894736842104"/>
      <point x="456.99999999999994" y="426.9473684210526"/>
      <point x="372.4210526315789" y="426.9473684210526" type="curve"/>
      <point x="248.02631578947364" y="426.9473684210526" type="line"/>
    </contour>
    <contour>
      <point x="285.7368421052632" y="542.5" type="line"/>
      <point x="396.2368421052632" y="542.5" type="line"/>
      <point x="486.6578947368421" y="542.5"/>
      <point x="547.9736842105262" y="537.421052631579"/>
      <point x="605.1052631578947" y="527.078947368421" type="curve"/>
      <point x="643.921052631579" y="713.0" type="line"/>
      <point x="321.2894736842105" y="713.0" type="line"/>
    </contour>
  </outline>
</glyph>
<glyph name="G" format="2">
  <advance width="724.7631578947368"/>
  <unicode hex="0047"/>
  <anchor x="341.6578947368421" y="0.0" name="bottom"/>
  <anchor x="491.6578947368421" y="713.0" name="top"/>
  <outline>
    <contour>
      <point x="402.8947368421053" y="-13.894736842105264" type="curve" smooth="yes"/>
      <point x="471.1842105263158" y="-13.894736842105264"/>
      <point x="578.9473684210526" y="6.473684210526317"/>
      <point x="635.578947368421" y="17.236842105263158" type="curve"/>
      <point x="639.2894736842105" y="202.26315789473682" type="line"/>
      <point x="562.2105263157895" y="164.81578947368422"/>
      <point x="502.07894736842104" y="148.81578947368422"/>
      <point x="416.13157894736844" y="148.81578947368422" type="curve"/>
      <point x="289.7894736842105" y="152.63157894736844"/>
      <point x="243.3421052631579" y="261.10526315789474"/>
      <point x="267.8421052631579" y="376.6842105263158" type="curve" smooth="yes"/>
      <point x="296.3421052631579" y="511.7105263157894"/>
      <point x="395.8947368421052" y="551.9473684210526"/>
      <point x="468.5" y="554.9473684210526" type="curve"/>
      <point x="507.86842105263145" y="554.9473684210526"/>
      <point x="588.8947368421053" y="534.7631578947368"/>
      <point x="698.421052631579" y="483.5789473684211" type="curve"/>
      <point x="753.6578947368422" y="675.3947368421052" type="line"/>
      <point x="684.1315789473684" y="697.0526315789474"/>
      <point x="578.8684210526314" y="728.2631578947369"/>
      <point x="473.2105263157895" y="728.2631578947369" type="curve" smooth="yes"/>
      <point x="248.63157894736844" y="728.2631578947369"/>
      <point x="107.07894736842105" y="621.421052631579"/>
      <point x="61.26315789473684" y="402.2631578947369" type="curve" smooth="yes"/>
      <point x="15.447368421052632" y="183.73684210526318"/>
      <point x="119.34210526315789" y="-13.894736842105264"/>
    </contour>
    <contour>
      <point x="425.8157894736842" y="17.236842105263158" type="curve"/>
      <point x="635.578947368421" y="17.236842105263158" type="line"/>
      <point x="643.6842105263158" y="93.02631578947368"/>
      <point x="653.5" y="147.55263157894737"/>
      <point x="665.9473684210526" y="205.71052631578948" type="curve"/>
      <point x="679.7631578947369" y="273.05263157894734"/>
      <point x="695.4736842105265" y="320.7631578947368"/>
      <point x="717.2631578947369" y="375.10526315789474" type="curve"/>
      <point x="492.2631578947369" y="375.10526315789474" type="line"/>
      <point x="491.7894736842105" y="320.7631578947368"/>
      <point x="487.0526315789474" y="273.05263157894734"/>
      <point x="473.2368421052632" y="205.71052631578948" type="curve"/>
      <point x="460.7894736842105" y="147.55263157894737"/>
      <point x="446.7105263157894" y="93.02631578947368"/>
    </contour>
  </outline>
</glyph>
<glyph name="H" format="2">
  <advance width="758.9736842105264"/>
  <unicode hex="0048"/>
  <anchor x="327.07894736842104" y="0.0" name="bottom"/>
  <anchor x="402.07894736842104" y="357.0" name="center"/>
  <anchor x="477.07894736842104" y="713.0" name="top"/>
  <anchor x="138.89473684210523" y="713.0" name="topleft"/>
  <outline>
    <contour>
      <point x="421.65789473684214" y="0.0" type="curve"/>
      <point x="660.1578947368422" y="0.0" type="line"/>
      <point x="665.1842105263158" y="75.28947368421052"/>
      <point x="673.4736842105262" y="140.0263157894737"/>
      <point x="692.4736842105264" y="230.6578947368421" type="curve"/>
      <point x="744.1052631578948" y="473.8157894736842" type="line"/>
      <point x="763.921052631579" y="567.7105263157895"/>
      <point x="783.0000000000001" y="635.2631578947369"/>
      <point x="810.1578947368422" y="713.0" type="curve"/>
      <point x="571.6578947368422" y="713.0" type="line"/>
      <point x="565.6315789473684" y="635.2631578947369"/>
      <point x="557.3421052631579" y="567.7105263157895"/>
      <point x="537.5263157894738" y="473.8157894736842" type="curve"/>
      <point x="485.89473684210526" y="230.6578947368421" type="line"/>
      <point x="467.0789473684211" y="140.39473684210526"/>
      <point x="448.0" y="75.28947368421052"/>
    </contour>
    <contour>
      <point x="-6.815789473684209" y="0.0" type="curve"/>
      <point x="231.68421052631575" y="0.0" type="line"/>
      <point x="236.71052631578948" y="75.28947368421052"/>
      <point x="244.99999999999997" y="140.0263157894737"/>
      <point x="263.99999999999994" y="230.6578947368421" type="curve"/>
      <point x="315.6315789473684" y="473.8157894736842" type="line"/>
      <point x="335.4473684210526" y="567.7105263157895"/>
      <point x="354.52631578947364" y="635.2631578947369"/>
      <point x="381.6842105263158" y="713.0" type="curve"/>
      <point x="143.18421052631578" y="713.0" type="line"/>
      <point x="137.1578947368421" y="635.2631578947369"/>
      <point x="128.86842105263156" y="567.7105263157895"/>
      <point x="109.05263157894737" y="473.8157894736842" type="curve"/>
      <point x="57.42105263157895" y="230.6578947368421" type="line"/>
      <point x="38.60526315789474" y="140.39473684210526"/>
      <point x="19.526315789473685" y="75.28947368421052"/>
    </contour>
    <contour>
      <point x="219.5" y="272.7631578947369" type="line"/>
      <point x="550.0263157894738" y="272.7631578947369" type="line"/>
      <point x="586.3947368421053" y="443.2631578947368" type="line"/>
      <point x="255.8684210526316" y="443.2631578947368" type="line"/>
    </contour>
  </outline>
</glyph>
<glyph name="I" format="2">
  <advance width="342.7368421052632"/>
  <unicode hex="0049"/>
  <anchor x="114.78947368421055" y="0.0" name="bottom"/>
  <anchor x="235.76315789473682" y="0.0" name="ogonek"/>
  <anchor x="264.7894736842105" y="713.0" name="top"/>
  <anchor x="129.28947368421052" y="713.0" name="topleft"/>
  <outline>
    <contour>
      <point x="-2.736842105263154" y="0.0" type="curve"/>
      <point x="239.84210526315786" y="0.0" type="line"/>
      <point x="244.86842105263156" y="75.28947368421052"/>
      <point x="253.15789473684205" y="140.0263157894737"/>
      <point x="272.157894736842" y="230.6578947368421" type="curve"/>
      <point x="323.78947368421046" y="473.8157894736842" type="line"/>
      <point x="343.6052631578947" y="567.7105263157895"/>
      <point x="362.6842105263157" y="635.2631578947369"/>
      <point x="389.84210526315786" y="713.0" type="curve"/>
      <point x="147.26315789473685" y="713.0" type="line"/>
      <point x="141.23684210526318" y="635.2631578947369"/>
      <point x="132.94736842105263" y="567.7105263157895"/>
      <point x="113.13157894736844" y="473.8157894736842" type="curve"/>
      <point x="61.50000000000001" y="230.6578947368421" type="line"/>
      <point x="42.684210526315795" y="140.39473684210526"/>
      <point x="23.60526315789474" y="75.28947368421052"/>
    </contour>
  </outline>
</glyph>
<glyph name="J" format="2">
  <advance width="341.1578947368421"/>
  <unicode hex="004A"/>
  <anchor x="116.28947368421052" y="0.0" name="bottom"/>
  <anchor x="266.2894736842105" y="713.0" name="top"/>
  <outline>
    <contour>
      <point x="-93.55263157894737" y="-153.47368421052633" type="curve"/>
      <point x="112.18421052631578" y="-153.47368421052633" type="line"/>
      <point x="159.8157894736842" y="-106.84210526315789"/>
      <point x="226.44736842105266" y="-35.026315789473685"/>
      <point x="249.89473684210526" y="74.76315789473685" type="curve" smooth="yes"/>
      <point x="267.97368421052636" y="160.97368421052633"/>
      <point x="275.2631578947368" y="253.0"/>
      <point x="295.5263157894737" y="349.31578947368416" type="curve"/>
      <point x="322.2105263157895" y="473.8157894736842" type="line"/>
      <point x="342.0263157894737" y="567.7105263157895"/>
      <point x="361.10526315789474" y="635.2631578947369"/>
      <point x="388.2631578947368" y="713.0" type="curve"/>
      <point x="149.76315789473685" y="713.0" type="line"/>
      <point x="143.73684210526318" y="635.2631578947369"/>
      <point x="135.44736842105266" y="567.7105263157895"/>
      <point x="115.63157894736842" y="473.8157894736842" type="curve"/>
      <point x="87.6578947368421" y="343.2368421052631" type="line"/>
      <point x="33.15789473684211" y="85.10526315789474" type="line"/>
      <point x="14.973684210526311" y="-0.6315789473684208"/>
      <point x="-29.26315789473684" y="-81.05263157894737"/>
    </contour>
  </outline>
</glyph>
<glyph name="K" format="2">
  <advance width="718.3421052631579"/>
  <unicode hex="004B"/>
  <anchor x="315.07894736842104" y="0.0" name="bottom"/>
  <anchor x="465.07894736842104" y="713.0" name="top"/>
  <outline>
    <contour>
      <point x="403.68421052631584" y="0.0" type="curve"/>
      <point x="667.6052631578948" y="0.0" type="line"/>
      <point x="625.2894736842104" y="63.078947368421055"/>
      <point x="571.1052631578948" y="170.76315789473685"/>
      <point x="534.0263157894736" y="250.5526315789474" type="curve"/>
      <point x="451.5" y="424.57894736842104" type="line"/>
      <point x="450.2368421052632" y="333.15789473684214" type="line"/>
      <point x="582.5526315789474" y="480.7631578947369" type="line"/>
      <point x="653.0789473684212" y="559.1052631578947"/>
      <point x="722.7894736842105" y="636.0"/>
      <point x="804.7631578947369" y="713.0" type="curve"/>
      <point x="526.1315789473684" y="713.0" type="line"/>
      <point x="491.02631578947376" y="650.1315789473684"/>
      <point x="457.55263157894734" y="603.2894736842105"/>
      <point x="418.1578947368421" y="554.3421052631579" type="curve"/>
      <point x="334.7105263157894" y="451.5263157894737" type="line"/>
      <point x="295.1578947368421" y="451.5263157894737" type="line"/>
      <point x="262.0526315789474" y="291.63157894736844" type="line"/>
      <point x="304.6842105263158" y="291.63157894736844" type="line"/>
      <point x="354.3157894736842" y="163.3684210526316" type="line"/>
      <point x="373.4210526315789" y="113.97368421052632"/>
      <point x="391.7105263157895" y="63.39473684210527"/>
    </contour>
    <contour>
      <point x="-6.815789473684209" y="0.0" type="curve"/>
      <point x="230.86842105263162" y="0.0" type="line"/>
      <point x="235.89473684210532" y="75.28947368421052"/>
      <point x="244.1842105263158" y="140.0263157894737"/>
      <point x="263.1842105263158" y="230.6578947368421" type="curve"/>
      <point x="314.8157894736842" y="473.8157894736842" type="line"/>
      <point x="334.63157894736844" y="567.7105263157895"/>
      <point x="353.7105263157895" y="635.2631578947369"/>
      <point x="380.8684210526316" y="713.0" type="curve"/>
      <point x="143.18421052631578" y="713.0" type="line"/>
      <point x="137.1578947368421" y="635.2631578947369"/>
      <point x="128.86842105263156" y="567.7105263157895"/>
      <point x="109.05263157894737" y="473.8157894736842" type="curve"/>
      <point x="57.42105263157895" y="230.6578947368421" type="line"/>
      <point x="38.60526315789474" y="140.39473684210526"/>
      <point x="19.526315789473685" y="75.28947368421052"/>
    </contour>
  </outline>
</glyph>
<glyph name="L" format="2">
  <advance width="576.6052631578948"/>
  <unicode hex="004C"/>
  <anchor x="249.05263157894734" y="0.0" name="bottom"/>
  <anchor x="470.07894736842104" y="359.44736842105266" name="center"/>
  <anchor x="340.36842105263156" y="713.0" name="top"/>
  <anchor x="368.13157894736844" y="500.5263157894737" name="topright"/>
  <outline>
    <contour>
      <point x="-6.815789473684209" y="0.0" type="curve"/>
      <point x="231.68421052631578" y="0.0" type="line"/>
      <point x="239.21052631578945" y="33.368421052631575" type="line"/>
      <point x="243.42105263157896" y="108.65789473684211"/>
      <point x="252.71052631578945" y="173.76315789473685"/>
      <point x="271.52631578947364" y="264.0263157894737" type="curve"/>
      <point x="315.6315789473684" y="473.8157894736842" type="line"/>
      <point x="335.4473684210526" y="567.7105263157895"/>
      <point x="354.52631578947364" y="635.2631578947369"/>
      <point x="381.6842105263158" y="713.0" type="curve"/>
      <point x="143.18421052631578" y="713.0" type="line"/>
      <point x="137.1578947368421" y="635.2631578947369"/>
      <point x="128.86842105263156" y="567.7105263157895"/>
      <point x="109.05263157894737" y="473.8157894736842" type="curve"/>
      <point x="57.42105263157895" y="230.6578947368421" type="line"/>
      <point x="38.60526315789474" y="140.39473684210526"/>
      <point x="19.526315789473685" y="75.28947368421052"/>
    </contour>
    <contour>
      <point x="188.42105263157896" y="0.0" type="line"/>
      <point x="497.2105263157894" y="0.0" type="line"/>
      <point x="539.2894736842105" y="199.78947368421052" type="line"/>
      <point x="469.9736842105263" y="185.3684210526316"/>
      <point x="412.84210526315786" y="178.6578947368421"/>
      <point x="315.9473684210526" y="178.6578947368421" type="curve"/>
      <point x="226.42105263157896" y="178.6578947368421" type="line"/>
    </contour>
  </outline>
</glyph>
<glyph name="M" format="2">
  <advance width="967.1315789473684"/>
  <unicode hex="004D"/>
  <anchor x="430.3421052631579" y="0.0" name="bottom"/>
  <anchor x="580.342105263158" y="713.0" name="top"/>
  <outline>
    <contour>
      <point x="-26.578947368421048" y="0.0" type="curve"/>
      <point x="200.05263157894734" y="0.0" type="line"/>
      <point x="213.60526315789477" y="84.44736842105263"/>
      <point x="231.68421052631578" y="161.89473684210526"/>
      <point x="254.18421052631578" y="228.76315789473685" type="curve"/>
      <point x="302.5526315789474" y="373.15789473684214" type="line"/>
      <point x="316.1578947368421" y="373.15789473684214" type="line"/>
      <point x="338.89473684210526" y="218.18421052631578" type="line"/>
      <point x="349.2105263157895" y="146.21052631578945"/>
      <point x="351.92105263157896" y="66.47368421052632"/>
      <point x="351.7105263157895" y="0.0" type="curve"/>
      <point x="518.1315789473684" y="0.0" type="line"/>
      <point x="545.5263157894738" y="66.94736842105263"/>
      <point x="579.9473684210527" y="144.21052631578945"/>
      <point x="617.7105263157895" y="218.55263157894737" type="curve"/>
      <point x="696.1578947368421" y="373.15789473684214" type="line"/>
      <point x="709.7631578947369" y="373.15789473684214" type="line"/>
      <point x="696.7368421052631" y="228.76315789473685" type="line"/>
      <point x="690.8157894736843" y="161.89473684210526"/>
      <point x="676.8157894736842" y="84.1842105263158"/>
      <point x="655.1052631578948" y="0.0" type="curve"/>
      <point x="888.078947368421" y="0.0" type="line"/>
      <point x="885.1052631578947" y="74.47368421052632"/>
      <point x="884.578947368421" y="143.8421052631579"/>
      <point x="891.7631578947368" y="230.6578947368421" type="curve"/>
      <point x="911.3157894736843" y="472.1842105263158" type="line"/>
      <point x="918.5" y="558.5526315789474"/>
      <point x="929.578947368421" y="634.2631578947369"/>
      <point x="944.2894736842106" y="713.0" type="curve"/>
      <point x="704.2368421052631" y="713.0" type="line"/>
      <point x="674.8421052631578" y="637.6052631578947"/>
      <point x="643.5526315789474" y="575.921052631579"/>
      <point x="608.0" y="510.1578947368421" type="curve"/>
      <point x="503.52631578947364" y="317.6842105263158" type="line"/>
      <point x="490.55263157894734" y="317.6842105263158" type="line"/>
      <point x="461.2631578947368" y="510.1578947368421" type="line"/>
      <point x="451.5" y="575.921052631579"/>
      <point x="442.55263157894734" y="640.0526315789474"/>
      <point x="445.39473684210526" y="713.0" type="curve"/>
      <point x="212.8684210526316" y="713.0" type="line"/>
      <point x="196.21052631578948" y="633.2631578947369"/>
      <point x="174.8421052631579" y="558.1842105263158"/>
      <point x="145.8421052631579" y="472.1842105263158" type="curve"/>
      <point x="65.39473684210526" y="230.6578947368421" type="line"/>
      <point x="36.39473684210527" y="144.47368421052633"/>
      <point x="6.684210526315791" y="72.02631578947368"/>
    </contour>
  </outline>
</glyph>
<glyph name="N" format="2">
  <advance width="756.921052631579"/>
  <unicode hex="004E"/>
  <anchor x="326.1842105263158" y="0.0" name="bottom"/>
  <anchor x="476.1842105263158" y="713.0" name="top"/>
  <outline>
    <contour>
      <point x="-6.815789473684209" y="0.0" type="curve"/>
      <point x="217.81578947368422" y="0.0" type="line"/>
      <point x="222.84210526315792" y="75.28947368421052"/>
      <point x="231.1315789473684" y="140.0263157894737"/>
      <point x="250.1315789473684" y="230.6578947368421" type="curve"/>
      <point x="282.84210526315786" y="386.0789473684211" type="line"/>
      <point x="296.6315789473684" y="386.0789473684211" type="line"/>
      <point x="362.1842105263158" y="236.8421052631579" type="line"/>
      <point x="400.2105263157895" y="150.1842105263158"/>
      <point x="428.7631578947369" y="77.02631578947368"/>
      <point x="446.60526315789474" y="0.0" type="curve"/>
      <point x="657.5526315789473" y="0.0" type="line"/>
      <point x="662.578947368421" y="75.28947368421052"/>
      <point x="670.8684210526316" y="140.0263157894737"/>
      <point x="689.8684210526316" y="230.6578947368421" type="curve"/>
      <point x="741.5" y="473.8157894736842" type="line"/>
      <point x="761.3157894736842" y="567.7105263157895"/>
      <point x="780.3947368421053" y="635.2631578947369"/>
      <point x="807.5526315789474" y="713.0" type="curve"/>
      <point x="582.9210526315791" y="713.0" type="line"/>
      <point x="576.8947368421053" y="635.2631578947369"/>
      <point x="568.6052631578948" y="567.7105263157895"/>
      <point x="548.7894736842106" y="473.8157894736842" type="curve"/>
      <point x="517.7105263157895" y="327.6578947368421" type="line"/>
      <point x="503.10526315789474" y="327.6578947368421" type="line"/>
      <point x="440.1842105263158" y="475.7105263157894" type="line"/>
      <point x="409.8157894736842" y="546.421052631579"/>
      <point x="383.9736842105263" y="622.9473684210526"/>
      <point x="360.84210526315786" y="713.0" type="curve"/>
      <point x="143.18421052631578" y="713.0" type="line"/>
      <point x="137.1578947368421" y="635.2631578947369"/>
      <point x="128.86842105263156" y="567.7105263157895"/>
      <point x="109.05263157894737" y="473.8157894736842" type="curve"/>
      <point x="57.42105263157895" y="230.6578947368421" type="line"/>
      <point x="38.60526315789474" y="140.39473684210526"/>
      <point x="19.526315789473685" y="75.28947368421052"/>
    </contour>
  </outline>
</glyph>
<glyph name="R" format="2">
  <advance width="709.1067961165048"/>
  <unicode hex="0052"/>
  <anchor x="302.2233009708738" y="0.0" name="bottom"/>
  <anchor x="435.7184466019417" y="713.0" name="top"/>
  <outline>
    <contour>
      <point x="398.8640776699029" y="0.0" type="curve"/>
      <point x="656.9514563106796" y="0.0" type="line"/>
      <point x="625.9126213592233" y="52.679611650485434"/>
      <point x="584.8349514563106" y="141.98058252427182"/>
      <point x="558.757281553398" y="209.3009708737864" type="curve"/>
      <point x="500.2621359223301" y="353.9417475728156" type="line"/>
      <point x="404.9902912621359" y="286.41747572815535" type="line"/>
      <point x="576.4466019417474" y="286.0776699029126"/>
      <point x="659.6699029126212" y="344.53398058252424"/>
      <point x="686.9902912621359" y="473.15533980582524" type="curve" smooth="yes"/>
      <point x="721.6116504854368" y="635.6213592233009"/>
      <point x="629.7281553398058" y="718.9805825242718"/>
      <point x="448.84466019417476" y="718.9805825242718" type="curve"/>
      <point x="344.2038834951456" y="718.9805825242718"/>
      <point x="227.81553398058253" y="713.0"/>
      <point x="143.27184466019418" y="713.0" type="curve"/>
      <point x="264.50485436893194" y="555.8446601941747" type="line"/>
      <point x="407.6796116504854" y="555.8446601941747" type="line" smooth="yes"/>
      <point x="451.19417475728153" y="555.8446601941747"/>
      <point x="484.84466019417476" y="530.2038834951456"/>
      <point x="472.1067961165049" y="470.19417475728164" type="curve" smooth="yes"/>
      <point x="458.04854368932035" y="404.9223300970874"/>
      <point x="424.9126213592233" y="389.50485436893206"/>
      <point x="371.12621359223306" y="389.50485436893206" type="curve" smooth="yes"/>
      <point x="255.91262135922327" y="389.50485436893206" type="line"/>
      <point x="227.97087378640776" y="256.77669902912623" type="line"/>
      <point x="402.93203883495147" y="256.77669902912623" type="line"/>
      <point x="298.32038834951453" y="344.94174757281553" type="line"/>
      <point x="363.1941747572816" y="148.1359223300971" type="line"/>
      <point x="378.61165048543694" y="104.07766990291263"/>
      <point x="392.7087378640777" y="57.35922330097087"/>
    </contour>
    <contour>
      <point x="-6.728155339805823" y="0.0" type="curve"/>
      <point x="228.0970873786408" y="0.0" type="line"/>
      <point x="233.1359223300971" y="75.35922330097087"/>
      <point x="241.1553398058252" y="140.03883495145632"/>
      <point x="260.15533980582524" y="230.6990291262136" type="curve"/>
      <point x="304.5145631067961" y="441.13592233009706" type="line"/>
      <point x="324.1747572815534" y="534.7766990291261"/>
      <point x="344.15533980582524" y="602.1165048543689"/>
      <point x="371.45631067961165" y="679.7961165048544" type="curve"/>
      <point x="143.27184466019415" y="713.0" type="line"/>
      <point x="137.23300970873788" y="635.3203883495146"/>
      <point x="128.873786407767" y="567.6407766990291"/>
      <point x="109.21359223300972" y="473.6601941747573" type="curve"/>
      <point x="57.55339805825243" y="230.6990291262136" type="line"/>
      <point x="38.55339805825243" y="140.37864077669903"/>
      <point x="19.572815533980588" y="75.35922330097087"/>
    </contour>
  </outline>
</glyph>
<glyph name="S" format="2">
  <advance width="608.5242718446602"/>
  <unicode hex="0053"/>
  <anchor x="252.2815533980583" y="0.0" name="bottom"/>
  <anchor x="402.2815533980583" y="713.0" name="top"/>
  <outline>
    <contour>
      <point x="277.621359223301" y="-14.640776699029125" type="curve" smooth="yes"/>
      <point x="459.4660194174757" y="-14.640776699029125"/>
      <point x="541.7669902912621" y="42.71844660194175"/>
      <point x="571.0679611650485" y="182.56310679611653" type="curve" smooth="yes"/>
      <point x="594.0485436893204" y="291.80582524271847"/>
      <point x="551.7281553398058" y="357.84466019417476"/>
      <point x="401.68932038834953" y="418.54368932038835" type="curve" smooth="yes"/>
      <point x="323.75728155339806" y="450.6601941747573"/>
      <point x="297.0194174757281" y="478.71844660194176"/>
      <point x="304.7378640776699" y="515.9514563106796" type="curve" smooth="yes"/>
      <point x="312.1165048543689" y="551.1650485436894"/>
      <point x="346.0485436893204" y="560.5436893203884"/>
      <point x="384.92233009708735" y="563.2038834951456" type="curve"/>
      <point x="419.2621359223302" y="563.2038834951456"/>
      <point x="497.9029126213592" y="540.8834951456311"/>
      <point x="583.883495145631" y="498.20388349514565" type="curve"/>
      <point x="636.0485436893205" y="680.2621359223301" type="line"/>
      <point x="577.7281553398058" y="694.6407766990293"/>
      <point x="456.24271844660194" y="728.3203883495146"/>
      <point x="365.33980582524276" y="728.3203883495146" type="curve" smooth="yes"/>
      <point x="197.49514563106794" y="728.3203883495146"/>
      <point x="117.81553398058253" y="664.3592233009709"/>
      <point x="92.1747572815534" y="540.1553398058253" type="curve" smooth="yes"/>
      <point x="64.873786407767" y="408.33009708737865"/>
      <point x="129.15533980582526" y="344.2718446601942"/>
      <point x="246.6116504854369" y="296.873786407767" type="curve" smooth="yes"/>
      <point x="322.8058252427184" y="266.1165048543689"/>
      <point x="366.22330097087377" y="239.37864077669906"/>
      <point x="357.8446601941747" y="199.48543689320388" type="curve" smooth="yes"/>
      <point x="349.78640776699024" y="160.5145631067961"/>
      <point x="318.83495145631065" y="150.15533980582524"/>
      <point x="274.9805825242718" y="147.49514563106794" type="curve"/>
      <point x="214.62135922330097" y="147.49514563106794"/>
      <point x="121.69902912621359" y="180.8155339805825"/>
      <point x="49.99999999999999" y="221.17475728155338" type="curve"/>
      <point x="0.8155339805825235" y="44.75728155339806" type="line"/>
      <point x="57.47572815533981" y="24.05825242718447"/>
      <point x="152.09708737864077" y="-14.640776699029125"/>
    </contour>
  </outline>
</glyph>
<glyph name="T" format="2">
  <advance width="648.421052631579"/>
  <unicode hex="0054"/>
  <anchor x="272.89473684210526" y="0.0" name="bottom"/>
  <anchor x="337.2894736842105" y="309.6842105263158" name="center"/>
  <anchor x="422.89473684210526" y="713.0" name="top"/>
  <outline>
    <contour>
      <point x="152.92105263157896" y="0.0" type="curve"/>
      <point x="390.6052631578947" y="0.0" type="line"/>
      <point x="395.63157894736844" y="75.28947368421052"/>
      <point x="403.92105263157896" y="140.0263157894737"/>
      <point x="422.92105263157896" y="230.6578947368421" type="curve"/>
      <point x="468.0263157894737" y="441.0" type="line"/>
      <point x="487.6578947368421" y="534.7105263157895"/>
      <point x="507.7368421052631" y="602.078947368421"/>
      <point x="534.8947368421053" y="679.8157894736842" type="curve"/>
      <point x="541.421052631579" y="713.0" type="line"/>
      <point x="303.7368421052632" y="713.0" type="line"/>
      <point x="297.0263157894737" y="679.8157894736842" type="line"/>
      <point x="292.0" y="602.078947368421"/>
      <point x="282.07894736842104" y="534.5263157894736"/>
      <point x="262.2631578947369" y="441.0" type="curve"/>
      <point x="217.1578947368421" y="230.6578947368421" type="line"/>
      <point x="198.34210526315792" y="140.39473684210526"/>
      <point x="179.26315789473685" y="75.28947368421052"/>
    </contour>
    <contour>
      <point x="78.86842105263159" y="513.2105263157895" type="line"/>
      <point x="132.1578947368421" y="527.4473684210526"/>
      <point x="186.81578947368422" y="534.3421052631579"/>
      <point x="259.57894736842104" y="534.3421052631579" type="curve"/>
      <point x="316.7894736842105" y="534.3421052631579" type="line"/>
      <point x="353.9736842105263" y="713.0" type="line"/>
      <point x="120.94736842105264" y="713.0" type="line"/>
    </contour>
    <contour>
      <point x="453.63157894736844" y="534.3421052631579" type="line"/>
      <point x="510.8421052631579" y="534.3421052631579" type="line"/>
      <point x="583.6052631578947" y="534.3421052631579"/>
      <point x="635.184210526316" y="527.6315789473684"/>
      <point x="681.7631578947369" y="513.2105263157895" type="curve"/>
      <point x="723.8421052631579" y="713.0" type="line"/>
      <point x="490.8157894736842" y="713.0" type="line"/>
    </contour>
  </outline>
</glyph>
<glyph name="U" format="2">
  <advance width="727.1052631578947"/>
  <unicode hex="0055"/>
  <anchor x="311.7368421052631" y="0.0" name="bottom"/>
  <anchor x="453.7105263157894" y="0.0" name="ogonek"/>
  <anchor x="461.7368421052631" y="713.0" name="top"/>
  <anchor x="808.2105263157895" y="713.0" name="topright"/>
  <outline>
    <contour>
      <point x="330.36842105263156" y="-14.710526315789473" type="curve" smooth="yes"/>
      <point x="559.3421052631578" y="-14.710526315789473"/>
      <point x="645.2368421052632" y="94.92105263157896"/>
      <point x="679.1315789473684" y="250.68421052631578" type="curve" smooth="yes"/>
      <point x="687.5" y="289.7105263157895"/>
      <point x="704.2368421052631" y="388.60526315789474"/>
      <point x="721.7894736842105" y="473.8157894736842" type="curve"/>
      <point x="741.6052631578947" y="567.7105263157895"/>
      <point x="760.6842105263158" y="635.2631578947369"/>
      <point x="787.8421052631579" y="713.0" type="curve"/>
      <point x="549.342105263158" y="713.0" type="line"/>
      <point x="543.3157894736843" y="635.2631578947369"/>
      <point x="535.0263157894738" y="567.7105263157895"/>
      <point x="515.2105263157896" y="473.8157894736842" type="curve"/>
      <point x="474.3684210526316" y="280.4473684210526" type="line" smooth="yes"/>
      <point x="457.7894736842105" y="203.28947368421052"/>
      <point x="421.8947368421052" y="157.1578947368421"/>
      <point x="346.05263157894734" y="152.89473684210526" type="curve"/>
      <point x="272.921052631579" y="157.1578947368421"/>
      <point x="251.39473684210526" y="216.05263157894737"/>
      <point x="269.3421052631579" y="300.2368421052632" type="curve" smooth="yes"/>
      <point x="306.07894736842104" y="473.8157894736842" type="line"/>
      <point x="325.89473684210526" y="567.7105263157895"/>
      <point x="344.9736842105263" y="635.2631578947369"/>
      <point x="372.1315789473684" y="713.0" type="curve"/>
      <point x="134.44736842105263" y="713.0" type="line"/>
      <point x="128.42105263157896" y="635.2631578947369"/>
      <point x="120.13157894736842" y="567.7105263157895"/>
      <point x="100.31578947368422" y="473.8157894736842" type="curve"/>
      <point x="85.94736842105263" y="408.42105263157896"/>
      <point x="67.31578947368422" y="342.5"/>
      <point x="60.131578947368425" y="308.39473684210526" type="curve" smooth="yes"/>
      <point x="21.23684210526316" y="126.73684210526316"/>
      <point x="100.65789473684211" y="-14.710526315789473"/>
    </contour>
  </outline>
</glyph>
<glyph name="V" format="2">
  <advance width="726.7368421052632"/>
  <unicode hex="0056"/>
  <anchor x="311.5526315789474" y="0.0" name="bottom"/>
  <anchor x="461.5526315789474" y="713.0" name="top"/>
  <outline>
    <contour>
      <point x="158.65789473684208" y="0.0" type="curve"/>
      <point x="461.4736842105263" y="0.0" type="line"/>
      <point x="487.6052631578948" y="72.1842105263158"/>
      <point x="525.7368421052632" y="157.73684210526315"/>
      <point x="560.8421052631579" y="226.1842105263158" type="curve"/>
      <point x="672.6315789473684" y="450.0" type="line"/>
      <point x="711.2894736842106" y="527.8157894736842"/>
      <point x="767.3947368421053" y="630.4473684210526"/>
      <point x="824.4736842105264" y="713.0" type="curve"/>
      <point x="551.2368421052631" y="713.0" type="line"/>
      <point x="526.8421052631579" y="628.3684210526316"/>
      <point x="491.8157894736842" y="532.0"/>
      <point x="457.44736842105266" y="447.7368421052632" type="curve"/>
      <point x="356.8157894736842" y="208.1315789473684" type="line"/>
      <point x="342.65789473684214" y="208.1315789473684" type="line"/>
      <point x="339.13157894736844" y="446.5526315789474" type="line"/>
      <point x="338.5263157894737" y="529.3684210526316"/>
      <point x="339.0" y="628.7368421052632"/>
      <point x="344.6578947368421" y="713.0" type="curve"/>
      <point x="97.63157894736842" y="713.0" type="line"/>
      <point x="121.34210526315789" y="630.2631578947369"/>
      <point x="133.18421052631578" y="527.2631578947368"/>
      <point x="139.02631578947367" y="449.8157894736842" type="curve"/>
      <point x="155.55263157894737" y="226.18421052631578" type="line"/>
      <point x="159.57894736842104" y="158.18421052631578"/>
      <point x="160.71052631578948" y="71.8157894736842"/>
    </contour>
  </outline>
</glyph>
<glyph name="W" format="2">
  <advance width="1057.7368421052631"/>
  <unicode hex="0057"/>
  <anchor x="473.10526315789474" y="0.0" name="bottom"/>
  <anchor x="623.1052631578948" y="713.0" name="top"/>
  <outline>
    <contour>
      <point x="132.18421052631578" y="0.0" type="curve"/>
      <point x="395.9473684210526" y="0.0" type="line"/>
      <point x="414.3157894736842" y="69.21052631578948"/>
      <point x="441.15789473684214" y="151.6315789473684"/>
      <point x="468.42105263157896" y="218.39473684210526" type="curve"/>
      <point x="547.4736842105264" y="415.8421052631579" type="line"/>
      <point x="561.6315789473684" y="415.8421052631579" type="line"/>
      <point x="560.078947368421" y="218.39473684210526" type="line"/>
      <point x="559.2894736842105" y="150.0"/>
      <point x="554.6052631578947" y="69.39473684210526"/>
      <point x="547.1052631578948" y="0.0" type="curve"/>
      <point x="820.8421052631578" y="0.0" type="line"/>
      <point x="843.3157894736842" y="69.63157894736841"/>
      <point x="881.7894736842105" y="154.18421052631578"/>
      <point x="914.7105263157895" y="225.18421052631578" type="curve"/>
      <point x="1019.1052631578948" y="450.0" type="line"/>
      <point x="1055.2105263157896" y="528.3684210526316"/>
      <point x="1107.0263157894735" y="631.078947368421"/>
      <point x="1159.1052631578948" y="713.0" type="curve"/>
      <point x="889.9473684210527" y="713.0" type="line"/>
      <point x="869.2105263157895" y="635.2631578947369"/>
      <point x="841.1842105263157" y="544.6842105263158"/>
      <point x="812.7368421052632" y="467.13157894736844" type="curve"/>
      <point x="731.1315789473684" y="245.02631578947367" type="line"/>
      <point x="716.9736842105264" y="245.02631578947367" type="line"/>
      <point x="723.421052631579" y="465.5" type="line"/>
      <point x="725.6578947368421" y="544.7894736842105"/>
      <point x="731.1578947368422" y="634.8947368421052"/>
      <point x="741.921052631579" y="713.0" type="curve"/>
      <point x="503.3684210526316" y="713.0" type="line"/>
      <point x="481.18421052631584" y="635.4473684210527"/>
      <point x="449.4473684210526" y="542.8684210526316"/>
      <point x="420.7368421052631" y="467.3157894736842" type="curve"/>
      <point x="335.7894736842105" y="245.02631578947367" type="line"/>
      <point x="321.6315789473684" y="245.02631578947367" type="line"/>
      <point x="332.4210526315789" y="464.2105263157895" type="line"/>
      <point x="336.10526315789474" y="543.1315789473684"/>
      <point x="345.31578947368416" y="635.7105263157894"/>
      <point x="357.71052631578954" y="713.0" type="curve"/>
      <point x="95.0" y="713.0" type="line"/>
      <point x="115.60526315789473" y="630.6315789473684"/>
      <point x="122.71052631578948" y="527.6315789473684"/>
      <point x="126.63157894736842" y="449.0789473684211" type="curve"/>
      <point x="135.3947368421053" y="225.0" type="line"/>
      <point x="138.31578947368422" y="155.18421052631578"/>
      <point x="137.97368421052633" y="71.81578947368422"/>
    </contour>
  </outline>
</glyph>
<glyph name="X" format="2">
  <advance width="739.7631578947369"/>
  <unicode hex="0058"/>
  <outline>
    <contour>
      <point x="-45.078947368421055" y="0.0" type="curve"/>
      <point x="234.3421052631579" y="0.0" type="line"/>
      <point x="252.92105263157893" y="48.78947368421053"/>
      <point x="275.36842105263156" y="92.10526315789473"/>
      <point x="299.5526315789473" y="131.26315789473685" type="curve"/>
      <point x="359.39473684210526" y="230.57894736842104" type="line"/>
      <point x="373.55263157894734" y="230.57894736842104" type="line"/>
      <point x="397.52631578947364" y="131.44736842105263" type="line"/>
      <point x="407.3157894736842" y="93.02631578947368"/>
      <point x="416.65789473684214" y="48.78947368421053"/>
      <point x="417.39473684210526" y="0.0" type="curve"/>
      <point x="681.6578947368421" y="0.0" type="line"/>
      <point x="640.1052631578949" y="70.92105263157895"/>
      <point x="611.263157894737" y="139.55263157894737"/>
      <point x="583.3157894736843" y="219.81578947368422" type="curve"/>
      <point x="529.0526315789475" y="376.44736842105266" type="line"/>
      <point x="518.5263157894738" y="324.36842105263156" type="line"/>
      <point x="640.6842105263157" y="497.86842105263156" type="line"/>
      <point x="685.3421052631578" y="560.578947368421"/>
      <point x="741.1842105263158" y="636.7368421052631"/>
      <point x="815.8947368421054" y="713.0" type="curve"/>
      <point x="535.4736842105262" y="713.0" type="line"/>
      <point x="512.8157894736843" y="660.5"/>
      <point x="488.7105263157895" y="610.078947368421"/>
      <point x="462.7105263157895" y="567.6578947368421" type="curve"/>
      <point x="411.81578947368416" y="482.10526315789474" type="line"/>
      <point x="397.6578947368421" y="482.10526315789474" type="line"/>
      <point x="377.63157894736844" y="567.2894736842105" type="line"/>
      <point x="367.84210526315786" y="609.5263157894736"/>
      <point x="360.7631578947369" y="660.7631578947369"/>
      <point x="357.9473684210526" y="713.0" type="curve"/>
      <point x="102.65789473684211" y="713.0" type="line"/>
      <point x="146.4736842105263" y="634.6315789473684"/>
      <point x="169.23684210526318" y="564.3684210526316"/>
      <point x="191.0" y="495.10526315789474" type="curve"/>
      <point x="238.07894736842107" y="346.8421052631579" type="line"/>
      <point x="249.23684210526318" y="394.8421052631579" type="line"/>
      <point x="121.78947368421052" y="212.05263157894737" type="line"/>
      <point x="67.39473684210527" y="134.34210526315792"/>
      <point x="17.36842105263158" y="67.89473684210527"/>
    </contour>
  </outline>
</glyph>
<glyph name="Y" format="2">
  <advance width="697.5263157894736"/>
  <unicode hex="0059"/>
  <anchor x="298.89473684210526" y="0.0" name="bottom"/>
  <anchor x="450.5263157894737" y="713.0" name="top"/>
  <anchor x="117.1842105263158" y="713.0" name="topleft"/>
  <outline>
    <contour>
      <point x="262.05263157894734" y="236.3684210526316" type="line"/>
      <point x="442.97368421052636" y="236.3684210526316" type="line"/>
      <point x="648.3684210526316" y="525.7105263157895" type="line"/>
      <point x="691.7368421052631" y="587.5"/>
      <point x="738.1052631578948" y="649.8421052631579"/>
      <point x="799.3421052631579" y="713.0" type="curve"/>
      <point x="519.4736842105264" y="713.0" type="line"/>
      <point x="493.8421052631579" y="638.5526315789473"/>
      <point x="476.39473684210526" y="601.5"/>
      <point x="443.3684210526316" y="540.7894736842105" type="curve"/>
      <point x="393.5526315789474" y="449.13157894736844" type="line"/>
      <point x="380.2105263157895" y="449.13157894736844" type="line"/>
      <point x="364.63157894736844" y="542.5263157894736" type="line"/>
      <point x="354.7368421052632" y="601.6842105263158"/>
      <point x="351.6842105263158" y="638.0"/>
      <point x="351.9210526315789" y="713.0" type="curve"/>
      <point x="95.55263157894738" y="713.0" type="line"/>
      <point x="135.3421052631579" y="640.0263157894736"/>
      <point x="156.1578947368421" y="587.6842105263158"/>
      <point x="175.07894736842104" y="525.7105263157895" type="curve"/>
    </contour>
    <contour>
      <point x="180.5526315789474" y="0.0" type="curve"/>
      <point x="419.86842105263156" y="0.0" type="line"/>
      <point x="424.89473684210526" y="75.28947368421052"/>
      <point x="433.18421052631584" y="140.0263157894737"/>
      <point x="452.1842105263158" y="230.6578947368421" type="curve"/>
      <point x="489.94736842105266" y="410.0263157894737" type="line"/>
      <point x="282.5526315789474" y="410.0263157894737" type="line"/>
      <point x="244.78947368421052" y="230.6578947368421" type="line"/>
      <point x="225.97368421052633" y="140.39473684210526"/>
      <point x="206.8947368421053" y="75.28947368421052"/>
    </contour>
  </outline>
</glyph>
<glyph name="Z" format="2">
  <advance width="695.7105263157895"/>
  <unicode hex="005A"/>
  <anchor x="295.1315789473684" y="0.0" name="bottom"/>
  <anchor x="370.1315789473684" y="357.0" name="center"/>
  <anchor x="445.1315789473684" y="713.0" name="top"/>
  <outline>
    <contour>
      <point x="-18.21052631578947" y="0.0" type="line"/>
      <point x="607.3684210526317" y="0.0" type="line"/>
      <point x="648.0" y="191.8157894736842" type="line"/>
      <point x="579.3947368421053" y="175.39473684210526"/>
      <point x="473.10526315789474" y="169.68421052631578"/>
      <point x="401.2105263157895" y="169.68421052631578" type="curve"/>
      <point x="251.05263157894737" y="169.68421052631578" type="line"/>
      <point x="267.9473684210526" y="107.78947368421052" type="line"/>
      <point x="546.578947368421" y="393.89473684210526" type="line"/>
      <point x="603.6578947368421" y="453.9736842105263"/>
      <point x="662.3684210526317" y="513.2368421052632"/>
      <point x="718.8157894736843" y="559.2631578947368" type="curve"/>
      <point x="751.1052631578948" y="713.0" type="line"/>
      <point x="143.5" y="713.0" type="line"/>
      <point x="103.05263157894738" y="518.1052631578947" type="line"/>
      <point x="188.76315789473685" y="537.4210526315788"/>
      <point x="268.2894736842105" y="543.3157894736842"/>
      <point x="336.63157894736844" y="543.3157894736842" type="curve"/>
      <point x="502.52631578947364" y="543.3157894736842" type="line"/>
      <point x="479.5263157894737" y="603.7368421052631" type="line"/>
      <point x="205.68421052631578" y="317.5263157894737" type="line"/>
      <point x="145.52631578947367" y="254.3684210526316"/>
      <point x="61.34210526315788" y="167.81578947368422"/>
      <point x="9.184210526315791" y="129.5263157894737" type="curve"/>
    </contour>
  </outline>
</glyph>
<glyph name="bracketleft" format="2">
  <advance width="426.57894736842104"/>
  <unicode hex="005B"/>
  <outline>
    <contour>
      <point x="-27.18421052631578" y="-126.6842105263158" type="curve"/>
      <point x="171.1578947368421" y="-126.6842105263158" type="line"/>
      <point x="177.68421052631578" y="-93.3157894736842" type="line"/>
      <point x="182.71052631578945" y="-18.026315789473685"/>
      <point x="191.18421052631578" y="47.078947368421055"/>
      <point x="210.0" y="137.3421052631579" type="curve"/>
      <point x="287.92105263157896" y="506.7631578947368" type="line"/>
      <point x="307.55263157894734" y="600.2894736842105"/>
      <point x="326.6315789473684" y="667.8421052631579"/>
      <point x="353.9736842105263" y="745.578947368421" type="curve"/>
      <point x="361.49999999999994" y="778.7631578947369" type="line"/>
      <point x="163.1578947368421" y="778.7631578947369" type="line"/>
      <point x="154.68421052631578" y="701.2105263157895"/>
      <point x="146.21052631578948" y="633.2894736842105"/>
      <point x="126.57894736842105" y="539.9473684210526" type="curve"/>
      <point x="34.60526315789475" y="103.97368421052632" type="line"/>
      <point x="15.789473684210535" y="13.894736842105262"/>
      <point x="-3.289473684210517" y="-51.39473684210526"/>
    </contour>
    <contour>
      <point x="132.78947368421052" y="-126.6842105263158" type="line"/>
      <point x="321.0" y="-126.6842105263158" type="line"/>
      <point x="353.92105263157896" y="30.763157894736842" type="line"/>
      <point x="309.0" y="22.421052631578945"/>
      <point x="261.07894736842104" y="19.973684210526315"/>
      <point x="208.6052631578947" y="19.973684210526315" type="curve"/>
      <point x="163.26315789473682" y="19.973684210526315" type="line"/>
    </contour>
    <contour>
      <point x="278.7894736842105" y="632.1052631578948" type="line"/>
      <point x="326.8421052631579" y="632.1052631578948" type="line"/>
      <point x="390.31578947368416" y="632.1052631578948"/>
      <point x="433.4210526315789" y="627.2105263157895"/>
      <point x="473.52631578947364" y="621.3157894736843" type="curve"/>
      <point x="507.4473684210526" y="778.7631578947369" type="line"/>
      <point x="310.07894736842104" y="778.7631578947369" type="line"/>
    </contour>
  </outline>
</glyph>
<glyph name="backslash" format="2">
  <advance width="476.3421052631579"/>
  <unicode hex="005C"/>
  <outline>
    <contour>
      <point x="227.3421052631579" y="0.0" type="curve"/>
      <point x="425.5" y="0.0" type="line"/>
      <point x="400.9736842105263" y="74.0"/>
      <point x="383.78947368421046" y="137.0"/>
      <point x="368.13157894736844" y="228.0" type="curve"/>
      <point x="324.2631578947368" y="475.8157894736842" type="line"/>
      <point x="307.7894736842105" y="570.0000000000001"/>
      <point x="298.3157894736842" y="636.1842105263158"/>
      <point x="297.4473684210526" y="713.0" type="curve"/>
      <point x="100.92105263157896" y="713.0" type="line"/>
      <point x="127.63157894736841" y="636.0"/>
      <point x="141.36842105263156" y="571.1842105263157"/>
      <point x="157.8421052631579" y="474.1842105263158" type="curve"/>
      <point x="200.89473684210523" y="228.0" type="line"/>
      <point x="217.3684210526316" y="137.0"/>
      <point x="226.6578947368421" y="74.0"/>
    </contour>
  </outline>
</glyph>
<glyph name="asciicircum" format="2">
  <advance width="645.4736842105264"/>
  <unicode hex="005E"/>
  <outline>
    <contour>
      <point x="475.5789473684211" y="349.13157894736844" type="curve"/>
      <point x="625.6052631578947" y="350.9473684210526" type="line"/>
      <point x="585.2105263157894" y="464.07894736842104"/>
      <point x="547.1842105263158" y="575.7631578947369"/>
      <point x="523.3947368421052" y="688.8947368421053" type="curve"/>
      <point x="273.15789473684214" y="688.8947368421053" type="line"/>
      <point x="214.81578947368422" y="578.578947368421"/>
      <point x="139.1578947368421" y="464.36842105263156"/>
      <point x="63.28947368421052" y="352.9473684210526" type="curve"/>
      <point x="232.36842105263162" y="352.9473684210526" type="line"/>
      <point x="284.81578947368416" y="412.8421052631579"/>
      <point x="330.36842105263156" y="471.2894736842105"/>
      <point x="375.7368421052631" y="531.1842105263158" type="curve"/>
      <point x="389.07894736842104" y="531.1842105263158" type="line"/>
      <point x="415.94736842105266" y="470.2894736842105"/>
      <point x="441.8157894736842" y="410.0263157894737"/>
    </contour>
  </outline>
</glyph>
<glyph name="underscore" format="2">
  <advance width="445.2631578947368"/>
  <unicode hex="005F"/>
  <outline>
    <contour>
      <point x="-103.84210526315789" y="-192.78947368421052" type="line"/>
      <point x="-31.78947368421053" y="-189.9736842105263"/>
      <point x="41.15789473684212" y="-187.52631578947367"/>
      <point x="97.13157894736842" y="-185.89473684210526" type="curve"/>
      <point x="164.07894736842104" y="-185.89473684210526" type="line"/>
      <point x="218.42105263157896" y="-187.52631578947367"/>
      <point x="289.7368421052631" y="-189.9736842105263"/>
      <point x="361.4210526315789" y="-192.78947368421052" type="curve"/>
      <point x="396.1578947368421" y="-28.63157894736842" type="line"/>
      <point x="323.2894736842105" y="-31.447368421052634"/>
      <point x="250.34210526315792" y="-33.89473684210527"/>
      <point x="195.18421052631578" y="-35.526315789473685" type="curve"/>
      <point x="128.23684210526315" y="-35.526315789473685" type="line"/>
      <point x="73.07894736842107" y="-33.89473684210527"/>
      <point x="1.763157894736838" y="-31.447368421052634"/>
      <point x="-69.10526315789474" y="-28.63157894736842" type="curve"/>
    </contour>
  </outline>
</glyph>
<glyph name="a" format="2">
  <advance width="533.0"/>
  <unicode hex="0061"/>
  <anchor x="211.3203883495145" y="0.0" name="bottom"/>
  <anchor x="431.1456310679612" y="0.0" name="ogonek"/>
  <anchor x="317.32038834951453" y="500.6407766990291" name="top"/>
  <outline>
    <contour>
      <point x="126.93203883495146" y="-12.980582524271846" type="curve" smooth="yes"/>
      <point x="185.9514563106796" y="-12.980582524271846"/>
      <point x="235.04854368932038" y="26.019417475728154"/>
      <point x="268.747572815534" y="70.28155339805825" type="curve"/>
      <point x="281.3883495145632" y="70.28155339805825" type="line"/>
      <point x="282.0679611650485" y="0.0" type="line"/>
      <point x="462.1456310679612" y="0.0" type="line"/>
      <point x="451.8252427184466" y="65.94174757281554"/>
      <point x="457.78640776699035" y="125.54368932038835"/>
      <point x="469.1067961165048" y="178.48543689320388" type="curve"/>
      <point x="476.1456310679611" y="211.6601941747573" type="line" smooth="yes"/>
      <point x="483.8252427184466" y="246.37864077669903"/>
      <point x="494.80582524271847" y="278.7184466019417"/>
      <point x="501.80582524271847" y="314.0194174757282" type="curve" smooth="yes"/>
      <point x="526.4854368932039" y="438.94174757281553"/>
      <point x="449.9223300970874" y="515.2815533980582"/>
      <point x="299.0" y="515.2815533980582" type="curve" smooth="yes"/>
      <point x="239.05825242718444" y="515.2815533980582"/>
      <point x="149.79611650485433" y="495.9611650485437"/>
      <point x="97.81553398058253" y="487.9417475728155" type="curve"/>
      <point x="68.91262135922331" y="323.44660194174753" type="line"/>
      <point x="133.97087378640776" y="345.8058252427185"/>
      <point x="222.5339805825243" y="363.80582524271847"/>
      <point x="243.89320388349515" y="363.80582524271847" type="curve" smooth="yes"/>
      <point x="307.6699029126213" y="363.80582524271847"/>
      <point x="333.7864077669903" y="338.3883495145631"/>
      <point x="326.7281553398058" y="309.11650485436894" type="curve"/>
      <point x="180.2135922330097" y="287.3980582524272" type="line" smooth="yes"/>
      <point x="98.19417475728154" y="275.378640776699"/>
      <point x="25.174757281553397" y="246.39805825242718"/>
      <point x="5.174757281553399" y="153.39805825242718" type="curve" smooth="yes"/>
      <point x="-14.16504854368932" y="63.05825242718446"/>
      <point x="34.21359223300971" y="-12.980582524271846"/>
    </contour>
    <contour>
      <point x="223.44660194174753" y="128.87378640776697" type="curve" smooth="yes"/>
      <point x="198.95145631067962" y="128.87378640776697"/>
      <point x="179.23300970873782" y="145.29126213592232"/>
      <point x="184.5922330097087" y="175.08737864077668" type="curve" smooth="yes"/>
      <point x="189.9514563106796" y="204.20388349514565"/>
      <point x="215.36893203883494" y="213.58252427184468"/>
      <point x="242.58252427184468" y="220.28155339805824" type="curve" smooth="yes"/>
      <point x="284.25242718446594" y="230.33980582524273"/>
      <point x="297.33009708737865" y="235.6990291262136"/>
      <point x="310.0291262135922" y="247.01941747572815" type="curve"/>
      <point x="294.009708737864" y="172.8834951456311" type="line"/>
      <point x="268.4563106796117" y="142.31067961165044"/>
      <point x="239.8640776699029" y="128.87378640776697"/>
    </contour>
  </outline>
</glyph>
<glyph name="b" format="2">
  <advance width="596.5263157894738"/>
  <unicode hex="0062"/>
  <outline>
    <contour>
      <point x="339.5526315789474" y="-14.710526315789473" type="curve" smooth="yes"/>
      <point x="456.6578947368421" y="-14.710526315789473"/>
      <point x="535.2368421052631" y="88.23684210526316"/>
      <point x="565.2368421052631" y="229.78947368421052" type="curve" smooth="yes"/>
      <point x="597.0526315789474" y="381.4210526315789"/>
      <point x="551.3684210526316" y="515.421052631579"/>
      <point x="417.13157894736844" y="515.421052631579" type="curve" smooth="yes"/>
      <point x="376.8157894736842" y="515.421052631579"/>
      <point x="330.0263157894737" y="492.7368421052631"/>
      <point x="294.84210526315786" y="451.7631578947369" type="curve"/>
      <point x="280.6842105263158" y="451.7631578947369" type="line"/>
      <point x="289.60526315789474" y="493.1842105263158" type="line"/>
      <point x="309.2368421052632" y="587.1578947368421"/>
      <point x="336.0263157894737" y="671.8684210526316"/>
      <point x="363.7368421052632" y="749.7894736842105" type="curve"/>
      <point x="123.49999999999999" y="731.4473684210526" type="line"/>
      <point x="128.6315789473684" y="650.4736842105264"/>
      <point x="119.34210526315789" y="573.2894736842105"/>
      <point x="102.97368421052632" y="493.1842105263158" type="curve"/>
      <point x="44.15789473684211" y="214.47368421052633" type="line"/>
      <point x="26.3421052631579" y="131.0263157894737"/>
      <point x="8.078947368421057" y="70.10526315789474"/>
      <point x="-16.447368421052627" y="0.0" type="curve"/>
      <point x="143.89473684210526" y="0.0" type="line"/>
      <point x="179.76315789473682" y="61.60526315789473" type="line"/>
      <point x="191.4736842105263" y="61.60526315789473" type="line"/>
      <point x="224.68421052631578" y="12.05263157894737"/>
      <point x="287.7105263157895" y="-14.710526315789473"/>
    </contour>
    <contour>
      <point x="283.2631578947368" y="144.55263157894737" type="curve"/>
      <point x="259.4210526315789" y="146.18421052631578"/>
      <point x="236.6578947368421" y="158.07894736842107"/>
      <point x="223.84210526315792" y="178.39473684210526" type="curve"/>
      <point x="253.3684210526316" y="319.0" type="line"/>
      <point x="271.47368421052636" y="342.8157894736842"/>
      <point x="297.421052631579" y="357.60526315789474"/>
      <point x="319.86842105263156" y="358.60526315789474" type="curve"/>
      <point x="370.02631578947364" y="355.60526315789474"/>
      <point x="388.4736842105263" y="300.44736842105266"/>
      <point x="376.7894736842105" y="243.57894736842104" type="curve" smooth="yes"/>
      <point x="365.0263157894737" y="187.3157894736842"/>
      <point x="333.2894736842105" y="148.3684210526316"/>
    </contour>
  </outline>
</glyph>
<glyph name="c" format="2">
  <advance width="479.1578947368421"/>
  <unicode hex="0063"/>
  <anchor x="224.13157894736844" y="0.0" name="bottom"/>
  <anchor x="328.10526315789474" y="500.5263157894737" name="top"/>
  <outline>
    <contour>
      <point x="287.60526315789474" y="-12.263157894736842" type="curve" smooth="yes"/>
      <point x="325.6315789473684" y="-12.263157894736842"/>
      <point x="374.3684210526316" y="0.026315789473684514"/>
      <point x="401.3684210526316" y="9.131578947368421" type="curve"/>
      <point x="426.65789473684214" y="169.86842105263156" type="line"/>
      <point x="395.36842105263156" y="152.76315789473685"/>
      <point x="351.2631578947368" y="139.8421052631579"/>
      <point x="325.1315789473684" y="139.6578947368421" type="curve" smooth="yes"/>
      <point x="249.31578947368422" y="141.6578947368421"/>
      <point x="201.23684210526315" y="185.3421052631579"/>
      <point x="219.36842105263156" y="265.36842105263156" type="curve" smooth="yes"/>
      <point x="233.5" y="326.2105263157895"/>
      <point x="272.92105263157896" y="353.60526315789474"/>
      <point x="327.18421052631584" y="358.60526315789474" type="curve"/>
      <point x="351.13157894736844" y="358.60526315789474"/>
      <point x="396.89473684210526" y="346.6842105263158"/>
      <point x="454.9736842105263" y="317.7631578947368" type="curve"/>
      <point x="500.2368421052632" y="477.57894736842104" type="line"/>
      <point x="457.7894736842105" y="492.6842105263158"/>
      <point x="387.8157894736843" y="514.6052631578947"/>
      <point x="326.55263157894734" y="514.6052631578947" type="curve" smooth="yes"/>
      <point x="162.28947368421052" y="514.6052631578947"/>
      <point x="61.36842105263158" y="422.05263157894734"/>
      <point x="31.73684210526316" y="281.9736842105263" type="curve" smooth="yes"/>
      <point x="-6.157894736842103" y="102.02631578947368"/>
      <point x="100.5" y="-12.263157894736842"/>
    </contour>
  </outline>
</glyph>
<glyph name="f" format="2">
  <advance width="417.2631578947368"/>
  <unicode hex="0066"/>
  <outline>
    <contour>
      <point x="23.157894736842106" y="0.0" type="curve"/>
      <point x="240.07894736842107" y="0.0" type="line"/>
      <point x="245.28947368421055" y="70.10526315789474"/>
      <point x="252.57894736842107" y="131.0263157894737"/>
      <point x="270.39473684210526" y="214.47368421052633" type="curve"/>
      <point x="324.5789473684211" y="471.8421052631579" type="line"/>
      <point x="336.55263157894734" y="500.5263157894737" type="line"/>
      <point x="324.0526315789474" y="507.0"/>
      <point x="314.92105263157896" y="526.1578947368422"/>
      <point x="318.47368421052636" y="543.3684210526316" type="curve" smooth="yes"/>
      <point x="326.0526315789474" y="579.3421052631579"/>
      <point x="352.8157894736842" y="596.1578947368421"/>
      <point x="388.7105263157895" y="596.1578947368421" type="curve" smooth="yes"/>
      <point x="405.4736842105263" y="596.1578947368421"/>
      <point x="444.63157894736844" y="587.1578947368422"/>
      <point x="476.60526315789474" y="575.7105263157895" type="curve"/>
      <point x="521.6842105263157" y="731.078947368421" type="line"/>
      <point x="477.92105263157896" y="739.2631578947369"/>
      <point x="411.81578947368416" y="748.078947368421"/>
      <point x="380.55263157894734" y="748.078947368421" type="curve" smooth="yes"/>
      <point x="277.5" y="748.078947368421"/>
      <point x="179.05263157894734" y="705.8947368421053"/>
      <point x="146.71052631578948" y="558.9736842105262" type="curve" smooth="yes"/>
      <point x="130.76315789473682" y="482.1578947368421"/>
      <point x="110.5" y="344.15789473684214"/>
      <point x="94.57894736842105" y="264.4736842105263" type="curve"/>
      <point x="83.76315789473685" y="214.47368421052633" type="line"/>
      <point x="65.94736842105264" y="131.0263157894737"/>
      <point x="47.6842105263158" y="70.10526315789474"/>
    </contour>
    <contour>
      <point x="35.65789473684212" y="347.1578947368421" type="line"/>
      <point x="168.23684210526315" y="366.0263157894737" type="line"/>
      <point x="252.9210526315789" y="366.0263157894737" type="line"/>
      <point x="308.68421052631584" y="364.39473684210526"/>
      <point x="359.55263157894734" y="358.5"/>
      <point x="417.9473684210526" y="347.1578947368421" type="curve"/>
      <point x="450.2368421052632" y="500.5263157894737" type="line"/>
      <point x="67.94736842105263" y="500.5263157894737" type="line"/>
    </contour>
  </outline>
</glyph>
<glyph name="l" format="2">
  <advance width="290.2105263157895"/>
  <unicode hex="006C"/>
  <anchor x="92.10526315789474" y="0.0" name="bottom"/>
  <anchor x="183.18421052631578" y="409.0" name="center"/>
  <anchor x="239.57894736842107" y="731.1578947368421" name="top"/>
  <anchor x="313.7105263157895" y="500.5263157894737" name="topright"/>
  <outline>
    <contour>
      <point x="-16.447368421052627" y="0.0" type="curve"/>
      <point x="200.47368421052633" y="0.0" type="line"/>
      <point x="205.68421052631578" y="70.10526315789474"/>
      <point x="212.97368421052633" y="131.0263157894737"/>
      <point x="230.78947368421055" y="214.47368421052633" type="curve"/>
      <point x="289.60526315789474" y="493.1842105263158" type="line"/>
      <point x="309.2368421052632" y="587.1578947368421"/>
      <point x="336.0263157894737" y="671.8684210526316"/>
      <point x="363.7368421052632" y="749.7894736842105" type="curve"/>
      <point x="123.49999999999999" y="731.4473684210526" type="line"/>
      <point x="128.6315789473684" y="650.4736842105264"/>
      <point x="119.34210526315789" y="573.2894736842105"/>
      <point x="102.97368421052632" y="493.1842105263158" type="curve"/>
      <point x="44.15789473684211" y="214.47368421052633" type="line"/>
      <point x="26.3421052631579" y="131.0263157894737"/>
      <point x="8.078947368421057" y="70.10526315789474"/>
    </contour>
  </outline>
</glyph>
<glyph name="m" format="2">
  <advance width="888.4210526315788"/>
  <unicode hex="006D"/>
  <anchor x="395.7368421052631" y="0.0" name="bottom"/>
  <anchor x="501.36842105263156" y="500.5263157894737" name="top"/>
  <outline>
    <contour>
      <point x="-12.078947368421048" y="0.0" type="curve"/>
      <point x="204.84210526315792" y="0.0" type="line"/>
      <point x="210.05263157894737" y="70.10526315789474"/>
      <point x="217.34210526315792" y="131.0263157894737"/>
      <point x="232.7105263157895" y="203.8684210526316" type="curve"/>
      <point x="253.3684210526316" y="301.8684210526315" type="line"/>
      <point x="278.10526315789474" y="327.34210526315786"/>
      <point x="307.9736842105263" y="346.36842105263156"/>
      <point x="326.7368421052632" y="346.36842105263156" type="curve" smooth="yes"/>
      <point x="360.34210526315786" y="346.36842105263156"/>
      <point x="368.39473684210526" y="312.39473684210526"/>
      <point x="354.55263157894734" y="251.81578947368425" type="curve"/>
      <point x="345.34210526315786" y="203.8684210526316" type="line"/>
      <point x="329.97368421052624" y="131.02631578947367"/>
      <point x="312.52631578947364" y="70.10526315789474"/>
      <point x="289.6315789473684" y="0.0" type="curve"/>
      <point x="504.921052631579" y="0.0" type="line"/>
      <point x="507.68421052631584" y="70.10526315789474"/>
      <point x="516.6052631578949" y="131.02631578947367"/>
      <point x="534.4210526315791" y="214.47368421052633" type="curve"/>
      <point x="542.4210526315791" y="253.28947368421055"/>
      <point x="555.7631578947369" y="294.60526315789474"/>
      <point x="561.7631578947369" y="323.2368421052631" type="curve" smooth="yes"/>
      <point x="568.3947368421053" y="353.7631578947368"/>
      <point x="569.7631578947369" y="381.2894736842105"/>
      <point x="566.5" y="405.3684210526316" type="curve"/>
      <point x="558.9736842105264" y="406.10526315789474" type="line"/>
      <point x="553.7105263157896" y="473.68421052631584"/>
      <point x="511.34210526315786" y="515.421052631579"/>
      <point x="437.05263157894734" y="515.421052631579" type="curve" smooth="yes"/>
      <point x="382.6578947368421" y="515.421052631579"/>
      <point x="317.078947368421" y="477.63157894736844"/>
      <point x="271.81578947368416" y="426.39473684210526" type="curve"/>
      <point x="257.02631578947364" y="426.39473684210526" type="line"/>
      <point x="263.13157894736844" y="509.2368421052632" type="line"/>
      <point x="79.57894736842104" y="500.5263157894737" type="line"/>
      <point x="84.44736842105262" y="419.1842105263158"/>
      <point x="75.34210526315789" y="342.0"/>
      <point x="59.52631578947369" y="264.4736842105263" type="curve"/>
      <point x="48.52631578947369" y="214.47368421052633" type="line"/>
      <point x="30.71052631578948" y="131.0263157894737"/>
      <point x="12.447368421052635" y="70.10526315789474"/>
    </contour>
    <contour>
      <point x="587.7894736842105" y="0.0" type="curve"/>
      <point x="803.078947368421" y="0.0" type="line"/>
      <point x="805.8421052631579" y="70.10526315789474"/>
      <point x="814.763157894737" y="131.02631578947367"/>
      <point x="832.5789473684212" y="214.47368421052633" type="curve"/>
      <point x="840.5789473684212" y="253.28947368421055"/>
      <point x="853.921052631579" y="294.60526315789474"/>
      <point x="859.921052631579" y="323.2368421052631" type="curve" smooth="yes"/>
      <point x="884.4736842105264" y="438.71052631578954"/>
      <point x="837.6578947368421" y="515.421052631579"/>
      <point x="735.2105263157895" y="515.421052631579" type="curve" smooth="yes"/>
      <point x="680.8157894736842" y="515.421052631579"/>
      <point x="615.1315789473683" y="477.07894736842104"/>
      <point x="569.5000000000001" y="425.4736842105263" type="curve"/>
      <point x="553.5263157894736" y="425.4736842105263" type="line"/>
      <point x="551.5263157894738" y="301.8684210526315" type="line"/>
      <point x="576.2631578947369" y="327.3421052631579"/>
      <point x="606.1315789473683" y="346.36842105263156"/>
      <point x="624.8947368421053" y="346.36842105263156" type="curve" smooth="yes"/>
      <point x="658.4999999999999" y="346.36842105263156"/>
      <point x="666.5526315789474" y="312.39473684210526"/>
      <point x="652.7105263157895" y="251.81578947368425" type="curve"/>
      <point x="643.5" y="203.8684210526316" type="line"/>
      <point x="628.1315789473686" y="131.02631578947367"/>
      <point x="610.6842105263157" y="70.10526315789474"/>
    </contour>
  </outline>
</glyph>
<glyph name="n" format="2">
  <advance width="596.8421052631578"/>
  <unicode hex="006E"/>
  <anchor x="245.26315789473685" y="0.0" name="bottom"/>
  <anchor x="350.89473684210526" y="500.5263157894737" name="top"/>
  <outline>
    <contour>
      <point x="-12.078947368421048" y="0.0" type="curve"/>
      <point x="204.84210526315792" y="0.0" type="line"/>
      <point x="210.05263157894737" y="70.10526315789474"/>
      <point x="217.34210526315792" y="131.0263157894737"/>
      <point x="232.7105263157895" y="203.8684210526316" type="curve"/>
      <point x="253.3684210526316" y="301.8684210526315" type="line"/>
      <point x="278.10526315789474" y="327.3421052631579"/>
      <point x="310.34210526315786" y="346.36842105263156"/>
      <point x="329.4736842105263" y="346.36842105263156" type="curve" smooth="yes"/>
      <point x="366.9210526315789" y="346.36842105263156"/>
      <point x="374.97368421052636" y="312.39473684210526"/>
      <point x="361.13157894736844" y="251.81578947368425" type="curve"/>
      <point x="351.92105263157896" y="203.8684210526316" type="line"/>
      <point x="336.55263157894734" y="131.02631578947367"/>
      <point x="319.10526315789474" y="70.10526315789474"/>
      <point x="296.2105263157895" y="0.0" type="curve"/>
      <point x="511.50000000000006" y="0.0" type="line"/>
      <point x="514.2631578947369" y="70.10526315789474"/>
      <point x="523.184210526316" y="131.02631578947367"/>
      <point x="541.0000000000001" y="214.47368421052633" type="curve"/>
      <point x="549.0000000000001" y="253.28947368421055"/>
      <point x="562.3421052631579" y="294.60526315789474"/>
      <point x="568.3421052631579" y="323.2368421052631" type="curve" smooth="yes"/>
      <point x="592.8947368421053" y="438.7105263157895"/>
      <point x="546.0789473684212" y="515.421052631579"/>
      <point x="439.9736842105263" y="515.421052631579" type="curve" smooth="yes"/>
      <point x="383.39473684210526" y="515.421052631579"/>
      <point x="317.89473684210526" y="477.63157894736844"/>
      <point x="271.81578947368416" y="426.39473684210526" type="curve"/>
      <point x="257.02631578947364" y="426.39473684210526" type="line"/>
      <point x="263.13157894736844" y="509.2368421052632" type="line"/>
      <point x="79.57894736842104" y="500.5263157894737" type="line"/>
      <point x="84.44736842105262" y="419.1842105263158"/>
      <point x="75.34210526315789" y="342.0"/>
      <point x="59.52631578947369" y="264.4736842105263" type="curve"/>
      <point x="48.52631578947369" y="214.47368421052633" type="line"/>
      <point x="30.71052631578948" y="131.0263157894737"/>
      <point x="12.447368421052635" y="70.10526315789474"/>
    </contour>
  </outline>
</glyph>
<glyph name="o" format="2">
  <advance width="597.8157894736842"/>
  <unicode hex="006F"/>
  <anchor x="246.0" y="0.0" name="bottom"/>
  <anchor x="298.8157894736842" y="250.26315789473685" name="center"/>
  <anchor x="371.07894736842104" y="0.0" name="ogonek"/>
  <anchor x="351.63157894736844" y="500.5263157894737" name="top"/>
  <anchor x="574.5" y="500.5263157894737" name="topright"/>
  <outline>
    <contour>
      <point x="277.7105263157895" y="-14.710526315789473" type="curve" smooth="yes"/>
      <point x="434.4473684210526" y="-14.710526315789473"/>
      <point x="535.6315789473684" y="76.21052631578948"/>
      <point x="567.078947368421" y="223.6315789473684" type="curve" smooth="yes"/>
      <point x="599.078947368421" y="373.4473684210526"/>
      <point x="512.9210526315788" y="515.421052631579"/>
      <point x="320.2894736842105" y="515.421052631579" type="curve" smooth="yes"/>
      <point x="164.94736842105263" y="515.421052631579"/>
      <point x="62.55263157894737" y="427.3421052631579"/>
      <point x="30.92105263157895" y="277.89473684210526" type="curve" smooth="yes"/>
      <point x="0.10526315789473983" y="128.81578947368422"/>
      <point x="78.63157894736841" y="-14.710526315789473"/>
    </contour>
    <contour>
      <point x="282.9736842105263" y="135.57894736842104" type="curve"/>
      <point x="229.05263157894734" y="140.21052631578948"/>
      <point x="205.42105263157896" y="195.92105263157896"/>
      <point x="218.55263157894737" y="260.4736842105263" type="curve" smooth="yes"/>
      <point x="231.1315789473684" y="322.0"/>
      <point x="266.4473684210526" y="360.5"/>
      <point x="317.8421052631579" y="365.13157894736844" type="curve"/>
      <point x="372.99999999999994" y="358.8684210526316"/>
      <point x="392.13157894736844" y="302.81578947368416"/>
      <point x="379.44736842105266" y="240.23684210526315" type="curve" smooth="yes"/>
      <point x="367.6842105263158" y="182.52631578947367"/>
      <point x="333.7368421052632" y="140.21052631578948"/>
    </contour>
  </outline>
</glyph>
<glyph name="p" format="2">
  <advance width="600.8947368421053"/>
  <unicode hex="0070"/>
  <outline>
    <contour>
      <point x="-53.263157894736835" y="-197.26315789473685" type="curve"/>
      <point x="168.73684210526315" y="-192.0" type="line"/>
      <point x="170.5" y="-121.89473684210526"/>
      <point x="176.97368421052636" y="-60.973684210526315"/>
      <point x="192.52631578947373" y="11.868421052631579" type="curve"/>
      <point x="201.26315789473688" y="51.81578947368421" type="line"/>
      <point x="212.1578947368421" y="51.81578947368421" type="line"/>
      <point x="242.10526315789474" y="8.789473684210527"/>
      <point x="297.7894736842105" y="-14.710526315789473"/>
      <point x="343.92105263157896" y="-14.710526315789473" type="curve" smooth="yes"/>
      <point x="461.02631578947364" y="-14.710526315789473"/>
      <point x="539.6052631578947" y="88.23684210526316"/>
      <point x="569.6052631578947" y="229.78947368421052" type="curve" smooth="yes"/>
      <point x="601.421052631579" y="381.4210526315789"/>
      <point x="555.7368421052631" y="515.421052631579"/>
      <point x="421.5" y="515.421052631579" type="curve" smooth="yes"/>
      <point x="374.4736842105263" y="515.421052631579"/>
      <point x="320.9736842105263" y="488.4736842105263"/>
      <point x="279.89473684210526" y="438.34210526315786" type="curve"/>
      <point x="264.92105263157896" y="438.34210526315786" type="line"/>
      <point x="270.4736842105263" y="509.2368421052632" type="line"/>
      <point x="79.57894736842104" y="500.5263157894737" type="line"/>
      <point x="84.44736842105262" y="419.1842105263158"/>
      <point x="75.34210526315789" y="342.0"/>
      <point x="59.52631578947369" y="264.4736842105263" type="curve"/>
      <point x="8.3421052631579" y="22.473684210526315" type="line"/>
      <point x="-9.473684210526311" y="-60.973684210526315"/>
      <point x="-28.73684210526315" y="-127.15789473684211"/>
    </contour>
    <contour>
      <point x="287.6315789473684" y="144.55263157894737" type="curve"/>
      <point x="263.78947368421046" y="146.18421052631578"/>
      <point x="241.0263157894737" y="158.07894736842107"/>
      <point x="228.2105263157895" y="178.39473684210526" type="curve"/>
      <point x="257.7368421052632" y="319.0" type="line"/>
      <point x="275.842105263158" y="342.8157894736842"/>
      <point x="301.7894736842106" y="357.60526315789474"/>
      <point x="324.2368421052631" y="358.60526315789474" type="curve"/>
      <point x="374.3947368421052" y="355.60526315789474"/>
      <point x="392.84210526315786" y="300.44736842105266"/>
      <point x="381.1578947368421" y="243.57894736842104" type="curve" smooth="yes"/>
      <point x="369.39473684210526" y="187.3157894736842"/>
      <point x="337.6578947368421" y="148.3684210526316"/>
    </contour>
  </outline>
</glyph>
<glyph name="q" format="2">
  <advance width="589.078947368421"/>
  <unicode hex="0071"/>
  <outline>
    <contour>
      <point x="248.05263157894737" y="-197.26315789473685" type="curve"/>
      <point x="465.9736842105263" y="-192.0" type="line"/>
      <point x="471.1842105263157" y="-121.89473684210526"/>
      <point x="478.47368421052624" y="-60.973684210526315"/>
      <point x="496.28947368421046" y="22.473684210526315" type="curve"/>
      <point x="548.1052631578947" y="264.4736842105263" type="line"/>
      <point x="564.7368421052631" y="344.6315789473684"/>
      <point x="588.6315789473684" y="425.2631578947368"/>
      <point x="622.236842105263" y="509.2368421052632" type="curve"/>
      <point x="437.0526315789474" y="500.5263157894737" type="line"/>
      <point x="416.0526315789474" y="437.05263157894734" type="line"/>
      <point x="401.8947368421053" y="437.05263157894734" type="line"/>
      <point x="370.2368421052632" y="487.8421052631579"/>
      <point x="309.6578947368421" y="515.421052631579"/>
      <point x="257.7894736842105" y="515.421052631579" type="curve" smooth="yes"/>
      <point x="140.68421052631578" y="515.421052631579"/>
      <point x="62.10526315789474" y="412.4736842105263"/>
      <point x="32.10526315789474" y="270.92105263157896" type="curve" smooth="yes"/>
      <point x="0.289473684210526" y="119.28947368421053"/>
      <point x="45.973684210526315" y="-14.710526315789473"/>
      <point x="180.21052631578948" y="-14.710526315789473" type="curve" smooth="yes"/>
      <point x="220.7894736842105" y="-14.710526315789473"/>
      <point x="265.7631578947369" y="6.052631578947369"/>
      <point x="303.05263157894734" y="50.34210526315789" type="curve"/>
      <point x="315.57894736842104" y="50.34210526315789" type="line"/>
      <point x="307.2105263157895" y="11.868421052631579" type="line"/>
      <point x="291.84210526315786" y="-60.973684210526315"/>
      <point x="272.57894736842104" y="-127.15789473684211"/>
    </contour>
    <contour>
      <point x="277.4736842105263" y="142.10526315789474" type="curve"/>
      <point x="227.3157894736842" y="144.92105263157896"/>
      <point x="208.6842105263158" y="200.4473684210526"/>
      <point x="220.5526315789474" y="257.13157894736844" type="curve" smooth="yes"/>
      <point x="232.5" y="313.7631578947368"/>
      <point x="264.0526315789474" y="352.34210526315786"/>
      <point x="314.07894736842104" y="356.1578947368421" type="curve"/>
      <point x="338.4736842105263" y="354.34210526315786"/>
      <point x="361.0526315789474" y="343.1842105263158"/>
      <point x="374.2368421052632" y="325.8157894736842" type="curve"/>
      <point x="344.89473684210526" y="186.5" type="line"/>
      <point x="327.8947368421052" y="159.3684210526316"/>
      <point x="302.3157894736842" y="143.28947368421052"/>
    </contour>
  </outline>
</glyph>
<glyph name="r" format="2">
  <advance width="429.89473684210526"/>
  <unicode hex="0072"/>
  <anchor x="88.39473684210527" y="0.0" name="bottom"/>
  <anchor x="288.89473684210526" y="500.5263157894737" name="top"/>
  <outline>
    <contour>
      <point x="-12.078947368421048" y="0.0" type="curve"/>
      <point x="204.84210526315792" y="0.0" type="line"/>
      <point x="210.05263157894737" y="70.10526315789474"/>
      <point x="217.34210526315792" y="131.0263157894737"/>
      <point x="232.7105263157895" y="203.8684210526316" type="curve"/>
      <point x="247.81578947368422" y="271.5789473684211" type="line"/>
      <point x="277.60526315789474" y="311.39473684210526"/>
      <point x="322.57894736842104" y="327.60526315789474"/>
      <point x="343.36842105263156" y="327.60526315789474" type="curve" smooth="yes"/>
      <point x="360.5526315789474" y="327.60526315789474"/>
      <point x="380.1842105263158" y="322.1578947368421"/>
      <point x="412.5263157894737" y="311.3421052631579" type="curve"/>
      <point x="469.84210526315786" y="505.2368421052632" type="line"/>
      <point x="452.657894736842" y="510.42105263157885"/>
      <point x="425.02631578947364" y="515.421052631579"/>
      <point x="411.44736842105266" y="515.421052631579" type="curve" smooth="yes"/>
      <point x="368.4473684210526" y="515.421052631579"/>
      <point x="324.6578947368421" y="496.0526315789474"/>
      <point x="270.89473684210526" y="423.6315789473684" type="curve"/>
      <point x="256.10526315789474" y="423.6315789473684" type="line"/>
      <point x="263.13157894736844" y="509.2368421052632" type="line"/>
      <point x="79.57894736842104" y="500.5263157894737" type="line"/>
      <point x="84.44736842105262" y="419.1842105263158"/>
      <point x="75.34210526315789" y="342.0"/>
      <point x="59.52631578947369" y="264.4736842105263" type="curve"/>
      <point x="48.52631578947369" y="214.47368421052633" type="line"/>
      <point x="30.71052631578948" y="131.0263157894737"/>
      <point x="12.447368421052635" y="70.10526315789474"/>
    </contour>
  </outline>
</glyph>
<glyph name="s" format="2">
  <advance width="472.22330097087377"/>
  <unicode hex="0073"/>
  <anchor x="186.2621359223301" y="0.0" name="bottom"/>
  <anchor x="291.9223300970874" y="500.6407766990291" name="top"/>
  <outline>
    <contour>
      <point x="207.92233009708738" y="-14.640776699029125" type="curve" smooth="yes"/>
      <point x="343.42718446601936" y="-14.640776699029125"/>
      <point x="409.0679611650486" y="39.96116504854369"/>
      <point x="425.3883495145631" y="117.26213592233012" type="curve" smooth="yes"/>
      <point x="443.3883495145631" y="201.98058252427185"/>
      <point x="407.2718446601941" y="242.67961165048544"/>
      <point x="302.68932038834953" y="286.0" type="curve" smooth="yes"/>
      <point x="249.1941747572815" y="308.41747572815535"/>
      <point x="240.49514563106794" y="322.81553398058253"/>
      <point x="244.8543689320388" y="343.2330097087379" type="curve" smooth="yes"/>
      <point x="249.23300970873785" y="363.0873786407767"/>
      <point x="271.06796116504853" y="369.40776699029124"/>
      <point x="292.8252427184466" y="371.40776699029124" type="curve"/>
      <point x="316.50485436893206" y="371.40776699029124"/>
      <point x="367.50485436893206" y="354.42718446601947"/>
      <point x="425.5242718446602" y="319.4466019417476" type="curve"/>
      <point x="468.3883495145631" y="472.62135922330094" type="line"/>
      <point x="424.0679611650486" y="487.30097087378635"/>
      <point x="332.8640776699029" y="514.6213592233009"/>
      <point x="264.94174757281553" y="514.6213592233009" type="curve" smooth="yes"/>
      <point x="145.47572815533982" y="514.6213592233009"/>
      <point x="77.49514563106797" y="465.0"/>
      <point x="59.49514563106796" y="380.3398058252427" type="curve" smooth="yes"/>
      <point x="42.15533980582524" y="300.3203883495146"/>
      <point x="71.23300970873787" y="247.37864077669903"/>
      <point x="164.17475728155344" y="209.0388349514563" type="curve" smooth="yes"/>
      <point x="226.66990291262135" y="182.621359223301"/>
      <point x="246.04854368932035" y="168.2233009708738"/>
      <point x="240.34951456310674" y="146.7864077669903" type="curve" smooth="yes"/>
      <point x="235.31067961165047" y="127.65048543689319"/>
      <point x="210.8155339805825" y="123.97087378640776"/>
      <point x="185.69902912621362" y="122.31067961165049" type="curve"/>
      <point x="151.32038834951462" y="122.31067961165049"/>
      <point x="80.39805825242719" y="149.61165048543688"/>
      <point x="31.378640776699037" y="182.95145631067962" type="curve"/>
      <point x="-9.844660194174757" y="29.058252427184474" type="line"/>
      <point x="36.45631067961165" y="13.378640776699033"/>
      <point x="110.71844660194178" y="-14.640776699029125"/>
    </contour>
  </outline>
</glyph>
<glyph name="t" format="2">
  <advance width="429.36842105263156"/>
  <unicode hex="0074"/>
  <anchor x="180.10526315789474" y="0.0" name="bottom"/>
  <anchor x="220.5" y="250.26315789473685" name="center"/>
  <anchor x="299.2894736842105" y="669.6842105263158" name="top"/>
  <anchor x="342.8684210526316" y="500.5263157894737" name="topright"/>
  <outline>
    <contour>
      <point x="244.0526315789474" y="-14.710526315789473" type="curve" smooth="yes"/>
      <point x="280.5" y="-14.710526315789473"/>
      <point x="334.6315789473684" y="-2.973684210526315"/>
      <point x="356.52631578947364" y="6.026315789473685" type="curve"/>
      <point x="378.7368421052632" y="158.6052631578947" type="line"/>
      <point x="350.92105263157896" y="143.0526315789474"/>
      <point x="323.52631578947364" y="135.57894736842104"/>
      <point x="307.86842105263156" y="135.57894736842104" type="curve" smooth="yes"/>
      <point x="269.0526315789474" y="135.57894736842104"/>
      <point x="254.7105263157895" y="167.68421052631578"/>
      <point x="265.92105263157896" y="222.26315789473682" type="curve" smooth="yes"/>
      <point x="315.3421052631579" y="455.5263157894737" type="line"/>
      <point x="335.2368421052632" y="550.0"/>
      <point x="354.0263157894737" y="616.0263157894738"/>
      <point x="380.44736842105266" y="696.0" type="curve"/>
      <point x="160.00000000000003" y="661.3421052631579" type="line"/>
      <point x="154.3421052631579" y="594.0"/>
      <point x="147.42105263157896" y="535.4736842105264"/>
      <point x="131.1578947368421" y="455.5263157894737" type="curve"/>
      <point x="100.0263157894737" y="308.7631578947369"/>
      <point x="83.00000000000001" y="247.42105263157896"/>
      <point x="67.86842105263159" y="177.3157894736842" type="curve" smooth="yes"/>
      <point x="39.97368421052633" y="43.39473684210527"/>
      <point x="120.42105263157896" y="-14.710526315789473"/>
    </contour>
    <contour>
      <point x="35.65789473684212" y="347.1578947368421" type="line"/>
      <point x="168.23684210526318" y="366.0263157894737" type="line"/>
      <point x="252.92105263157893" y="366.0263157894737" type="line"/>
      <point x="308.6842105263158" y="364.39473684210526"/>
      <point x="368.6315789473684" y="358.5"/>
      <point x="427.02631578947364" y="347.1578947368421" type="curve"/>
      <point x="459.3157894736842" y="500.5263157894737" type="line"/>
      <point x="67.94736842105263" y="500.5263157894737" type="line"/>
    </contour>
  </outline>
</glyph>
<glyph name="u" format="2">
  <advance width="586.5263157894738"/>
  <unicode hex="0075"/>
  <anchor x="239.31578947368425" y="0.0" name="bottom"/>
  <anchor x="492.84210526315786" y="0.0" name="ogonek"/>
  <anchor x="344.13157894736844" y="500.5263157894737" name="top"/>
  <anchor x="617.3157894736842" y="500.5263157894737" name="topright"/>
  <outline>
    <contour>
      <point x="152.9736842105263" y="-14.710526315789473" type="curve" smooth="yes"/>
      <point x="208.44736842105263" y="-14.710526315789473"/>
      <point x="273.94736842105266" y="23.078947368421055"/>
      <point x="320.02631578947364" y="74.3157894736842" type="curve"/>
      <point x="334.8157894736842" y="74.3157894736842" type="line"/>
      <point x="327.42105263157896" y="0.0" type="line"/>
      <point x="497.7368421052631" y="0.0" type="line"/>
      <point x="502.94736842105266" y="70.10526315789474"/>
      <point x="509.42105263157896" y="131.0263157894737"/>
      <point x="527.2368421052631" y="214.47368421052633" type="curve"/>
      <point x="539.8684210526316" y="272.63157894736844" type="line"/>
      <point x="560.1315789473684" y="369.13157894736844"/>
      <point x="578.3947368421052" y="430.42105263157896"/>
      <point x="602.2894736842105" y="500.5263157894737" type="curve"/>
      <point x="387.63157894736844" y="500.5263157894737" type="line"/>
      <point x="382.7894736842105" y="430.42105263157896"/>
      <point x="373.6842105263158" y="369.13157894736844"/>
      <point x="358.13157894736844" y="296.2894736842105" type="curve"/>
      <point x="336.8421052631579" y="194.76315789473685" type="line"/>
      <point x="312.10526315789474" y="169.28947368421052"/>
      <point x="279.8684210526316" y="150.26315789473682"/>
      <point x="261.84210526315786" y="150.26315789473682" type="curve" smooth="yes"/>
      <point x="224.39473684210523" y="150.26315789473682"/>
      <point x="216.3421052631579" y="184.23684210526315"/>
      <point x="229.36842105263156" y="244.8157894736842" type="curve"/>
      <point x="240.02631578947367" y="296.2894736842105" type="line"/>
      <point x="254.57894736842104" y="369.13157894736844"/>
      <point x="273.8421052631579" y="435.6842105263158"/>
      <point x="297.7368421052632" y="505.7894736842105" type="curve"/>
      <point x="79.63157894736842" y="500.5263157894737" type="line"/>
      <point x="74.78947368421052" y="430.42105263157896"/>
      <point x="68.94736842105263" y="370.7631578947369"/>
      <point x="48.5" y="272.63157894736844" type="curve"/>
      <point x="40.49999999999999" y="234.3684210526316"/>
      <point x="32.23684210526316" y="206.10526315789474"/>
      <point x="26.23684210526316" y="177.47368421052633" type="curve" smooth="yes"/>
      <point x="1.684210526315791" y="62.00000000000001"/>
      <point x="46.86842105263158" y="-14.710526315789473"/>
    </contour>
  </outline>
</glyph>
<glyph name="w" format="2">
  <advance width="850.2631578947368"/>
  <unicode hex="0077"/>
  <anchor x="368.10526315789474" y="0.0" name="bottom"/>
  <anchor x="472.92105263157896" y="500.5263157894737" name="top"/>
  <outline>
    <contour>
      <point x="99.42105263157895" y="0.0" type="curve"/>
      <point x="308.39473684210526" y="0.0" type="line"/>
      <point x="323.5789473684211" y="50.8421052631579"/>
      <point x="344.3947368421052" y="104.60526315789474"/>
      <point x="365.2894736842105" y="155.07894736842104" type="curve"/>
      <point x="405.7105263157895" y="252.6578947368421" type="line"/>
      <point x="418.2368421052631" y="252.6578947368421" type="line"/>
      <point x="419.4736842105263" y="159.52631578947367" type="line"/>
      <point x="419.6842105263157" y="107.60526315789474"/>
      <point x="419.2631578947368" y="50.473684210526315"/>
      <point x="413.57894736842104" y="0.0" type="curve"/>
      <point x="642.684210526316" y="0.0" type="line"/>
      <point x="665.7105263157895" y="61.81578947368421"/>
      <point x="697.0789473684212" y="125.63157894736842"/>
      <point x="731.2631578947369" y="191.44736842105263" type="curve"/>
      <point x="776.6315789473684" y="278.4473684210526" type="line"/>
      <point x="815.6315789473684" y="353.7105263157895"/>
      <point x="853.8157894736842" y="425.7105263157895"/>
      <point x="902.7105263157896" y="500.5263157894737" type="curve"/>
      <point x="672.4473684210526" y="500.5263157894737" type="line"/>
      <point x="658.1842105263158" y="445.2631578947368"/>
      <point x="632.3684210526316" y="374.7105263157895"/>
      <point x="608.6578947368422" y="313.07894736842104" type="curve"/>
      <point x="562.2368421052632" y="191.81578947368422" type="line"/>
      <point x="549.078947368421" y="191.81578947368422" type="line"/>
      <point x="550.921052631579" y="311.2631578947368" type="line"/>
      <point x="552.1578947368421" y="373.89473684210526"/>
      <point x="555.0263157894738" y="439.89473684210526"/>
      <point x="563.1578947368421" y="500.5263157894737" type="curve"/>
      <point x="373.2368421052632" y="500.5263157894737" type="line"/>
      <point x="357.5" y="437.15789473684214"/>
      <point x="333.78947368421046" y="375.15789473684214"/>
      <point x="309.2631578947368" y="310.89473684210526" type="curve"/>
      <point x="263.39473684210526" y="191.81578947368422" type="line"/>
      <point x="250.23684210526315" y="191.81578947368422" type="line"/>
      <point x="251.89473684210526" y="310.1578947368421" type="line"/>
      <point x="253.1315789473684" y="372.60526315789474"/>
      <point x="255.63157894736847" y="442.97368421052636"/>
      <point x="263.7631578947368" y="505.7894736842105" type="curve"/>
      <point x="49.92105263157895" y="500.5263157894737" type="line"/>
      <point x="67.81578947368422" y="425.5263157894737"/>
      <point x="76.0" y="353.07894736842104"/>
      <point x="82.55263157894737" y="278.4473684210526" type="curve"/>
      <point x="90.47368421052632" y="190.26315789473685" type="line"/>
      <point x="96.02631578947368" y="126.44736842105263"/>
      <point x="100.57894736842104" y="62.81578947368421"/>
    </contour>
  </outline>
</glyph>
<glyph name="y" format="2">
  <advance width="567.7105263157895"/>
  <unicode hex="0079"/>
  <anchor x="428.7105263157895" y="0.0" name="bottom"/>
  <anchor x="336.44736842105266" y="500.5263157894737" name="top"/>
  <outline>
    <contour>
      <point x="-10.526315789473673" y="-197.26315789473685" type="curve"/>
      <point x="220.55263157894737" y="-192.0" type="line"/>
      <point x="251.94736842105263" y="-120.0"/>
      <point x="298.5" y="-35.73684210526316"/>
      <point x="372.42105263157896" y="91.26315789473684" type="curve"/>
      <point x="454.97368421052636" y="231.89473684210526" type="line"/>
      <point x="528.5263157894736" y="357.7105263157895"/>
      <point x="564.8947368421052" y="419.5263157894737"/>
      <point x="615.8947368421051" y="500.5263157894737" type="curve"/>
      <point x="388.89473684210526" y="500.5263157894737" type="line"/>
      <point x="371.6052631578948" y="437.7105263157895"/>
      <point x="349.42105263157896" y="377.89473684210526"/>
      <point x="322.42105263157896" y="314.5263157894737" type="curve"/>
      <point x="271.97368421052636" y="194.07894736842104" type="line"/>
      <point x="257.8157894736842" y="194.07894736842104" type="line"/>
      <point x="256.5526315789474" y="315.1578947368421" type="line"/>
      <point x="255.23684210526315" y="380.1578947368421"/>
      <point x="258.1842105263158" y="440.7894736842105"/>
      <point x="265.39473684210526" y="505.7894736842105" type="curve"/>
      <point x="52.55263157894737" y="500.5263157894737" type="line"/>
      <point x="70.8157894736842" y="428.7105263157895"/>
      <point x="82.1842105263158" y="352.7105263157895"/>
      <point x="91.73684210526316" y="280.89473684210526" type="curve"/>
      <point x="103.47368421052632" y="190.89473684210526" type="line"/>
      <point x="112.84210526315789" y="122.44736842105263"/>
      <point x="117.3157894736842" y="53.078947368421055"/>
      <point x="120.15789473684211" y="-15.736842105263158" type="curve"/>
      <point x="135.21052631578945" y="23.736842105263158" type="line"/>
      <point x="97.21052631578947" y="-47.42105263157895"/>
      <point x="44.97368421052631" y="-126.10526315789474"/>
    </contour>
  </outline>
</glyph>
<glyph name="z" format="2">
  <advance width="526.0526315789474"/>
  <unicode hex="007A"/>
  <anchor x="209.0263157894737" y="0.0" name="bottom"/>
  <anchor x="261.8421052631579" y="250.26315789473685" name="center"/>
  <anchor x="314.65789473684214" y="500.5263157894737" name="top"/>
  <outline>
    <contour>
      <point x="-25.131578947368418" y="0.0" type="line"/>
      <point x="446.2894736842105" y="0.0" type="line"/>
      <point x="479.39473684210526" y="156.6315789473684" type="line"/>
      <point x="423.15789473684214" y="142.39473684210526"/>
      <point x="349.2631578947368" y="135.68421052631578"/>
      <point x="305.5789473684211" y="135.68421052631578" type="curve"/>
      <point x="209.28947368421052" y="135.68421052631578" type="line"/>
      <point x="228.15789473684208" y="98.13157894736842" type="line"/>
      <point x="368.2368421052631" y="242.76315789473685" type="line"/>
      <point x="412.7631578947369" y="288.4736842105263"/>
      <point x="471.2105263157895" y="341.578947368421"/>
      <point x="511.9736842105263" y="375.1842105263158" type="curve"/>
      <point x="538.1842105263157" y="500.5263157894737" type="line"/>
      <point x="86.21052631578947" y="500.5263157894737" type="line"/>
      <point x="52.28947368421052" y="339.8157894736842" type="line"/>
      <point x="114.52631578947367" y="356.6842105263158"/>
      <point x="191.05263157894734" y="364.0263157894737"/>
      <point x="234.55263157894734" y="364.0263157894737" type="curve"/>
      <point x="323.55263157894734" y="364.0263157894737" type="line"/>
      <point x="297.3421052631579" y="412.2105263157895" type="line"/>
      <point x="149.28947368421052" y="253.07894736842104" type="line"/>
      <point x="107.94736842105263" y="208.1052631578947"/>
      <point x="55.60526315789474" y="157.84210526315792"/>
      <point x="-2.1842105263157885" y="108.65789473684211" type="curve"/>
    </contour>
  </outline>
</glyph>
<glyph name="braceleft" format="2">
  <advance width="468.2631578947368"/>
  <unicode hex="007B"/>
  <outline>
    <contour>
      <point x="263.9473684210526" y="-126.6842105263158" type="curve" smooth="yes"/>
      <point x="362.86842105263156" y="-126.6842105263158" type="line"/>
      <point x="394.1578947368421" y="24.236842105263158" type="line"/>
      <point x="359.52631578947364" y="20.789473684210524"/>
      <point x="332.5263157894737" y="19.973684210526315"/>
      <point x="315.5263157894737" y="19.973684210526315" type="curve"/>
      <point x="274.9736842105263" y="23.236842105263158"/>
      <point x="264.28947368421046" y="52.368421052631575"/>
      <point x="271.39473684210526" y="93.97368421052632" type="curve" smooth="yes"/>
      <point x="287.6315789473684" y="185.57894736842107" type="line" smooth="yes"/>
      <point x="301.0" y="261.6578947368421"/>
      <point x="281.6315789473684" y="294.92105263157896"/>
      <point x="216.89473684210526" y="318.8157894736842" type="curve"/>
      <point x="219.5263157894737" y="332.15789473684214" type="line"/>
      <point x="293.89473684210526" y="360.7631578947369"/>
      <point x="329.15789473684214" y="402.07894736842104"/>
      <point x="349.42105263157896" y="481.5263157894737" type="curve" smooth="yes"/>
      <point x="371.2105263157895" y="569.2105263157895" type="line" smooth="yes"/>
      <point x="381.9473684210526" y="611.3684210526316"/>
      <point x="402.8157894736842" y="629.6578947368422"/>
      <point x="442.44736842105266" y="632.1052631578948" type="curve"/>
      <point x="460.0" y="632.1052631578948"/>
      <point x="486.7368421052631" y="631.2894736842106"/>
      <point x="516.8421052631579" y="627.8421052631579" type="curve"/>
      <point x="549.1315789473684" y="778.7631578947369" type="line"/>
      <point x="434.4736842105263" y="778.7631578947369" type="line" smooth="yes"/>
      <point x="309.49999999999994" y="778.7631578947369"/>
      <point x="227.13157894736844" y="730.7105263157895"/>
      <point x="203.60526315789477" y="618.0789473684212" type="curve"/>
      <point x="193.8684210526316" y="568.9473684210527"/>
      <point x="189.6578947368421" y="522.8684210526316"/>
      <point x="179.10526315789474" y="473.7368421052632" type="curve"/>
      <point x="167.81578947368422" y="418.2105263157895"/>
      <point x="133.28947368421052" y="391.0263157894737"/>
      <point x="90.44736842105263" y="391.0263157894737" type="curve" smooth="yes"/>
      <point x="47.763157894736835" y="391.0263157894737" type="line"/>
      <point x="20.552631578947366" y="260.86842105263156" type="line"/>
      <point x="63.23684210526315" y="260.86842105263156" type="line" smooth="yes"/>
      <point x="106.07894736842105" y="260.86842105263156"/>
      <point x="128.60526315789474" y="233.68421052631578"/>
      <point x="117.31578947368422" y="178.1578947368421" type="curve"/>
      <point x="109.39473684210527" y="141.36842105263156"/>
      <point x="97.21052631578947" y="104.76315789473684"/>
      <point x="89.28947368421052" y="67.97368421052632" type="curve"/>
      <point x="65.94736842105263" y="-44.10526315789474"/>
      <point x="137.3157894736842" y="-126.6842105263158"/>
    </contour>
  </outline>
</glyph>
<glyph name="bar" format="2">
  <advance width="292.42105263157896"/>
  <unicode hex="007C"/>
  <outline>
    <contour>
      <point x="-31.657894736842103" y="-162.1578947368421" type="curve"/>
      <point x="149.18421052631578" y="-162.1578947368421" type="line"/>
      <point x="164.8421052631579" y="-45.1578947368421"/>
      <point x="186.02631578947367" y="58.8421052631579"/>
      <point x="209.02631578947367" y="166.8421052631579" type="curve"/>
      <point x="269.02631578947364" y="448.8421052631579" type="line"/>
      <point x="292.02631578947364" y="556.8421052631579"/>
      <point x="314.84210526315786" y="660.8421052631579"/>
      <point x="349.1842105263157" y="777.8421052631579" type="curve"/>
      <point x="168.3421052631579" y="777.8421052631579" type="line"/>
      <point x="152.68421052631578" y="660.8421052631579"/>
      <point x="131.5" y="556.8421052631579"/>
      <point x="108.5" y="448.8421052631579" type="curve"/>
      <point x="48.5" y="166.8421052631579" type="line"/>
      <point x="25.5" y="58.8421052631579"/>
      <point x="1.8684210526315774" y="-45.1578947368421"/>
    </contour>
  </outline>
</glyph>
<glyph name="cent" format="2">
  <advance width="479.1578947368421"/>
  <unicode hex="00A2"/>
  <outline>
    <contour>
      <point x="124.34210526315789" y="-137.0" type="curve"/>
      <point x="272.36842105263156" y="-137.0" type="line"/>
      <point x="281.5526315789474" y="-60.71052631578948"/>
      <point x="293.8157894736842" y="10.94736842105263"/>
      <point x="308.7105263157895" y="82.42105263157895" type="curve"/>
      <point x="180.99999999999997" y="82.42105263157895" type="line"/>
      <point x="166.10526315789474" y="11.763157894736842"/>
      <point x="147.76315789473682" y="-59.89473684210526"/>
    </contour>
    <contour>
      <point x="253.44736842105263" y="425.7105263157895" type="curve"/>
      <point x="381.97368421052636" y="425.7105263157895" type="line"/>
      <point x="395.2368421052632" y="490.4736842105263"/>
      <point x="412.7631578947369" y="556.0526315789474"/>
      <point x="434.3684210526316" y="627.078947368421" type="curve"/>
      <point x="286.34210526315786" y="627.078947368421" type="line"/>
      <point x="278.1578947368421" y="556.8684210526316"/>
      <point x="267.5263157894737" y="491.2894736842105"/>
    </contour>
    <contour>
      <point x="287.60526315789474" y="-12.263157894736842" type="curve" smooth="yes"/>
      <point x="325.6315789473684" y="-12.263157894736842"/>
      <point x="374.3684210526316" y="0.026315789473684514"/>
      <point x="401.3684210526316" y="9.131578947368421" type="curve"/>
      <point x="426.65789473684214" y="169.86842105263156" type="line"/>
      <point x="395.36842105263156" y="152.76315789473685"/>
      <point x="351.2631578947368" y="139.8421052631579"/>
      <point x="325.1315789473684" y="139.6578947368421" type="curve" smooth="yes"/>
      <point x="249.31578947368422" y="141.6578947368421"/>
      <point x="201.23684210526315" y="185.3421052631579"/>
      <point x="219.36842105263156" y="265.36842105263156" type="curve" smooth="yes"/>
      <point x="233.5" y="326.2105263157895"/>
      <point x="272.92105263157896" y="353.60526315789474"/>
      <point x="327.18421052631584" y="358.60526315789474" type="curve"/>
      <point x="351.13157894736844" y="358.60526315789474"/>
      <point x="396.89473684210526" y="346.6842105263158"/>
      <point x="454.9736842105263" y="317.7631578947368" type="curve"/>
      <point x="500.2368421052632" y="477.57894736842104" type="line"/>
      <point x="457.7894736842105" y="492.6842105263158"/>
      <point x="387.8157894736843" y="514.6052631578947"/>
      <point x="326.55263157894734" y="514.6052631578947" type="curve" smooth="yes"/>
      <point x="162.28947368421052" y="514.6052631578947"/>
      <point x="61.36842105263158" y="422.05263157894734"/>
      <point x="31.73684210526316" y="281.9736842105263" type="curve" smooth="yes"/>
      <point x="-6.157894736842103" y="102.02631578947368"/>
      <point x="100.5" y="-12.263157894736842"/>
    </contour>
  </outline>
</glyph>
<glyph name="sterling" format="2">
  <advance width="614.8947368421052"/>
  <unicode hex="00A3"/>
  <outline>
    <contour>
      <point x="-10.447368421052628" y="0.0" type="line"/>
      <point x="531.1578947368422" y="0.0" type="line"/>
      <point x="570.7894736842106" y="186.36842105263156" type="line"/>
      <point x="488.31578947368416" y="170.3157894736842"/>
      <point x="418.2894736842105" y="168.68421052631578"/>
      <point x="299.1578947368421" y="168.68421052631578" type="curve"/>
      <point x="168.28947368421052" y="168.68421052631578" type="line"/>
      <point x="195.5" y="140.71052631578948" type="line"/>
      <point x="295.4736842105263" y="202.578947368421"/>
      <point x="312.0263157894737" y="253.71052631578948"/>
      <point x="321.7631578947369" y="299.65789473684214" type="curve" smooth="yes"/>
      <point x="349.2105263157895" y="433.2105263157895" type="line" smooth="yes"/>
      <point x="364.15789473684214" y="504.47368421052636"/>
      <point x="404.39473684210526" y="537.3684210526316"/>
      <point x="464.07894736842104" y="540.8157894736842" type="curve"/>
      <point x="489.0263157894737" y="540.8157894736842"/>
      <point x="535.9736842105264" y="528.8947368421052"/>
      <point x="596.0526315789474" y="499.342105263158" type="curve"/>
      <point x="649.6578947368421" y="669.578947368421" type="line"/>
      <point x="598.6842105263158" y="683.8684210526316"/>
      <point x="515.2894736842105" y="704.1578947368421"/>
      <point x="442.2368421052631" y="704.1578947368421" type="curve" smooth="yes"/>
      <point x="280.8421052631579" y="704.1578947368421"/>
      <point x="182.78947368421055" y="616.7631578947368"/>
      <point x="150.1578947368421" y="458.15789473684214" type="curve" smooth="yes"/>
      <point x="137.05263157894737" y="395.92105263157896"/>
      <point x="125.84210526315789" y="308.2368421052631"/>
      <point x="110.47368421052632" y="234.57894736842104" type="curve"/>
      <point x="102.10526315789474" y="200.26315789473685"/>
      <point x="87.81578947368422" y="152.65789473684208"/>
      <point x="11.052631578947372" y="102.86842105263158" type="curve"/>
    </contour>
    <contour>
      <point x="55.92105263157894" y="291.13157894736844" type="line"/>
      <point x="128.78947368421052" y="297.2105263157895"/>
      <point x="197.6578947368421" y="298.0263157894737"/>
      <point x="256.89473684210526" y="298.0263157894737" type="curve"/>
      <point x="298.3157894736842" y="298.0263157894737" type="line"/>
      <point x="357.5526315789474" y="298.0263157894737"/>
      <point x="424.7894736842105" y="297.2105263157895"/>
      <point x="495.657894736842" y="291.13157894736844" type="curve"/>
      <point x="525.5" y="432.4473684210526" type="line"/>
      <point x="452.8157894736842" y="426.36842105263156"/>
      <point x="383.94736842105266" y="425.55263157894734"/>
      <point x="324.7105263157895" y="425.55263157894734" type="curve"/>
      <point x="283.2894736842105" y="425.55263157894734" type="line"/>
      <point x="224.05263157894737" y="425.55263157894734"/>
      <point x="156.81578947368422" y="426.36842105263156"/>
      <point x="85.76315789473684" y="432.4473684210526" type="curve"/>
    </contour>
  </outline>
</glyph>
<glyph name="currency" format="2">
  <advance width="668.5263157894736"/>
  <unicode hex="00A4"/>
  <outline>
    <contour>
      <point x="331.1842105263158" y="85.13157894736842" type="curve" smooth="yes"/>
      <point x="468.63157894736844" y="85.13157894736842"/>
      <point x="559.2105263157895" y="145.02631578947367"/>
      <point x="588.5526315789474" y="284.13157894736844" type="curve" smooth="yes"/>
      <point x="618.078947368421" y="425.42105263157896"/>
      <point x="519.5000000000001" y="553.421052631579"/>
      <point x="363.2631578947368" y="553.421052631579" type="curve" smooth="yes"/>
      <point x="227.10526315789474" y="553.421052631579"/>
      <point x="135.68421052631578" y="493.7105263157895"/>
      <point x="106.34210526315789" y="354.60526315789474" type="curve" smooth="yes"/>
      <point x="76.8157894736842" y="213.13157894736844"/>
      <point x="174.21052631578948" y="85.13157894736842"/>
    </contour>
    <contour>
      <point x="142.07894736842104" y="4.657894736842105" type="line"/>
      <point x="190.42105263157896" y="57.89473684210526"/>
      <point x="239.39473684210523" y="104.68421052631578"/>
      <point x="283.1842105263158" y="145.6578947368421" type="curve"/>
      <point x="170.18421052631578" y="265.55263157894734" type="line"/>
      <point x="127.21052631578947" y="225.39473684210526"/>
      <point x="76.42105263157895" y="180.23684210526318"/>
      <point x="20.36842105263158" y="135.71052631578948" type="curve"/>
    </contour>
    <contour>
      <point x="342.9736842105263" y="236.23684210526315" type="curve"/>
      <point x="290.8421052631579" y="241.5"/>
      <point x="257.0263157894737" y="282.9736842105263"/>
      <point x="267.05263157894734" y="332.65789473684214" type="curve" smooth="yes"/>
      <point x="275.2631578947368" y="374.44736842105266"/>
      <point x="308.00000000000006" y="400.3157894736843"/>
      <point x="354.7368421052631" y="404.7631578947369" type="curve"/>
      <point x="407.9473684210526" y="398.68421052631584"/>
      <point x="439.5" y="355.5789473684211"/>
      <point x="430.2894736842105" y="309.3421052631579" type="curve" smooth="yes"/>
      <point x="421.07894736842104" y="261.6578947368421"/>
      <point x="390.0" y="238.23684210526315"/>
    </contour>
    <contour>
      <point x="191.47368421052633" y="372.15789473684214" type="curve"/>
      <point x="308.7368421052632" y="481.07894736842104" type="line"/>
      <point x="267.7631578947369" y="525.0526315789474"/>
      <point x="222.60526315789474" y="574.8421052631579"/>
      <point x="178.07894736842104" y="631.7105263157895" type="curve"/>
      <point x="50.473684210526315" y="512.4473684210526" type="line"/>
      <point x="104.3421052631579" y="464.2894736842105"/>
      <point x="151.31578947368422" y="415.13157894736844"/>
    </contour>
    <contour>
      <point x="520.8157894736842" y="8.65789473684211" type="curve"/>
      <point x="648.421052631579" y="127.92105263157893" type="line"/>
      <point x="594.5526315789474" y="176.07894736842104"/>
      <point x="547.578947368421" y="225.23684210526315"/>
      <point x="507.42105263157896" y="268.2105263157895" type="curve"/>
      <point x="390.15789473684214" y="159.28947368421052" type="line"/>
      <point x="431.13157894736844" y="115.31578947368422"/>
      <point x="476.2894736842105" y="65.5263157894737"/>
    </contour>
    <contour>
      <point x="528.7105263157895" y="374.8157894736842" type="line"/>
      <point x="571.6842105263158" y="414.9736842105263"/>
      <point x="622.4736842105264" y="460.1315789473684"/>
      <point x="678.5263157894738" y="504.6578947368421" type="curve"/>
      <point x="556.815789473684" y="635.7105263157894" type="line"/>
      <point x="508.4736842105263" y="582.4736842105262"/>
      <point x="459.49999999999994" y="535.6842105263158"/>
      <point x="415.7105263157895" y="494.7105263157894" type="curve"/>
    </contour>
  </outline>
</glyph>
<glyph name="yen" format="2">
  <advance width="668.2631578947369"/>
  <unicode hex="00A5"/>
  <outline>
    <contour>
      <point x="246.86842105263156" y="232.5263157894737" type="line"/>
      <point x="419.44736842105266" y="232.5263157894737" type="line"/>
      <point x="613.6578947368422" y="508.2368421052632" type="line"/>
      <point x="658.2105263157896" y="571.3947368421053"/>
      <point x="700.9473684210526" y="631.921052631579"/>
      <point x="755.3684210526316" y="688.8947368421053" type="curve"/>
      <point x="494.8157894736842" y="688.8947368421053" type="line"/>
      <point x="469.92105263157896" y="617.4473684210526"/>
      <point x="452.94736842105266" y="584.5"/>
      <point x="422.4736842105263" y="528.1578947368422" type="curve"/>
      <point x="372.47368421052636" y="435.3157894736842" type="line"/>
      <point x="359.9473684210526" y="435.3157894736842" type="line"/>
      <point x="345.92105263157896" y="522.5263157894738" type="line"/>
      <point x="337.2105263157895" y="575.7894736842105"/>
      <point x="334.3421052631579" y="618.7105263157895"/>
      <point x="335.7631578947368" y="688.8947368421053" type="curve"/>
      <point x="96.89473684210526" y="688.8947368421053" type="line"/>
      <point x="139.6052631578947" y="595.8421052631579"/>
      <point x="150.1578947368421" y="560.1315789473684"/>
      <point x="166.07894736842104" y="505.7894736842105" type="curve"/>
    </contour>
    <contour>
      <point x="169.8157894736842" y="0.0" type="curve"/>
      <point x="396.7105263157895" y="0.0" type="line"/>
      <point x="397.65789473684214" y="72.28947368421052"/>
      <point x="410.0263157894737" y="134.39473684210526"/>
      <point x="428.0263157894737" y="219.0263157894737" type="curve"/>
      <point x="464.7894736842106" y="392.9473684210526" type="line"/>
      <point x="268.1842105263158" y="392.9473684210526" type="line"/>
      <point x="231.42105263157893" y="219.84210526315792" type="line"/>
      <point x="213.42105263157893" y="135.21052631578948"/>
      <point x="199.42105263157896" y="72.28947368421052"/>
    </contour>
    <contour>
      <point x="36.18421052631578" y="101.34210526315789" type="line"/>
      <point x="108.86842105263159" y="107.42105263157895"/>
      <point x="176.92105263157893" y="108.23684210526315"/>
      <point x="236.15789473684205" y="108.23684210526315" type="curve"/>
      <point x="373.89473684210526" y="108.23684210526315" type="line"/>
      <point x="433.13157894736844" y="108.23684210526315"/>
      <point x="501.18421052631584" y="107.42105263157895"/>
      <point x="572.2368421052632" y="101.34210526315789" type="curve"/>
      <point x="597.8157894736842" y="222.26315789473685" type="line"/>
      <point x="525.1315789473684" y="220.26315789473685"/>
      <point x="457.0789473684211" y="219.44736842105263"/>
      <point x="397.8421052631579" y="219.44736842105263" type="curve"/>
      <point x="260.10526315789474" y="219.44736842105263" type="line"/>
      <point x="200.86842105263156" y="219.44736842105263"/>
      <point x="132.8157894736842" y="220.26315789473685"/>
      <point x="61.763157894736835" y="222.26315789473685" type="curve"/>
    </contour>
    <contour>
      <point x="72.97368421052632" y="275.39473684210526" type="line"/>
      <point x="145.02631578947367" y="277.39473684210526"/>
      <point x="213.07894736842104" y="278.2105263157895"/>
      <point x="272.3157894736842" y="278.2105263157895" type="curve"/>
      <point x="410.0526315789474" y="278.2105263157895" type="line"/>
      <point x="469.2894736842106" y="278.2105263157895"/>
      <point x="537.3421052631579" y="277.39473684210526"/>
      <point x="609.0263157894736" y="275.39473684210526" type="curve"/>
      <point x="634.7894736842106" y="396.3157894736842" type="line"/>
      <point x="561.2894736842106" y="390.2368421052632"/>
      <point x="493.2368421052632" y="389.42105263157896"/>
      <point x="434.0" y="389.42105263157896" type="curve"/>
      <point x="296.2631578947368" y="389.42105263157896" type="line"/>
      <point x="237.02631578947367" y="389.42105263157896"/>
      <point x="168.9736842105263" y="390.2368421052632"/>
      <point x="98.73684210526316" y="396.3157894736842" type="curve"/>
    </contour>
  </outline>
</glyph>
<glyph name="brokenbar" format="2">
  <advance width="292.42105263157896"/>
  <unicode hex="00A6"/>
  <outline>
    <contour>
      <point x="88.6842105263158" y="357.8421052631579" type="line"/>
      <point x="249.21052631578945" y="357.8421052631579" type="line"/>
      <point x="269.02631578947364" y="448.8421052631579" type="line"/>
      <point x="292.02631578947364" y="556.8421052631579"/>
      <point x="314.84210526315786" y="660.8421052631579"/>
      <point x="349.1842105263157" y="777.8421052631579" type="curve"/>
      <point x="168.3421052631579" y="777.8421052631579" type="line"/>
      <point x="152.68421052631578" y="660.8421052631579"/>
      <point x="131.5" y="556.8421052631579"/>
      <point x="108.5" y="448.8421052631579" type="curve"/>
    </contour>
    <contour>
      <point x="-31.657894736842103" y="-162.1578947368421" type="curve"/>
      <point x="149.18421052631578" y="-162.1578947368421" type="line"/>
      <point x="164.8421052631579" y="-45.1578947368421"/>
      <point x="186.02631578947367" y="58.8421052631579"/>
      <point x="209.02631578947367" y="166.8421052631579" type="curve"/>
      <point x="228.02631578947367" y="257.8421052631579" type="line"/>
      <point x="67.5" y="257.8421052631579" type="line"/>
      <point x="48.5" y="166.8421052631579" type="line"/>
      <point x="25.5" y="58.8421052631579"/>
      <point x="1.8684210526315774" y="-45.1578947368421"/>
    </contour>
  </outline>
</glyph>
<glyph name="logicalnot" format="2">
  <advance width="584.4736842105264"/>
  <unicode hex="00AC"/>
  <outline>
    <contour>
      <point x="323.5526315789474" y="47.868421052631575" type="curve"/>
      <point x="502.7631578947368" y="47.868421052631575" type="line"/>
      <point x="511.9473684210526" y="119.36842105263159"/>
      <point x="525.578947368421" y="186.9736842105263"/>
      <point x="538.0263157894736" y="245.3947368421053" type="curve"/>
      <point x="569.2631578947368" y="393.57894736842104" type="line"/>
      <point x="496.39473684210526" y="387.5"/>
      <point x="428.3421052631579" y="386.6842105263158"/>
      <point x="369.10526315789474" y="386.6842105263158" type="curve"/>
      <point x="274.0" y="386.6842105263158" type="line"/>
      <point x="214.76315789473685" y="386.6842105263158"/>
      <point x="146.71052631578948" y="387.5"/>
      <point x="75.84210526315789" y="393.57894736842104" type="curve"/>
      <point x="38.65789473684211" y="219.26315789473685" type="line"/>
      <point x="112.15789473684211" y="225.3421052631579"/>
      <point x="180.21052631578948" y="226.1578947368421"/>
      <point x="239.44736842105263" y="226.1578947368421" type="curve"/>
      <point x="334.55263157894734" y="226.1578947368421" type="line"/>
      <point x="385.89473684210526" y="226.1578947368421"/>
      <point x="445.2368421052631" y="225.3421052631579"/>
      <point x="505.7631578947368" y="219.26315789473685" type="curve"/>
      <point x="392.6842105263158" y="340.7894736842105" type="line"/>
      <point x="372.60526315789474" y="246.21052631578948" type="line"/>
      <point x="360.15789473684214" y="187.78947368421052"/>
      <point x="344.89473684210526" y="119.36842105263159"/>
    </contour>
  </outline>
</glyph>
<glyph name="registered" format="2">
  <advance width="583.2105263157895"/>
  <unicode hex="00AE"/>
  <outline>
    <contour>
      <point x="345.3421052631579" y="232.55263157894737" type="curve" smooth="yes"/>
      <point x="516.8157894736842" y="232.55263157894737"/>
      <point x="606.3684210526316" y="342.7105263157895"/>
      <point x="606.3684210526316" y="491.13157894736844" type="curve" smooth="yes"/>
      <point x="606.3684210526316" y="632.2894736842105"/>
      <point x="523.2631578947369" y="748.078947368421"/>
      <point x="340.2631578947369" y="748.078947368421" type="curve" smooth="yes"/>
      <point x="160.71052631578948" y="748.078947368421"/>
      <point x="78.6842105263158" y="633.4736842105264"/>
      <point x="78.6842105263158" y="490.3157894736842" type="curve" smooth="yes"/>
      <point x="78.6842105263158" y="356.2368421052632"/>
      <point x="156.1578947368421" y="232.55263157894737"/>
    </contour>
    <contour>
      <point x="226.50000000000003" y="356.57894736842104" type="curve"/>
      <point x="314.7894736842105" y="356.57894736842104" type="line"/>
      <point x="309.5263157894737" y="388.57894736842104"/>
      <point x="307.89473684210526" y="415.57894736842104"/>
      <point x="307.89473684210526" y="450.57894736842104" type="curve"/>
      <point x="307.89473684210526" y="542.578947368421" type="line"/>
      <point x="307.89473684210526" y="574.3157894736842"/>
      <point x="309.5263157894737" y="599.8684210526316"/>
      <point x="313.9736842105263" y="629.421052631579" type="curve"/>
      <point x="224.0526315789474" y="641.578947368421" type="line"/>
      <point x="230.13157894736844" y="609.578947368421"/>
      <point x="230.94736842105266" y="581.578947368421"/>
      <point x="230.94736842105266" y="546.578947368421" type="curve"/>
      <point x="230.94736842105266" y="450.57894736842104" type="line"/>
      <point x="230.94736842105266" y="415.57894736842104"/>
      <point x="230.13157894736844" y="388.57894736842104"/>
    </contour>
    <contour>
      <point x="344.5263157894737" y="286.2105263157895" type="curve"/>
      <point x="189.8684210526316" y="290.65789473684214"/>
      <point x="138.0526315789474" y="383.7894736842105"/>
      <point x="138.0526315789474" y="490.3157894736842" type="curve" smooth="yes"/>
      <point x="138.0526315789474" y="606.078947368421"/>
      <point x="194.31578947368422" y="690.7894736842105"/>
      <point x="341.07894736842104" y="695.2368421052631" type="curve"/>
      <point x="489.4736842105263" y="690.7894736842105"/>
      <point x="546.8157894736842" y="604.0"/>
      <point x="546.8157894736842" y="491.13157894736844" type="curve" smooth="yes"/>
      <point x="546.8157894736842" y="372.7368421052631"/>
      <point x="482.94736842105266" y="290.65789473684214"/>
    </contour>
    <contour>
      <point x="384.7368421052632" y="356.57894736842104" type="curve"/>
      <point x="485.47368421052636" y="356.57894736842104" type="line"/>
      <point x="467.7368421052632" y="378.57894736842104"/>
      <point x="446.63157894736844" y="411.39473684210526"/>
      <point x="428.5263157894737" y="440.2105263157895" type="curve"/>
      <point x="392.3157894736842" y="497.8421052631579" type="line"/>
      <point x="361.10526315789474" y="472.2368421052632" type="line"/>
      <point x="433.5526315789474" y="472.2368421052632"/>
      <point x="458.10526315789474" y="511.0526315789474"/>
      <point x="458.10526315789474" y="559.5" type="curve" smooth="yes"/>
      <point x="458.10526315789474" y="617.9473684210526"/>
      <point x="419.10526315789474" y="644.2105263157895"/>
      <point x="344.3421052631579" y="644.2105263157895" type="curve"/>
      <point x="295.36842105263156" y="644.2105263157895"/>
      <point x="256.8421052631579" y="641.578947368421"/>
      <point x="224.0526315789474" y="641.578947368421" type="curve"/>
      <point x="283.39473684210526" y="581.9473684210526" type="line"/>
      <point x="340.89473684210526" y="581.9473684210526" type="line" smooth="yes"/>
      <point x="354.4736842105263" y="581.9473684210526"/>
      <point x="377.7105263157895" y="580.7631578947369"/>
      <point x="377.7105263157895" y="549.7105263157895" type="curve" smooth="yes"/>
      <point x="377.7105263157895" y="520.8421052631579"/>
      <point x="359.57894736842104" y="511.7368421052632"/>
      <point x="333.60526315789474" y="511.7368421052632" type="curve" smooth="yes"/>
      <point x="292.2894736842105" y="511.7368421052632" type="line"/>
      <point x="292.2894736842105" y="463.7105263157895" type="line"/>
      <point x="360.5526315789474" y="463.7105263157895" type="line"/>
      <point x="314.0" y="492.0263157894737" type="line"/>
      <point x="352.13157894736844" y="426.39473684210526" type="line"/>
      <point x="364.42105263157896" y="405.2105263157895"/>
      <point x="377.3421052631579" y="381.7631578947368"/>
    </contour>
  </outline>
</glyph>
<glyph name="plusminus" format="2">
  <advance width="584.4736842105264"/>
  <unicode hex="00B1"/>
  <outline>
    <contour>
      <point x="-9.105263157894736" y="-6.894736842105263" type="line"/>
      <point x="63.57894736842105" y="-0.8157894736842105"/>
      <point x="132.44736842105263" y="0.0"/>
      <point x="191.68421052631578" y="0.0" type="curve"/>
      <point x="286.7894736842105" y="0.0" type="line"/>
      <point x="346.0263157894737" y="0.0"/>
      <point x="413.2631578947368" y="-0.8157894736842105"/>
      <point x="484.31578947368416" y="-6.894736842105263" type="curve"/>
      <point x="521.4999999999999" y="167.42105263157893" type="line"/>
      <point x="448.0" y="161.3421052631579"/>
      <point x="379.94736842105266" y="160.52631578947367"/>
      <point x="320.7105263157895" y="160.52631578947367" type="curve"/>
      <point x="225.6052631578947" y="160.52631578947367" type="line"/>
      <point x="166.36842105263156" y="160.52631578947367"/>
      <point x="98.3157894736842" y="161.3421052631579"/>
      <point x="28.07894736842105" y="167.42105263157893" type="curve"/>
    </contour>
    <contour>
      <point x="69.15789473684211" y="363.2368421052632" type="line"/>
      <point x="142.8421052631579" y="369.3157894736842"/>
      <point x="210.89473684210526" y="370.13157894736844"/>
      <point x="270.13157894736844" y="370.13157894736844" type="curve"/>
      <point x="365.2368421052632" y="370.13157894736844" type="line"/>
      <point x="424.47368421052636" y="370.13157894736844"/>
      <point x="492.5263157894737" y="369.3157894736842"/>
      <point x="562.578947368421" y="363.2368421052632" type="curve"/>
      <point x="599.7631578947368" y="537.5526315789474" type="line"/>
      <point x="527.078947368421" y="531.4736842105262"/>
      <point x="459.0263157894737" y="530.6578947368421"/>
      <point x="399.7894736842105" y="530.6578947368421" type="curve"/>
      <point x="304.6842105263158" y="530.6578947368421" type="line"/>
      <point x="245.44736842105263" y="530.6578947368421"/>
      <point x="177.39473684210526" y="531.4736842105262"/>
      <point x="106.34210526315789" y="537.5526315789474" type="curve"/>
    </contour>
    <contour>
      <point x="192.50000000000003" y="208.1578947368421" type="curve"/>
      <point x="372.7105263157894" y="208.1578947368421" type="line"/>
      <point x="382.07894736842104" y="279.8421052631579"/>
      <point x="395.52631578947364" y="348.07894736842104"/>
      <point x="407.9736842105263" y="407.3157894736842" type="curve"/>
      <point x="426.55263157894734" y="493.4736842105263" type="line"/>
      <point x="438.99999999999994" y="552.7105263157895"/>
      <point x="454.2631578947368" y="620.7631578947369"/>
      <point x="475.6052631578947" y="692.6315789473684" type="curve"/>
      <point x="295.39473684210526" y="692.6315789473684" type="line"/>
      <point x="286.0263157894737" y="620.9473684210527"/>
      <point x="272.57894736842104" y="552.7105263157895"/>
      <point x="260.13157894736844" y="493.4736842105263" type="curve"/>
      <point x="241.5526315789474" y="407.3157894736842" type="line"/>
      <point x="229.10526315789474" y="348.07894736842104"/>
      <point x="213.8421052631579" y="279.8421052631579"/>
    </contour>
  </outline>
</glyph>
<glyph name="micro" format="2">
  <advance width="583.2631578947369"/>
  <unicode hex="00B5"/>
  <outline>
    <contour>
      <point x="-66.73684210526315" y="-197.26315789473685" type="curve"/>
      <point x="155.26315789473685" y="-192.0" type="line"/>
      <point x="157.02631578947367" y="-121.89473684210526"/>
      <point x="163.49999999999997" y="-60.973684210526315"/>
      <point x="179.05263157894734" y="11.868421052631579" type="curve" smooth="yes"/>
      <point x="182.71052631578945" y="30.236842105263158" type="line"/>
      <point x="93.13157894736841" y="30.236842105263158" type="line"/>
      <point x="109.39473684210527" y="1.7894736842105265"/>
      <point x="138.5263157894737" y="-14.710526315789473"/>
      <point x="179.07894736842104" y="-14.710526315789473" type="curve" smooth="yes"/>
      <point x="224.76315789473682" y="-14.710526315789473"/>
      <point x="279.6578947368421" y="23.894736842105264"/>
      <point x="317.9473684210526" y="76.3157894736842" type="curve"/>
      <point x="332.7368421052631" y="76.3157894736842" type="line"/>
      <point x="334.0263157894737" y="0.0" type="line"/>
      <point x="512.0526315789474" y="0.0" type="line"/>
      <point x="501.97368421052636" y="66.05263157894737"/>
      <point x="507.9473684210526" y="126.10526315789473"/>
      <point x="519.2105263157895" y="179.78947368421052" type="curve"/>
      <point x="539.0526315789474" y="274.2631578947369" type="line"/>
      <point x="559.3157894736843" y="369.94736842105266"/>
      <point x="581.2105263157894" y="431.2368421052632"/>
      <point x="591.5" y="500.5263157894737" type="curve"/>
      <point x="386.8157894736842" y="500.5263157894737" type="line"/>
      <point x="381.97368421052636" y="430.42105263157896"/>
      <point x="372.8684210526315" y="369.13157894736844"/>
      <point x="357.31578947368416" y="296.2894736842105" type="curve"/>
      <point x="336.02631578947364" y="194.76315789473685" type="line"/>
      <point x="311.2894736842105" y="169.28947368421052"/>
      <point x="279.0526315789474" y="150.26315789473682"/>
      <point x="261.0263157894737" y="150.26315789473682" type="curve" smooth="yes"/>
      <point x="223.57894736842107" y="150.26315789473682"/>
      <point x="215.52631578947367" y="184.23684210526315"/>
      <point x="228.55263157894734" y="244.8157894736842" type="curve"/>
      <point x="239.21052631578945" y="296.2894736842105" type="line"/>
      <point x="254.578947368421" y="368.3157894736842"/>
      <point x="277.0263157894737" y="435.6842105263158"/>
      <point x="289.39473684210526" y="505.7894736842105" type="curve"/>
      <point x="78.81578947368422" y="500.5263157894737" type="line"/>
      <point x="73.97368421052632" y="430.42105263157896"/>
      <point x="68.13157894736842" y="370.7631578947369"/>
      <point x="47.684210526315795" y="272.63157894736844" type="curve"/>
      <point x="-5.131578947368418" y="22.473684210526315" type="line"/>
      <point x="-22.947368421052627" y="-60.973684210526315"/>
      <point x="-42.210526315789465" y="-127.15789473684211"/>
    </contour>
  </outline>
</glyph>
<glyph name="paragraph" format="2">
  <advance width="597.0526315789474"/>
  <unicode hex="00B6"/>
  <outline>
    <contour>
      <point x="256.36842105263156" y="273.0263157894737" type="curve" smooth="yes"/>
      <point x="273.6842105263158" y="273.0263157894737" type="line"/>
      <point x="334.2105263157895" y="713.0" type="line"/>
      <point x="308.07894736842104" y="713.0" type="line"/>
      <point x="182.81578947368422" y="713.0"/>
      <point x="100.52631578947368" y="639.8421052631578"/>
      <point x="74.89473684210526" y="515.8684210526316" type="curve" smooth="yes"/>
      <point x="49.26315789473684" y="391.44736842105266"/>
      <point x="116.23684210526316" y="273.0263157894737"/>
    </contour>
    <contour>
      <point x="120.94736842105263" y="-176.44736842105263" type="curve"/>
      <point x="250.3947368421053" y="-176.44736842105263" type="line"/>
      <point x="268.5" y="-58.63157894736842"/>
      <point x="289.6842105263158" y="44.73684210526316"/>
      <point x="312.6842105263158" y="153.55263157894737" type="curve"/>
      <point x="361.5" y="383.0" type="line"/>
      <point x="384.5" y="491.8157894736842"/>
      <point x="407.3157894736842" y="595.1842105263158"/>
      <point x="441.6578947368421" y="713.0" type="curve"/>
      <point x="319.9210526315789" y="713.0" type="line"/>
      <point x="294.9210526315789" y="595.1842105263158"/>
      <point x="272.9210526315789" y="491.8157894736842"/>
      <point x="249.92105263157893" y="383.0" type="curve"/>
      <point x="201.10526315789474" y="153.55263157894737" type="line"/>
      <point x="178.10526315789474" y="44.73684210526316"/>
      <point x="155.28947368421052" y="-58.63157894736842"/>
    </contour>
    <contour>
      <point x="302.34210526315786" y="-176.44736842105263" type="curve"/>
      <point x="431.7894736842105" y="-176.44736842105263" type="line"/>
      <point x="447.44736842105266" y="-58.63157894736842"/>
      <point x="468.63157894736844" y="44.73684210526316"/>
      <point x="491.63157894736844" y="153.55263157894737" type="curve"/>
      <point x="540.4473684210527" y="383.0" type="line"/>
      <point x="563.4473684210527" y="491.8157894736842"/>
      <point x="586.2631578947369" y="595.1842105263158"/>
      <point x="620.6052631578948" y="713.0" type="curve"/>
      <point x="488.7105263157895" y="713.0" type="line"/>
      <point x="473.05263157894734" y="595.1842105263158"/>
      <point x="451.86842105263156" y="491.8157894736842"/>
      <point x="428.86842105263156" y="383.0" type="curve"/>
      <point x="380.05263157894734" y="153.55263157894737" type="line"/>
      <point x="357.05263157894734" y="44.73684210526316"/>
      <point x="334.2368421052631" y="-58.63157894736842"/>
    </contour>
    <contour>
      <point x="357.6315789473684" y="609.578947368421" type="line"/>
      <point x="452.7368421052632" y="609.578947368421" type="line"/>
      <point x="511.9736842105263" y="609.578947368421"/>
      <point x="579.2105263157896" y="608.7631578947369"/>
      <point x="650.0789473684212" y="602.6842105263157" type="curve"/>
      <point x="673.3947368421053" y="713.0" type="line"/>
      <point x="601.5263157894738" y="713.0"/>
      <point x="533.4736842105264" y="713.0"/>
      <point x="474.2368421052632" y="713.0" type="curve"/>
      <point x="379.1315789473684" y="713.0" type="line"/>
    </contour>
  </outline>
</glyph>
<glyph name="ordmasculine" format="2">
  <advance width="461.7894736842105"/>
  <unicode hex="00BA"/>
  <outline>
    <contour>
      <point x="273.3421052631579" y="326.0263157894737" type="curve" smooth="yes"/>
      <point x="390.7368421052631" y="326.0263157894737"/>
      <point x="467.92105263157896" y="395.57894736842104"/>
      <point x="491.55263157894734" y="506.1052631578947" type="curve" smooth="yes"/>
      <point x="516.3684210526317" y="620.7368421052631"/>
      <point x="450.8421052631579" y="728.2631578947369"/>
      <point x="306.1842105263158" y="728.2631578947369" type="curve" smooth="yes"/>
      <point x="189.6315789473684" y="728.2631578947369"/>
      <point x="111.78947368421053" y="662.0"/>
      <point x="87.97368421052632" y="547.5526315789473" type="curve" smooth="yes"/>
      <point x="64.15789473684211" y="432.4736842105263"/>
      <point x="125.86842105263158" y="326.0263157894737"/>
    </contour>
    <contour>
      <point x="276.9736842105263" y="436.7894736842105" type="curve"/>
      <point x="233.60526315789477" y="440.42105263157896"/>
      <point x="214.63157894736844" y="483.8947368421052"/>
      <point x="224.84210526315792" y="534.3947368421052" type="curve" smooth="yes"/>
      <point x="234.68421052631578" y="584.236842105263"/>
      <point x="265.05263157894734" y="614.6842105263157"/>
      <point x="303.7368421052632" y="617.5" type="curve"/>
      <point x="346.8947368421053" y="613.0526315789473"/>
      <point x="364.44736842105266" y="569.7894736842105"/>
      <point x="353.8684210526316" y="519.078947368421" type="curve" smooth="yes"/>
      <point x="344.0263157894737" y="470.60526315789474"/>
      <point x="315.6578947368421" y="440.42105263157896"/>
    </contour>
  </outline>
</glyph>
<glyph name="AE" format="2">
  <advance width="1012.4271844660194"/>
  <unicode hex="00C6"/>
  <anchor x="519.6504854368932" y="0.0" name="bottom"/>
  <anchor x="669.6504854368932" y="713.0" name="top"/>
  <outline>
    <contour>
      <point x="-53.262135922330096" y="0.0" type="curve"/>
      <point x="197.20388349514562" y="0.0" type="line"/>
      <point x="228.6990291262136" y="71.73786407766991"/>
      <point x="270.19417475728153" y="153.15533980582524"/>
      <point x="312.9708737864077" y="225.2135922330097" type="curve"/>
      <point x="507.1941747572815" y="549.9029126213592" type="line"/>
      <point x="536.1359223300971" y="549.9029126213592" type="line"/>
      <point x="668.3495145631067" y="549.9029126213592" type="line"/>
      <point x="724.1359223300971" y="713.0" type="line"/>
      <point x="395.9223300970873" y="713.0" type="line"/>
      <point x="360.50485436893206" y="637.6796116504855"/>
      <point x="319.7669902912622" y="567.9999999999999"/>
      <point x="269.72815533980577" y="488.3592233009709" type="curve"/>
      <point x="113.53398058252426" y="241.0" type="line"/>
      <point x="65.81553398058252" y="165.0"/>
      <point x="4.436893203883502" y="75.33980582524272"/>
    </contour>
    <contour>
      <point x="208.76699029126215" y="131.97087378640776" type="line"/>
      <point x="532.7864077669902" y="131.97087378640776" type="line"/>
      <point x="545.4271844660195" y="284.44660194174753" type="line"/>
      <point x="262.8932038834951" y="284.44660194174753" type="line"/>
    </contour>
    <contour>
      <point x="403.0776699029126" y="0.0" type="curve"/>
      <point x="636.5631067961166" y="0.0" type="line"/>
      <point x="644.2038834951455" y="33.20388349514563" type="line"/>
      <point x="648.2427184466019" y="108.5631067961165"/>
      <point x="657.9417475728155" y="174.2621359223301"/>
      <point x="676.6019417475727" y="263.2233009708738" type="curve"/>
      <point x="714.3203883495146" y="441.79611650485435" type="line"/>
      <point x="733.9805825242719" y="535.4368932038834"/>
      <point x="752.9611650485438" y="602.1165048543689"/>
      <point x="779.9223300970875" y="679.7961165048544" type="curve"/>
      <point x="786.5631067961165" y="713.0" type="line"/>
      <point x="553.0776699029126" y="713.0" type="line"/>
      <point x="547.0388349514564" y="635.3203883495146"/>
      <point x="539.0194174757281" y="567.6601941747572"/>
      <point x="519.0194174757281" y="473.66019417475724" type="curve"/>
      <point x="467.6990291262136" y="231.37864077669903" type="line"/>
      <point x="447.6990291262136" y="138.03883495145632"/>
      <point x="429.37864077669906" y="75.35922330097087"/>
    </contour>
    <contour>
      <point x="598.3592233009708" y="0.0" type="line"/>
      <point x="915.0097087378641" y="0.0" type="line"/>
      <point x="953.5533980582525" y="180.07766990291262" type="line"/>
      <point x="887.8349514563106" y="167.1165048543689"/>
      <point x="821.4368932038834" y="164.45631067961165"/>
      <point x="746.3592233009709" y="164.45631067961165" type="curve"/>
      <point x="633.2427184466019" y="164.45631067961165" type="line"/>
    </contour>
    <contour>
      <point x="632.5145631067961" y="283.5728155339806" type="line"/>
      <point x="758.5922330097088" y="283.5728155339806" type="line"/>
      <point x="840.3106796116505" y="283.5728155339806"/>
      <point x="896.009708737864" y="281.9126213592233"/>
      <point x="954.3883495145631" y="274.6116504854369" type="curve"/>
      <point x="989.9514563106796" y="443.1067961165049" type="line"/>
      <point x="931.252427184466" y="434.46601941747576"/>
      <point x="874.5533980582525" y="432.80582524271847"/>
      <point x="790.1747572815534" y="432.80582524271847" type="curve"/>
      <point x="663.7572815533981" y="432.80582524271847" type="line"/>
    </contour>
    <contour>
      <point x="700.8543689320388" y="548.5436893203884" type="line"/>
      <point x="813.2912621359224" y="548.5436893203884" type="line"/>
      <point x="903.7087378640776" y="548.5436893203884"/>
      <point x="965.1067961165048" y="543.5631067961166"/>
      <point x="1022.1650485436892" y="532.9223300970873" type="curve"/>
      <point x="1059.7087378640776" y="713.0" type="line"/>
      <point x="735.0776699029126" y="713.0" type="line"/>
    </contour>
  </outline>
</glyph>
<glyph name="multiply" format="2">
  <advance width="589.8947368421052"/>
  <unicode hex="00D7"/>
  <outline>
    <contour>
      <point x="406.42105263157896" y="48.94736842105263" type="curve"/>
      <point x="538.6578947368422" y="164.1315789473684" type="line"/>
      <point x="493.42105263157896" y="210.4736842105263"/>
      <point x="451.0" y="259.89473684210526"/>
      <point x="416.4736842105263" y="301.60526315789474" type="curve"/>
      <point x="320.13157894736844" y="418.7105263157894" type="line"/>
      <point x="285.34210526315786" y="461.3157894736842"/>
      <point x="245.18421052631575" y="511.6578947368421"/>
      <point x="209.28947368421052" y="565.8947368421053" type="curve"/>
      <point x="76.05263157894737" y="449.0789473684211" type="line"/>
      <point x="122.28947368421052" y="401.10526315789474"/>
      <point x="163.07894736842107" y="354.94736842105266"/>
      <point x="197.60526315789474" y="313.2368421052631" type="curve"/>
      <point x="294.7631578947368" y="194.5" type="line"/>
      <point x="328.4736842105263" y="152.78947368421052"/>
      <point x="368.0789473684211" y="103.1842105263158"/>
    </contour>
    <contour>
      <point x="115.13157894736841" y="42.05263157894737" type="line"/>
      <point x="174.1052631578947" y="96.65789473684211"/>
      <point x="232.60526315789474" y="144.89473684210526"/>
      <point x="283.39473684210526" y="186.23684210526315" type="curve"/>
      <point x="427.89473684210526" y="301.6315789473684" type="line"/>
      <point x="478.5" y="341.97368421052636"/>
      <point x="542.8157894736842" y="388.13157894736844"/>
      <point x="605.8684210526317" y="432.8421052631579" type="curve"/>
      <point x="498.0263157894737" y="571.6052631578948" type="line"/>
      <point x="439.42105263157896" y="516.5526315789474"/>
      <point x="380.99999999999994" y="467.57894736842104"/>
      <point x="330.57894736842104" y="426.60526315789474" type="curve"/>
      <point x="187.0" y="311.9473684210526" type="line"/>
      <point x="135.84210526315792" y="270.42105263157896"/>
      <point x="73.97368421052632" y="224.89473684210526"/>
      <point x="8.289473684210526" y="180.0" type="curve"/>
    </contour>
  </outline>
</glyph>
